<?xml version="1.0" encoding="UTF-8" standalone="no"?>
<svg xmlns="http://www.w3.org/2000/svg" width="297mm" height="210mm" viewBox="0 0 297 210" version="1.1">
  <!-- Alvo de calibracao Gridfinity_AI (Spec 12, Opcao B). Dict DICT_4X4_50, lado 16mm, margem 10mm, 32 marcadores. -->
  <rect x="0" y="0" width="297" height="210" fill="#ffffff"/>
  <g fill="#000000" stroke="none" shape-rendering="crispEdges">
    <rect x="10" y="10" width="16" height="2.6667"/>
    <rect x="10" y="12.6667" width="2.6667" height="2.6667"/>
    <rect x="15.3333" y="12.6667" width="2.6667" height="2.6667"/>
    <rect x="23.3333" y="12.6667" width="2.6667" height="2.6667"/>
    <rect x="10" y="15.3333" width="5.3333" height="2.6667"/>
    <rect x="18" y="15.3333" width="2.6667" height="2.6667"/>
    <rect x="23.3333" y="15.3333" width="2.6667" height="2.6667"/>
    <rect x="10" y="18" width="8" height="2.6667"/>
    <rect x="23.3333" y="18" width="2.6667" height="2.6667"/>
    <rect x="10" y="20.6667" width="8" height="2.6667"/>
    <rect x="20.6667" y="20.6667" width="5.3333" height="2.6667"/>
    <rect x="10" y="23.3333" width="16" height="2.6667"/>
    <rect x="36.1" y="10" width="16" height="2.6667"/>
    <rect x="36.1" y="12.6667" width="16" height="2.6667"/>
    <rect x="36.1" y="15.3333" width="2.6667" height="2.6667"/>
    <rect x="49.4333" y="15.3333" width="2.6667" height="2.6667"/>
    <rect x="36.1" y="18" width="2.6667" height="2.6667"/>
    <rect x="41.4333" y="18" width="5.3333" height="2.6667"/>
    <rect x="49.4333" y="18" width="2.6667" height="2.6667"/>
    <rect x="36.1" y="20.6667" width="2.6667" height="2.6667"/>
    <rect x="41.4333" y="20.6667" width="2.6667" height="2.6667"/>
    <rect x="46.7667" y="20.6667" width="5.3333" height="2.6667"/>
    <rect x="36.1" y="23.3333" width="16" height="2.6667"/>
    <rect x="62.2" y="10" width="16" height="2.6667"/>
    <rect x="62.2" y="12.6667" width="8" height="2.6667"/>
    <rect x="75.5333" y="12.6667" width="2.6667" height="2.6667"/>
    <rect x="62.2" y="15.3333" width="8" height="2.6667"/>
    <rect x="75.5333" y="15.3333" width="2.6667" height="2.6667"/>
    <rect x="62.2" y="18" width="8" height="2.6667"/>
    <rect x="72.8667" y="18" width="5.3333" height="2.6667"/>
    <rect x="62.2" y="20.6667" width="2.6667" height="2.6667"/>
    <rect x="70.2" y="20.6667" width="2.6667" height="2.6667"/>
    <rect x="75.5333" y="20.6667" width="2.6667" height="2.6667"/>
    <rect x="62.2" y="23.3333" width="16" height="2.6667"/>
    <rect x="88.3" y="10" width="16" height="2.6667"/>
    <rect x="88.3" y="12.6667" width="2.6667" height="2.6667"/>
    <rect x="93.6333" y="12.6667" width="5.3333" height="2.6667"/>
    <rect x="101.6333" y="12.6667" width="2.6667" height="2.6667"/>
    <rect x="88.3" y="15.3333" width="2.6667" height="2.6667"/>
    <rect x="93.6333" y="15.3333" width="5.3333" height="2.6667"/>
    <rect x="101.6333" y="15.3333" width="2.6667" height="2.6667"/>
    <rect x="88.3" y="18" width="5.3333" height="2.6667"/>
    <rect x="96.3" y="18" width="8" height="2.6667"/>
    <rect x="88.3" y="20.6667" width="5.3333" height="2.6667"/>
    <rect x="98.9667" y="20.6667" width="5.3333" height="2.6667"/>
    <rect x="88.3" y="23.3333" width="16" height="2.6667"/>
    <rect x="114.4" y="10" width="16" height="2.6667"/>
    <rect x="114.4" y="12.6667" width="5.3333" height="2.6667"/>
    <rect x="122.4" y="12.6667" width="2.6667" height="2.6667"/>
    <rect x="127.7333" y="12.6667" width="2.6667" height="2.6667"/>
    <rect x="114.4" y="15.3333" width="5.3333" height="2.6667"/>
    <rect x="122.4" y="15.3333" width="8" height="2.6667"/>
    <rect x="114.4" y="18" width="2.6667" height="2.6667"/>
    <rect x="119.7333" y="18" width="5.3333" height="2.6667"/>
    <rect x="127.7333" y="18" width="2.6667" height="2.6667"/>
    <rect x="114.4" y="20.6667" width="2.6667" height="2.6667"/>
    <rect x="125.0667" y="20.6667" width="5.3333" height="2.6667"/>
    <rect x="114.4" y="23.3333" width="16" height="2.6667"/>
    <rect x="140.5" y="10" width="16" height="2.6667"/>
    <rect x="140.5" y="12.6667" width="5.3333" height="2.6667"/>
    <rect x="153.8333" y="12.6667" width="2.6667" height="2.6667"/>
    <rect x="140.5" y="15.3333" width="2.6667" height="2.6667"/>
    <rect x="145.8333" y="15.3333" width="5.3333" height="2.6667"/>
    <rect x="153.8333" y="15.3333" width="2.6667" height="2.6667"/>
    <rect x="140.5" y="18" width="2.6667" height="2.6667"/>
    <rect x="148.5" y="18" width="8" height="2.6667"/>
    <rect x="140.5" y="20.6667" width="2.6667" height="2.6667"/>
    <rect x="148.5" y="20.6667" width="2.6667" height="2.6667"/>
    <rect x="153.8333" y="20.6667" width="2.6667" height="2.6667"/>
    <rect x="140.5" y="23.3333" width="16" height="2.6667"/>
    <rect x="166.6" y="10" width="16" height="2.6667"/>
    <rect x="166.6" y="12.6667" width="2.6667" height="2.6667"/>
    <rect x="171.9333" y="12.6667" width="5.3333" height="2.6667"/>
    <rect x="179.9333" y="12.6667" width="2.6667" height="2.6667"/>
    <rect x="166.6" y="15.3333" width="2.6667" height="2.6667"/>
    <rect x="177.2667" y="15.3333" width="5.3333" height="2.6667"/>
    <rect x="166.6" y="18" width="8" height="2.6667"/>
    <rect x="177.2667" y="18" width="5.3333" height="2.6667"/>
    <rect x="166.6" y="20.6667" width="2.6667" height="2.6667"/>
    <rect x="177.2667" y="20.6667" width="5.3333" height="2.6667"/>
    <rect x="166.6" y="23.3333" width="16" height="2.6667"/>
    <rect x="192.7" y="10" width="16" height="2.6667"/>
    <rect x="192.7" y="12.6667" width="2.6667" height="2.6667"/>
    <rect x="200.7" y="12.6667" width="8" height="2.6667"/>
    <rect x="192.7" y="15.3333" width="5.3333" height="2.6667"/>
    <rect x="200.7" y="15.3333" width="8" height="2.6667"/>
    <rect x="192.7" y="18" width="2.6667" height="2.6667"/>
    <rect x="206.0333" y="18" width="2.6667" height="2.6667"/>
    <rect x="192.7" y="20.6667" width="8" height="2.6667"/>
    <rect x="203.3667" y="20.6667" width="5.3333" height="2.6667"/>
    <rect x="192.7" y="23.3333" width="16" height="2.6667"/>
    <rect x="218.8" y="10" width="16" height="2.6667"/>
    <rect x="218.8" y="12.6667" width="2.6667" height="2.6667"/>
    <rect x="232.1333" y="12.6667" width="2.6667" height="2.6667"/>
    <rect x="218.8" y="15.3333" width="2.6667" height="2.6667"/>
    <rect x="229.4667" y="15.3333" width="5.3333" height="2.6667"/>
    <rect x="218.8" y="18" width="2.6667" height="2.6667"/>
    <rect x="226.8" y="18" width="2.6667" height="2.6667"/>
    <rect x="232.1333" y="18" width="2.6667" height="2.6667"/>
    <rect x="218.8" y="20.6667" width="2.6667" height="2.6667"/>
    <rect x="224.1333" y="20.6667" width="2.6667" height="2.6667"/>
    <rect x="229.4667" y="20.6667" width="5.3333" height="2.6667"/>
    <rect x="218.8" y="23.3333" width="16" height="2.6667"/>
    <rect x="244.9" y="10" width="16" height="2.6667"/>
    <rect x="244.9" y="12.6667" width="2.6667" height="2.6667"/>
    <rect x="252.9" y="12.6667" width="8" height="2.6667"/>
    <rect x="244.9" y="15.3333" width="2.6667" height="2.6667"/>
    <rect x="258.2333" y="15.3333" width="2.6667" height="2.6667"/>
    <rect x="244.9" y="18" width="5.3333" height="2.6667"/>
    <rect x="252.9" y="18" width="2.6667" height="2.6667"/>
    <rect x="258.2333" y="18" width="2.6667" height="2.6667"/>
    <rect x="244.9" y="20.6667" width="5.3333" height="2.6667"/>
    <rect x="255.5667" y="20.6667" width="5.3333" height="2.6667"/>
    <rect x="244.9" y="23.3333" width="16" height="2.6667"/>
    <rect x="271" y="10" width="16" height="2.6667"/>
    <rect x="271" y="12.6667" width="2.6667" height="2.6667"/>
    <rect x="284.3333" y="12.6667" width="2.6667" height="2.6667"/>
    <rect x="271" y="15.3333" width="2.6667" height="2.6667"/>
    <rect x="276.3333" y="15.3333" width="5.3333" height="2.6667"/>
    <rect x="284.3333" y="15.3333" width="2.6667" height="2.6667"/>
    <rect x="271" y="18" width="2.6667" height="2.6667"/>
    <rect x="276.3333" y="18" width="5.3333" height="2.6667"/>
    <rect x="284.3333" y="18" width="2.6667" height="2.6667"/>
    <rect x="271" y="20.6667" width="10.6667" height="2.6667"/>
    <rect x="284.3333" y="20.6667" width="2.6667" height="2.6667"/>
    <rect x="271" y="23.3333" width="16" height="2.6667"/>
    <rect x="271" y="39" width="16" height="2.6667"/>
    <rect x="271" y="41.6667" width="10.6667" height="2.6667"/>
    <rect x="284.3333" y="41.6667" width="2.6667" height="2.6667"/>
    <rect x="271" y="44.3333" width="10.6667" height="2.6667"/>
    <rect x="284.3333" y="44.3333" width="2.6667" height="2.6667"/>
    <rect x="271" y="47" width="2.6667" height="2.6667"/>
    <rect x="276.3333" y="47" width="2.6667" height="2.6667"/>
    <rect x="281.6667" y="47" width="5.3333" height="2.6667"/>
    <rect x="271" y="49.6667" width="5.3333" height="2.6667"/>
    <rect x="284.3333" y="49.6667" width="2.6667" height="2.6667"/>
    <rect x="271" y="52.3333" width="16" height="2.6667"/>
    <rect x="271" y="68" width="16" height="2.6667"/>
    <rect x="271" y="70.6667" width="16" height="2.6667"/>
    <rect x="271" y="73.3333" width="2.6667" height="2.6667"/>
    <rect x="281.6667" y="73.3333" width="5.3333" height="2.6667"/>
    <rect x="271" y="76" width="2.6667" height="2.6667"/>
    <rect x="276.3333" y="76" width="2.6667" height="2.6667"/>
    <rect x="284.3333" y="76" width="2.6667" height="2.6667"/>
    <rect x="271" y="78.6667" width="5.3333" height="2.6667"/>
    <rect x="284.3333" y="78.6667" width="2.6667" height="2.6667"/>
    <rect x="271" y="81.3333" width="16" height="2.6667"/>
    <rect x="271" y="97" width="16" height="2.6667"/>
    <rect x="271" y="99.6667" width="8" height="2.6667"/>
    <rect x="281.6667" y="99.6667" width="5.3333" height="2.6667"/>
    <rect x="271" y="102.3333" width="2.6667" height="2.6667"/>
    <rect x="276.3333" y="102.3333" width="2.6667" height="2.6667"/>
    <rect x="281.6667" y="102.3333" width="5.3333" height="2.6667"/>
    <rect x="271" y="105" width="16" height="2.6667"/>
    <rect x="271" y="107.6667" width="2.6667" height="2.6667"/>
    <rect x="284.3333" y="107.6667" width="2.6667" height="2.6667"/>
    <rect x="271" y="110.3333" width="16" height="2.6667"/>
    <rect x="271" y="126" width="16" height="2.6667"/>
    <rect x="271" y="128.6667" width="8" height="2.6667"/>
    <rect x="281.6667" y="128.6667" width="5.3333" height="2.6667"/>
    <rect x="271" y="131.3333" width="5.3333" height="2.6667"/>
    <rect x="279" y="131.3333" width="8" height="2.6667"/>
    <rect x="271" y="134" width="2.6667" height="2.6667"/>
    <rect x="276.3333" y="134" width="2.6667" height="2.6667"/>
    <rect x="284.3333" y="134" width="2.6667" height="2.6667"/>
    <rect x="271" y="136.6667" width="10.6667" height="2.6667"/>
    <rect x="284.3333" y="136.6667" width="2.6667" height="2.6667"/>
    <rect x="271" y="139.3333" width="16" height="2.6667"/>
    <rect x="271" y="155" width="16" height="2.6667"/>
    <rect x="271" y="157.6667" width="8" height="2.6667"/>
    <rect x="281.6667" y="157.6667" width="5.3333" height="2.6667"/>
    <rect x="271" y="160.3333" width="5.3333" height="2.6667"/>
    <rect x="281.6667" y="160.3333" width="5.3333" height="2.6667"/>
    <rect x="271" y="163" width="8" height="2.6667"/>
    <rect x="284.3333" y="163" width="2.6667" height="2.6667"/>
    <rect x="271" y="165.6667" width="2.6667" height="2.6667"/>
    <rect x="281.6667" y="165.6667" width="5.3333" height="2.6667"/>
    <rect x="271" y="168.3333" width="16" height="2.6667"/>
    <rect x="10" y="184" width="16" height="2.6667"/>
    <rect x="10" y="186.6667" width="5.3333" height="2.6667"/>
    <rect x="18" y="186.6667" width="8" height="2.6667"/>
    <rect x="10" y="189.3333" width="5.3333" height="2.6667"/>
    <rect x="20.6667" y="189.3333" width="5.3333" height="2.6667"/>
    <rect x="10" y="192" width="5.3333" height="2.6667"/>
    <rect x="20.6667" y="192" width="5.3333" height="2.6667"/>
    <rect x="10" y="194.6667" width="5.3333" height="2.6667"/>
    <rect x="18" y="194.6667" width="2.6667" height="2.6667"/>
    <rect x="23.3333" y="194.6667" width="2.6667" height="2.6667"/>
    <rect x="10" y="197.3333" width="16" height="2.6667"/>
    <rect x="36.1" y="184" width="16" height="2.6667"/>
    <rect x="36.1" y="186.6667" width="5.3333" height="2.6667"/>
    <rect x="46.7667" y="186.6667" width="5.3333" height="2.6667"/>
    <rect x="36.1" y="189.3333" width="5.3333" height="2.6667"/>
    <rect x="46.7667" y="189.3333" width="5.3333" height="2.6667"/>
    <rect x="36.1" y="192" width="16" height="2.6667"/>
    <rect x="36.1" y="194.6667" width="16" height="2.6667"/>
    <rect x="36.1" y="197.3333" width="16" height="2.6667"/>
    <rect x="62.2" y="184" width="16" height="2.6667"/>
    <rect x="62.2" y="186.6667" width="5.3333" height="2.6667"/>
    <rect x="72.8667" y="186.6667" width="5.3333" height="2.6667"/>
    <rect x="62.2" y="189.3333" width="2.6667" height="2.6667"/>
    <rect x="70.2" y="189.3333" width="8" height="2.6667"/>
    <rect x="62.2" y="192" width="5.3333" height="2.6667"/>
    <rect x="70.2" y="192" width="2.6667" height="2.6667"/>
    <rect x="75.5333" y="192" width="2.6667" height="2.6667"/>
    <rect x="62.2" y="194.6667" width="2.6667" height="2.6667"/>
    <rect x="72.8667" y="194.6667" width="5.3333" height="2.6667"/>
    <rect x="62.2" y="197.3333" width="16" height="2.6667"/>
    <rect x="88.3" y="184" width="16" height="2.6667"/>
    <rect x="88.3" y="186.6667" width="5.3333" height="2.6667"/>
    <rect x="101.6333" y="186.6667" width="2.6667" height="2.6667"/>
    <rect x="88.3" y="189.3333" width="5.3333" height="2.6667"/>
    <rect x="98.9667" y="189.3333" width="5.3333" height="2.6667"/>
    <rect x="88.3" y="192" width="2.6667" height="2.6667"/>
    <rect x="93.6333" y="192" width="2.6667" height="2.6667"/>
    <rect x="98.9667" y="192" width="5.3333" height="2.6667"/>
    <rect x="88.3" y="194.6667" width="2.6667" height="2.6667"/>
    <rect x="101.6333" y="194.6667" width="2.6667" height="2.6667"/>
    <rect x="88.3" y="197.3333" width="16" height="2.6667"/>
    <rect x="114.4" y="184" width="16" height="2.6667"/>
    <rect x="114.4" y="186.6667" width="2.6667" height="2.6667"/>
    <rect x="119.7333" y="186.6667" width="10.6667" height="2.6667"/>
    <rect x="114.4" y="189.3333" width="5.3333" height="2.6667"/>
    <rect x="125.0667" y="189.3333" width="5.3333" height="2.6667"/>
    <rect x="114.4" y="192" width="2.6667" height="2.6667"/>
    <rect x="119.7333" y="192" width="10.6667" height="2.6667"/>
    <rect x="114.4" y="194.6667" width="2.6667" height="2.6667"/>
    <rect x="119.7333" y="194.6667" width="2.6667" height="2.6667"/>
    <rect x="127.7333" y="194.6667" width="2.6667" height="2.6667"/>
    <rect x="114.4" y="197.3333" width="16" height="2.6667"/>
    <rect x="140.5" y="184" width="16" height="2.6667"/>
    <rect x="140.5" y="186.6667" width="2.6667" height="2.6667"/>
    <rect x="145.8333" y="186.6667" width="2.6667" height="2.6667"/>
    <rect x="153.8333" y="186.6667" width="2.6667" height="2.6667"/>
    <rect x="140.5" y="189.3333" width="16" height="2.6667"/>
    <rect x="140.5" y="192" width="8" height="2.6667"/>
    <rect x="151.1667" y="192" width="5.3333" height="2.6667"/>
    <rect x="140.5" y="194.6667" width="2.6667" height="2.6667"/>
    <rect x="145.8333" y="194.6667" width="2.6667" height="2.6667"/>
    <rect x="153.8333" y="194.6667" width="2.6667" height="2.6667"/>
    <rect x="140.5" y="197.3333" width="16" height="2.6667"/>
    <rect x="166.6" y="184" width="16" height="2.6667"/>
    <rect x="166.6" y="186.6667" width="2.6667" height="2.6667"/>
    <rect x="174.6" y="186.6667" width="8" height="2.6667"/>
    <rect x="166.6" y="189.3333" width="2.6667" height="2.6667"/>
    <rect x="174.6" y="189.3333" width="8" height="2.6667"/>
    <rect x="166.6" y="192" width="2.6667" height="2.6667"/>
    <rect x="174.6" y="192" width="2.6667" height="2.6667"/>
    <rect x="179.9333" y="192" width="2.6667" height="2.6667"/>
    <rect x="166.6" y="194.6667" width="5.3333" height="2.6667"/>
    <rect x="174.6" y="194.6667" width="2.6667" height="2.6667"/>
    <rect x="179.9333" y="194.6667" width="2.6667" height="2.6667"/>
    <rect x="166.6" y="197.3333" width="16" height="2.6667"/>
    <rect x="192.7" y="184" width="16" height="2.6667"/>
    <rect x="192.7" y="186.6667" width="2.6667" height="2.6667"/>
    <rect x="200.7" y="186.6667" width="2.6667" height="2.6667"/>
    <rect x="206.0333" y="186.6667" width="2.6667" height="2.6667"/>
    <rect x="192.7" y="189.3333" width="2.6667" height="2.6667"/>
    <rect x="200.7" y="189.3333" width="2.6667" height="2.6667"/>
    <rect x="206.0333" y="189.3333" width="2.6667" height="2.6667"/>
    <rect x="192.7" y="192" width="2.6667" height="2.6667"/>
    <rect x="198.0333" y="192" width="10.6667" height="2.6667"/>
    <rect x="192.7" y="194.6667" width="8" height="2.6667"/>
    <rect x="203.3667" y="194.6667" width="5.3333" height="2.6667"/>
    <rect x="192.7" y="197.3333" width="16" height="2.6667"/>
    <rect x="218.8" y="184" width="16" height="2.6667"/>
    <rect x="218.8" y="186.6667" width="2.6667" height="2.6667"/>
    <rect x="232.1333" y="186.6667" width="2.6667" height="2.6667"/>
    <rect x="218.8" y="189.3333" width="2.6667" height="2.6667"/>
    <rect x="229.4667" y="189.3333" width="5.3333" height="2.6667"/>
    <rect x="218.8" y="192" width="5.3333" height="2.6667"/>
    <rect x="226.8" y="192" width="8" height="2.6667"/>
    <rect x="218.8" y="194.6667" width="5.3333" height="2.6667"/>
    <rect x="232.1333" y="194.6667" width="2.6667" height="2.6667"/>
    <rect x="218.8" y="197.3333" width="16" height="2.6667"/>
    <rect x="244.9" y="184" width="16" height="2.6667"/>
    <rect x="244.9" y="186.6667" width="2.6667" height="2.6667"/>
    <rect x="250.2333" y="186.6667" width="5.3333" height="2.6667"/>
    <rect x="258.2333" y="186.6667" width="2.6667" height="2.6667"/>
    <rect x="244.9" y="189.3333" width="5.3333" height="2.6667"/>
    <rect x="252.9" y="189.3333" width="8" height="2.6667"/>
    <rect x="244.9" y="192" width="5.3333" height="2.6667"/>
    <rect x="258.2333" y="192" width="2.6667" height="2.6667"/>
    <rect x="244.9" y="194.6667" width="10.6667" height="2.6667"/>
    <rect x="258.2333" y="194.6667" width="2.6667" height="2.6667"/>
    <rect x="244.9" y="197.3333" width="16" height="2.6667"/>
    <rect x="271" y="184" width="16" height="2.6667"/>
    <rect x="271" y="186.6667" width="2.6667" height="2.6667"/>
    <rect x="276.3333" y="186.6667" width="2.6667" height="2.6667"/>
    <rect x="281.6667" y="186.6667" width="5.3333" height="2.6667"/>
    <rect x="271" y="189.3333" width="2.6667" height="2.6667"/>
    <rect x="279" y="189.3333" width="8" height="2.6667"/>
    <rect x="271" y="192" width="2.6667" height="2.6667"/>
    <rect x="281.6667" y="192" width="5.3333" height="2.6667"/>
    <rect x="271" y="194.6667" width="5.3333" height="2.6667"/>
    <rect x="279" y="194.6667" width="8" height="2.6667"/>
    <rect x="271" y="197.3333" width="16" height="2.6667"/>
    <rect x="10" y="39" width="16" height="2.6667"/>
    <rect x="10" y="41.6667" width="2.6667" height="2.6667"/>
    <rect x="15.3333" y="41.6667" width="2.6667" height="2.6667"/>
    <rect x="20.6667" y="41.6667" width="5.3333" height="2.6667"/>
    <rect x="10" y="44.3333" width="5.3333" height="2.6667"/>
    <rect x="18" y="44.3333" width="2.6667" height="2.6667"/>
    <rect x="23.3333" y="44.3333" width="2.6667" height="2.6667"/>
    <rect x="10" y="47" width="5.3333" height="2.6667"/>
    <rect x="18" y="47" width="2.6667" height="2.6667"/>
    <rect x="23.3333" y="47" width="2.6667" height="2.6667"/>
    <rect x="10" y="49.6667" width="5.3333" height="2.6667"/>
    <rect x="18" y="49.6667" width="8" height="2.6667"/>
    <rect x="10" y="52.3333" width="16" height="2.6667"/>
    <rect x="10" y="68" width="16" height="2.6667"/>
    <rect x="10" y="70.6667" width="8" height="2.6667"/>
    <rect x="20.6667" y="70.6667" width="5.3333" height="2.6667"/>
    <rect x="10" y="73.3333" width="10.6667" height="2.6667"/>
    <rect x="23.3333" y="73.3333" width="2.6667" height="2.6667"/>
    <rect x="10" y="76" width="8" height="2.6667"/>
    <rect x="20.6667" y="76" width="5.3333" height="2.6667"/>
    <rect x="10" y="78.6667" width="8" height="2.6667"/>
    <rect x="23.3333" y="78.6667" width="2.6667" height="2.6667"/>
    <rect x="10" y="81.3333" width="16" height="2.6667"/>
    <rect x="10" y="97" width="16" height="2.6667"/>
    <rect x="10" y="99.6667" width="8" height="2.6667"/>
    <rect x="23.3333" y="99.6667" width="2.6667" height="2.6667"/>
    <rect x="10" y="102.3333" width="5.3333" height="2.6667"/>
    <rect x="18" y="102.3333" width="8" height="2.6667"/>
    <rect x="10" y="105" width="5.3333" height="2.6667"/>
    <rect x="20.6667" y="105" width="5.3333" height="2.6667"/>
    <rect x="10" y="107.6667" width="2.6667" height="2.6667"/>
    <rect x="23.3333" y="107.6667" width="2.6667" height="2.6667"/>
    <rect x="10" y="110.3333" width="16" height="2.6667"/>
    <rect x="10" y="126" width="16" height="2.6667"/>
    <rect x="10" y="128.6667" width="5.3333" height="2.6667"/>
    <rect x="18" y="128.6667" width="8" height="2.6667"/>
    <rect x="10" y="131.3333" width="5.3333" height="2.6667"/>
    <rect x="18" y="131.3333" width="8" height="2.6667"/>
    <rect x="10" y="134" width="10.6667" height="2.6667"/>
    <rect x="23.3333" y="134" width="2.6667" height="2.6667"/>
    <rect x="10" y="136.6667" width="5.3333" height="2.6667"/>
    <rect x="18" y="136.6667" width="2.6667" height="2.6667"/>
    <rect x="23.3333" y="136.6667" width="2.6667" height="2.6667"/>
    <rect x="10" y="139.3333" width="16" height="2.6667"/>
    <rect x="10" y="155" width="16" height="2.6667"/>
    <rect x="10" y="157.6667" width="5.3333" height="2.6667"/>
    <rect x="18" y="157.6667" width="2.6667" height="2.6667"/>
    <rect x="23.3333" y="157.6667" width="2.6667" height="2.6667"/>
    <rect x="10" y="160.3333" width="5.3333" height="2.6667"/>
    <rect x="23.3333" y="160.3333" width="2.6667" height="2.6667"/>
    <rect x="10" y="163" width="2.6667" height="2.6667"/>
    <rect x="15.3333" y="163" width="2.6667" height="2.6667"/>
    <rect x="23.3333" y="163" width="2.6667" height="2.6667"/>
    <rect x="10" y="165.6667" width="8" height="2.6667"/>
    <rect x="20.6667" y="165.6667" width="5.3333" height="2.6667"/>
    <rect x="10" y="168.3333" width="16" height="2.6667"/>
  </g>
  <path d="M 24 32 L 32 32 L 32 24 M 273 32 L 265 32 L 265 24 M 273 178 L 265 178 L 265 186 M 24 178 L 32 178 L 32 186" fill="none" stroke="#bbbbbb" stroke-width="0.25"/>
  <g fill="none" stroke="#cccccc" stroke-width="0.3">
    <circle cx="148.5" cy="105" r="68"/>
    <path d="M 136.5 105 L 160.5 105 M 148.5 93 L 148.5 117"/>
    <path d="M 148.5 33 L 148.5 41 M 148.5 169 L 148.5 177 M 76.5 105 L 84.5 105 M 212.5 105 L 220.5 105"/>
  </g>
  <text x="148.5" y="206.5" font-family="sans-serif" font-size="3.2" fill="#999999" text-anchor="middle">Gridfinity_AI base.svg  -  imprima em A4 a 100% (sem "ajustar a pagina")  -  objeto no centro branco</text>
</svg>
