<?xml version="1.0" encoding="UTF-8" standalone="no"?>
<!-- GERADO por photo_to_outline.py — contorno de multi_tester_up (mm), 12 nós -->
<svg xmlns="http://www.w3.org/2000/svg" version="1.1"
     width="72.5489mm" height="93.7216mm" viewBox="0 0 72.5489 93.7216">
  <path d="M 6.6267,0 C 4.9528,-0.0029 3.1947,0.7002 1.9432,1.8119 C 0.8746,2.7612 0.1874,4.2934 0.1842,5.7228 C 0.1228,33.147 0.0614,60.5712 0,87.9954 C -0.0031,89.3669 0.5895,90.8254 1.5456,91.8088 C 2.5804,92.8731 4.0827,93.7218 5.5671,93.7216 C 26.0097,93.7184 46.4523,93.7152 66.8948,93.712 C 68.3468,93.7118 69.7363,92.7499 70.778,91.7384 C 71.6643,90.8778 72.3703,89.6284 72.3729,88.393 C 72.4316,60.7958 72.4903,33.1986 72.5489,5.6013 C 72.552,4.1659 71.6179,2.7164 70.5033,1.8119 C 69.2016,0.7555 67.4497,0.1054 65.7732,0.1025 C 46.0577,0.0684 26.3422,0.0342 6.6267,0 Z"
        style="fill:#ff00ff;fill-opacity:0.25;stroke:#ff00ff;stroke-width:0.2646;vector-effect:non-scaling-stroke"/>
</svg>
