<?xml version="1.0" encoding="UTF-8" standalone="no"?>
<!-- GERADO por photo_to_outline.py — contorno de pi_up (mm), 189 nós -->
<svg xmlns="http://www.w3.org/2000/svg" version="1.1"
     width="89.9885mm" height="58.6464mm" viewBox="0 0 89.9885 58.6464">
  <path d="M 33.0734,0.143 C 32.575,0.1758 31.95,0.0453 31.5121,0.3578 C 31.0495,0.6879 31.1146,1.3166 30.6606,1.6717 C 30.1641,2.0602 29.438,2.3094 28.8415,2.4891 C 28.331,2.6428 27.8055,2.7495 27.2753,2.8043 C 26.7472,2.859 26.2118,2.9171 25.6815,2.9436 C 25.1501,2.9702 24.6134,2.9589 24.0818,2.9432 C 23.4128,2.9235 23.1512,2.9373 22.4825,2.9509 C 21.9494,2.9617 21.4156,2.9544 20.8825,2.9544 C 20.4825,2.9544 20.0825,2.9544 19.6825,2.9544 C 19.2825,2.9544 18.8825,2.9544 18.4825,2.9544 C 18.0825,2.9544 17.6825,2.9544 17.2825,2.9544 C 16.8825,2.9544 16.4825,2.9544 16.0825,2.9544 C 15.6825,2.9544 15.2825,2.9544 14.8825,2.9544 C 14.3492,2.9544 13.8157,2.9501 13.2825,2.9545 C 12.6119,2.96 12.3548,3.0193 11.6871,3.0619 C 11.1555,3.0958 10.6198,3.0794 10.0874,3.0794 C 9.6874,3.0794 9.2874,3.0794 8.8874,3.0794 C 8.4874,3.0794 8.0874,3.0794 7.6874,3.0794 C 7.2874,3.0794 6.8874,3.0794 6.4874,3.0794 C 5.9792,3.0794 5.3855,3.0148 4.8985,3.1955 C 4.3926,3.3833 4.105,3.8961 3.669,4.1945 C 3.235,4.4916 2.7752,4.796 2.2843,4.9892 C 1.916,5.1341 1.0259,5.1524 0.7837,5.4854 C 0.7075,5.5901 0.6547,5.7514 0.7125,5.8674 C 0.8774,6.1981 2.7786,6.0001 2.3645,6.5908 C 2.1719,6.8655 1.7427,7.7722 1.3506,7.7929 C 0.8921,7.8172 0.9353,7.0474 0.5952,6.9286 C 0.3047,6.8272 0.4758,6.8456 0.2724,7.0765 C -0.04,7.4312 0.1935,8.2306 0.2347,8.6425 C 0.2879,9.1726 0.4813,9.6868 0.401,10.2244 C 0.2692,11.1071 -0.0188,10.8573 0.132,11.7794 C 0.2286,12.3708 0.2354,12.7596 0.1514,13.355 C -0.0017,14.4404 0.2413,13.8651 0.2222,14.9466 C 0.2127,15.4829 0.0386,15.9944 0.012,16.5299 C -0.0146,17.0648 0.0048,17.595 0.0524,18.1276 C 0.0996,18.6565 0.0142,19.2024 0.0844,19.7252 C 0.21,20.66 0.2601,20.387 1.1206,20.7731 C 1.6471,21.0093 1.8609,21.4892 2.0795,21.9919 C 2.2931,22.4829 2.4414,22.9948 2.5193,23.525 C 2.5987,24.065 2.5595,24.5801 2.459,25.1143 C 2.3571,25.656 2.2162,26.1394 1.8794,26.5849 C 1.2088,27.472 1.2132,26.7764 1.1375,27.9618 C 1.0929,28.6594 1.3262,29.2331 1.1519,29.9399 C 0.9431,30.7864 0.9206,30.6461 0.9923,31.5221 C 1.047,32.1903 1.2115,32.4283 1.2208,33.1027 C 1.2282,33.6431 1.1734,34.1587 1.2405,34.6992 C 1.3226,35.3614 1.3216,36.0272 1.3169,36.6944 C 1.3135,37.1857 1.01,37.403 1.0474,37.8929 C 1.067,38.1486 1.9394,38.1342 2.0912,38.6198 C 2.3329,39.3929 2.582,40.1346 2.5928,40.9547 C 2.5999,41.488 2.5031,42.0197 2.3714,42.5346 C 2.2395,43.0498 2.0929,43.5834 1.6573,43.9281 C 0.8077,44.6004 0.5129,43.9872 0.8189,45.0957 C 1.0245,45.8406 1.1144,46.2639 0.965,47.0221 C 0.8598,47.5565 0.6054,48.0207 0.4847,48.542 C 0.3728,49.0253 0.3436,49.6342 0.3166,50.1309 C 0.2856,50.7 0.5272,51.1443 0.6595,51.6794 C 0.7847,52.1854 0.8216,52.7467 0.8593,53.2658 C 0.904,53.8826 0.4537,54.1964 0.4371,54.7532 C 0.4296,55.0048 0.2863,56.1002 0.3445,56.2744 C 0.497,56.7309 1.4123,56.8055 1.7845,56.8413 C 2.3396,56.8948 2.8188,56.975 3.3052,57.2708 C 3.7717,57.5545 4.0438,58.0341 4.5027,58.32 C 4.9734,58.6132 5.501,58.6714 6.0412,58.6384 C 6.5763,58.6057 7.1025,58.5794 7.6391,58.5794 C 8.0391,58.5794 8.4391,58.5794 8.8391,58.5794 C 9.2391,58.5794 9.6391,58.5794 10.0391,58.5794 C 10.4391,58.5794 10.8391,58.5794 11.2391,58.5794 C 11.6391,58.5794 12.0391,58.5794 12.4391,58.5794 C 12.8391,58.5794 13.2391,58.5794 13.6391,58.5794 C 14.0391,58.5794 14.4391,58.5794 14.8391,58.5794 C 15.2391,58.5794 15.6391,58.5794 16.0391,58.5794 C 16.4391,58.5794 16.8391,58.5794 17.2391,58.5794 C 17.6391,58.5794 18.0391,58.5794 18.4391,58.5794 C 18.9719,58.5794 19.5067,58.5937 20.0385,58.5538 C 20.5732,58.5137 21.0969,58.4568 21.6342,58.4544 C 22.1675,58.452 22.7009,58.4544 23.2342,58.4544 C 23.6342,58.4544 24.0342,58.4544 24.4342,58.4544 C 24.9675,58.4544 25.501,58.4502 26.0342,58.4576 C 26.5686,58.4649 27.0996,58.4828 27.633,58.4361 C 28.1675,58.3894 28.6906,58.332 29.2282,58.3294 C 29.7607,58.3269 30.296,58.3159 30.8274,58.3577 C 31.496,58.4102 31.7513,58.4521 32.4232,58.4544 C 32.9554,58.4562 33.4914,58.4703 34.0231,58.4453 C 34.5568,58.4202 35.0832,58.3391 35.6183,58.3303 C 36.1513,58.3216 36.6852,58.3294 37.2183,58.3294 C 37.7517,58.3294 38.285,58.3278 38.8179,58.3524 C 39.3508,58.377 39.8815,58.4357 40.4149,58.4486 C 41.0877,58.4648 41.342,58.41 42.0107,58.3576 C 42.9326,58.2853 43.8881,58.2994 44.8073,58.3948 C 45.3058,58.4466 45.5022,58.4675 46.0026,58.4973 C 46.5363,58.5291 47.0657,58.5759 47.6002,58.5348 C 48.1397,58.4932 48.6567,58.494 49.1971,58.4952 C 49.7303,58.4964 50.2629,58.4715 50.7965,58.473 C 51.3298,58.4744 51.8629,58.4545 52.3963,58.4544 C 52.7963,58.4543 53.1963,58.4544 53.5963,58.4544 C 53.9963,58.4544 54.3963,58.4544 54.7963,58.4544 C 55.1963,58.4544 55.5963,58.4544 55.9963,58.4544 C 56.3963,58.4544 56.7963,58.4544 57.1963,58.4544 C 57.5963,58.4544 57.9963,58.4544 58.3963,58.4544 C 58.7963,58.4544 59.1963,58.4544 59.5963,58.4544 C 59.9963,58.4544 60.3963,58.4549 60.7963,58.4544 C 61.6544,58.4534 61.5386,58.4444 62.3937,58.3798 C 62.9258,58.3396 63.459,58.3314 63.9924,58.3294 C 64.5257,58.3275 65.0593,58.3253 65.5924,58.3338 C 66.1256,58.3422 66.6591,58.3465 67.1921,58.3622 C 68.0492,58.3874 67.9347,58.3645 68.7911,58.3389 C 69.3242,58.323 69.8578,58.3294 70.391,58.3294 C 70.791,58.3294 71.191,58.3294 71.591,58.3294 C 71.991,58.3294 72.391,58.3294 72.791,58.3294 C 73.3243,58.3294 73.8577,58.3306 74.391,58.3294 C 74.9254,58.3282 75.4566,58.3143 75.9894,58.2716 C 76.5295,58.2283 77.0449,58.2074 77.5855,58.2581 C 78.1202,58.3082 78.6456,58.3293 79.1826,58.3294 C 79.5826,58.3295 79.9826,58.3294 80.3826,58.3294 C 80.7826,58.3294 81.1826,58.3294 81.5826,58.3294 C 81.9826,58.3294 82.3826,58.329 82.7826,58.3294 C 83.315,58.3299 83.8504,58.3792 84.3819,58.3687 C 84.934,58.3578 85.4135,58.1713 85.9087,57.9433 C 86.3884,57.7224 86.8937,57.4871 87.19,57.026 C 87.4648,56.5983 87.61,56.0095 87.6822,55.512 C 87.7584,54.9861 87.7281,54.4436 87.7281,53.914 C 87.7281,53.3783 87.7494,52.8502 87.7774,52.3155 C 87.8055,51.7798 87.7368,51.2526 87.7294,50.7177 C 87.722,50.1844 87.7911,49.6514 87.7651,49.1186 C 87.7391,48.5854 87.6283,48.0618 87.6087,47.5271 C 87.5892,46.9973 87.5871,46.4567 87.6183,45.9275 C 87.6504,45.3839 87.6907,44.8769 87.6459,44.3319 C 87.6022,43.7985 87.6031,43.2682 87.6031,42.7334 C 87.6031,42.2008 87.5889,41.6657 87.6085,41.1334 C 87.6281,40.6019 87.6933,40.0688 87.7412,39.5392 C 87.8129,38.7473 87.9874,37.9501 88.2592,37.2022 C 88.4562,36.6602 88.6673,36.2536 89.1536,35.9253 C 89.9516,35.3865 89.891,35.6192 89.9665,34.6592 C 90.0081,34.1306 89.9781,33.5893 89.9781,33.0594 C 89.9781,32.6594 89.9781,32.2594 89.9781,31.8594 C 89.9781,30.7885 89.9966,31.3296 89.934,30.2608 C 89.9104,29.8573 89.9443,29.4646 89.9441,29.0619 C 89.9437,28.5285 89.8591,27.9995 89.8535,27.4654 C 89.8479,26.9431 89.9101,26.3838 89.8241,25.8666 C 89.6991,25.1144 89.4073,25.1828 88.8262,24.7134 C 88.4036,24.372 88.2195,23.8391 88.0436,23.3442 C 87.7726,22.5816 87.6542,21.8 87.5666,20.9991 C 87.5082,20.4654 87.4788,19.9398 87.4781,19.4029 C 87.4774,18.8696 87.4675,18.3359 87.5116,17.8039 C 87.556,17.269 87.6018,16.7454 87.6031,16.2078 C 87.6044,15.6745 87.6031,15.1411 87.6031,14.6078 C 87.6031,14.0746 87.6101,13.5409 87.6023,13.0078 C 87.5944,12.4737 87.5056,11.9452 87.5041,11.4117 C 87.5026,10.8754 87.5131,10.3502 87.4894,9.8134 C 87.4659,9.2803 87.494,8.7466 87.4569,8.214 C 87.4198,7.6816 87.3806,7.1512 87.3485,6.6186 C 87.3163,6.0843 87.1513,5.574 87.0921,5.0423 C 87.0332,4.5133 86.9729,3.9738 86.6704,3.5165 C 86.2993,2.9554 86.0153,2.8049 85.3682,2.6542 C 84.8635,2.5367 84.2928,2.5369 83.7763,2.508 C 83.2412,2.4779 82.7136,2.5629 82.1795,2.5772 C 81.6488,2.5913 81.1118,2.6551 80.582,2.6525 C 80.0656,2.6501 79.4882,2.4155 79.0367,2.7809 C 78.593,3.1399 78.4206,3.5725 77.8751,3.8469 C 77.3827,4.0946 76.8885,4.2206 76.3349,4.188 C 75.4823,4.1377 75.4296,3.2784 74.7736,2.7317 C 74.4155,2.4332 73.6237,2.7723 73.2112,2.7778 C 72.6794,2.7848 72.145,2.6986 71.6178,2.6413 C 70.7657,2.5486 70.8765,2.5795 70.0203,2.5794 C 69.6203,2.5793 69.2203,2.5794 68.8203,2.5794 C 68.4203,2.5794 68.0203,2.5794 67.6203,2.5794 C 67.0879,2.5794 66.5522,2.5959 66.0207,2.5604 C 65.49,2.5249 64.9582,2.4426 64.4388,2.329 C 63.3769,2.0966 62.968,1.5435 62.0655,1.005 C 61.5332,0.6874 61.0989,0.7622 60.4992,0.7427 C 59.9662,0.7254 59.433,0.7841 58.9012,0.809 C 58.3693,0.8339 57.8339,0.8394 57.3015,0.8271 C 56.6321,0.8117 56.3745,0.7416 55.7039,0.7805 C 55.1692,0.8116 54.6413,0.8294 54.1054,0.8294 C 53.7054,0.8294 53.3054,0.8294 52.9054,0.8294 C 52.5054,0.8294 52.1054,0.8294 51.7054,0.8294 C 51.1686,0.8294 50.6428,0.8471 50.1083,0.8985 C 49.6136,0.9461 48.9789,0.8767 48.5701,1.2162 C 48.1002,1.6065 47.9271,1.967 47.3376,2.1688 C 46.7045,2.3855 46.4468,2.4462 45.7864,2.5514 C 44.9793,2.6799 44.208,2.67 43.3953,2.6774 C 42.86,2.6822 42.3312,2.6328 41.7973,2.6308 C 41.255,2.6289 40.744,2.6837 40.2016,2.612 C 39.6741,2.5422 39.1439,2.4544 38.6366,2.2898 C 38.1589,2.1349 37.5903,1.928 37.1908,1.6149 C 36.7425,1.2634 36.7657,0.6424 36.3125,0.3127 C 35.9157,0.0241 35.2302,0.0117 34.7607,0.0015 C 34.0475,-0.014 33.7813,0.0963 33.0734,0.143 Z"
        style="fill:#ff00ff;fill-opacity:0.25;stroke:#ff00ff;stroke-width:0.2646;vector-effect:non-scaling-stroke"/>
</svg>
