<?xml version="1.0" encoding="UTF-8" standalone="no"?>
<!-- GERADO por photo_to_outline.py — contorno de pi_up (mm), 14 nós -->
<svg xmlns="http://www.w3.org/2000/svg" version="1.1"
     width="84.3315mm" height="55.9886mm" viewBox="0 0 84.3315 55.9886">
  <path d="M 42.1657,55.8477 C 55.357,55.8477 68.5521,56.1657 81.7395,55.8477 C 82.4332,55.8309 83.0857,55.35 83.566,54.8493 C 83.9899,54.4073 84.3085,53.7813 84.3088,53.1689 C 84.3164,36.5788 84.3239,19.9888 84.3315,3.3988 C 84.3319,2.5375 84.2905,1.5459 83.7401,0.8834 C 83.2288,0.2679 82.3082,0 81.508,0 C 68.3939,0 55.2798,0 42.1657,0 C 29.0517,0 15.9376,0 2.8235,0 C 2.0233,0 1.1027,0.2679 0.5914,0.8834 C 0.041,1.5459 -0.0004,2.5375 0,3.3988 C 0.0076,19.9888 0.0151,36.5788 0.0227,53.1689 C 0.023,53.7813 0.3416,54.4073 0.7655,54.8493 C 1.2458,55.35 1.8983,55.8309 2.592,55.8477 C 15.7794,56.1657 28.9745,55.8477 42.1657,55.8477 Z"
        style="fill:#ff00ff;fill-opacity:0.25;stroke:#ff00ff;stroke-width:0.2646;vector-effect:non-scaling-stroke"/>
</svg>
