<?xml version="1.0" encoding="UTF-8" standalone="no"?>
<!-- GERADO por photo_to_outline.py — contorno de thermpro (mm), 28 nós -->
<svg xmlns="http://www.w3.org/2000/svg" version="1.1"
     width="68.6873mm" height="70.8097mm" viewBox="0 0 68.6873 70.8097">
  <path d="M 67.9324,51.8391 C 68.288,50.2704 68.1338,48.6285 68.2431,47.0237 C 68.3699,45.1635 68.8356,43.2985 68.6408,41.4442 C 68.56,40.6755 67.5064,40.2266 67.4478,39.4559 C 67.0685,34.4664 67.4946,29.4463 67.3484,24.4445 C 67.2191,20.021 67.5346,15.5185 66.6215,11.1884 C 66.1582,8.9914 64.9768,6.8299 63.3153,5.3197 C 61.3039,3.4912 58.704,2.2342 56.063,1.5906 C 51.6369,0.5121 47.0067,0.5713 42.4632,0.2386 C 39.7628,0.0408 37.0513,0 34.3436,0 C 31.6359,0 28.9245,0.0408 26.224,0.2386 C 21.6806,0.5713 17.0504,0.5121 12.6243,1.5906 C 9.9833,2.2342 7.3834,3.4912 5.372,5.3197 C 3.7105,6.8299 2.5291,8.9914 2.0658,11.1884 C 1.1527,15.5185 1.4682,20.021 1.3389,24.4445 C 1.1927,29.4463 1.6188,34.4664 1.2395,39.4559 C 1.1809,40.2266 0.1273,40.6755 0.0465,41.4442 C -0.1483,43.2985 0.3174,45.1635 0.4442,47.0237 C 0.5535,48.6285 0.3993,50.2704 0.7548,51.8391 C 1.7858,55.1025 2.8366,58.3683 3.8677,61.6321 C 4.8523,64.7484 10.0727,68.9766 13.2661,69.4002 C 16.4966,69.8288 17.9748,70.0249 21.1814,70.4502 C 22.2271,70.589 24.2251,70.8246 25.197,70.8097 C 28.1866,70.7636 31.2632,70.6687 34.3436,70.6687 C 37.4241,70.6687 40.5007,70.7636 43.4903,70.8097 C 44.4622,70.8246 46.4602,70.589 47.5059,70.4502 C 50.7125,70.0249 52.1907,69.8288 55.4211,69.4002 C 58.6146,68.9766 63.835,64.7484 64.8196,61.6321 C 65.8507,58.3683 66.9015,55.1025 67.9324,51.8391 Z"
        style="fill:#ff00ff;fill-opacity:0.25;stroke:#ff00ff;stroke-width:0.2646;vector-effect:non-scaling-stroke"/>
</svg>
