<?xml version="1.0" encoding="UTF-8" standalone="no"?>
<!-- GERADO por photo_to_outline.py — contorno de thermpro (mm), 30 nós -->
<svg xmlns="http://www.w3.org/2000/svg" version="1.1"
     width="68.2451mm" height="70.8181mm" viewBox="0 0 68.2451 70.8181">
  <path d="M 34.1226,70.6687 C 37.1718,70.6687 40.2204,70.8603 43.2692,70.8097 C 44.6129,70.7874 45.9502,70.6079 47.2848,70.4502 C 49.928,70.138 52.8284,70.6081 55.2001,69.4002 C 58.8218,67.5556 62.2206,64.9283 64.5985,61.6321 C 66.6446,58.7958 67.2451,55.1181 67.9709,51.6969 C 68.3626,49.8504 67.8716,47.9216 67.9072,46.0343 C 67.9353,44.5476 68.443,43.0408 68.1617,41.5806 C 67.9759,40.6159 66.5491,40.0815 66.5711,39.0993 C 66.6135,37.2117 66.656,35.3242 66.6984,33.4367 C 66.7408,30.4675 66.7832,27.4984 66.8256,24.5292 C 66.8891,20.0872 66.8955,15.569 65.9349,11.2317 C 65.4622,9.0973 64.2072,7.0791 62.6264,5.5691 C 60.7307,3.7583 58.3783,2.2539 55.8419,1.5906 C 51.4345,0.4381 46.7856,0.5713 42.2422,0.2386 C 39.5417,0.0408 36.8303,0 34.1226,0 C 31.4149,0 28.7034,0.0408 26.003,0.2386 C 21.4595,0.5713 16.8106,0.4381 12.4032,1.5906 C 9.8668,2.2539 7.5145,3.7583 5.6187,5.5691 C 4.0379,7.0791 2.783,9.0973 2.3102,11.2317 C 1.3496,15.569 1.356,20.0872 1.4195,24.5292 C 1.4619,27.4984 1.5043,30.4675 1.5467,33.4367 C 1.5892,35.3242 1.6316,37.2117 1.674,39.0993 C 1.6961,40.0815 0.2692,40.6159 0.0834,41.5806 C -0.1979,43.0408 0.3098,44.5476 0.3379,46.0343 C 0.3735,47.9216 -0.1175,49.8504 0.2743,51.6969 C 1,55.1181 1.6006,58.7958 3.6466,61.6321 C 6.0245,64.9283 9.4233,67.5556 13.0451,69.4002 C 15.4167,70.6081 18.3171,70.138 20.9603,70.4502 C 22.2949,70.6079 23.6322,70.7874 24.9759,70.8097 C 28.0248,70.8603 31.0733,70.6687 34.1226,70.6687 Z"
        style="fill:#ff00ff;fill-opacity:0.25;stroke:#ff00ff;stroke-width:0.2646;vector-effect:non-scaling-stroke"/>
</svg>
