<?xml version="1.0" encoding="UTF-8" standalone="no"?>
<!-- GERADO por photo_to_outline.py — contorno de thermpro (mm), 38 nós -->
<svg xmlns="http://www.w3.org/2000/svg" version="1.1"
     width="68.0315mm" height="71.513mm" viewBox="0 0 68.0315 71.513">
  <path d="M 53.1593,70.1222 C 56.4665,69.7732 59.7112,68.2229 62.3105,66.1485 C 64.0424,64.7663 64.7352,62.3899 65.4683,60.2989 C 66.1727,58.2901 66.2075,56.1062 66.5671,54.0081 C 66.6336,53.6205 66.6064,53.2095 66.7466,52.8421 C 66.8416,52.5931 67.106,52.445 67.2493,52.2203 C 67.4656,51.8812 67.7904,51.5588 67.821,51.1577 C 68.0438,48.2458 68.0628,45.3181 68.0008,42.3983 C 67.9922,41.9948 67.7742,41.6209 67.6105,41.2519 C 67.5024,41.0083 67.2162,40.8368 67.1904,40.5715 C 67.1397,40.0494 67.4071,39.5352 67.3927,39.0108 C 67.1858,31.4441 66.6742,23.8868 66.5272,16.3187 C 66.5184,15.8663 66.9721,15.4715 66.9266,15.0213 C 66.74,13.1737 66.6294,11.2393 65.8441,9.5565 C 64.9551,7.6517 63.7522,5.7411 62.0321,4.5329 C 59.724,2.9117 56.9868,1.6918 54.185,1.3669 C 51.3269,1.0356 48.4687,0.7042 45.6106,0.3728 C 41.3855,0.2485 37.1605,0.1243 32.9354,0 C 28.5446,0.2071 24.1539,0.4142 19.7631,0.6213 C 16.905,1.2427 14.0469,1.864 11.1887,2.4853 C 9.1625,2.9258 7.4326,4.3157 5.802,5.5967 C 4.3966,6.7007 2.9846,7.957 2.1874,9.5565 C 1.359,11.2185 1.3004,13.1746 1.1048,15.0213 C 1.0575,15.4682 1.4876,15.8696 1.4711,16.3187 C 1.1936,23.8827 0.9162,31.4468 0.6387,39.0108 C 0.6195,39.5351 0.8918,40.0494 0.8411,40.5715 C 0.8153,40.8368 0.5291,41.0083 0.421,41.2519 C 0.2573,41.6209 0.0393,41.9948 0.0307,42.3983 C -0.0314,45.3181 -0.0124,48.2458 0.2104,51.1577 C 0.2411,51.5588 0.5658,51.8812 0.7822,52.2203 C 0.9255,52.445 1.1899,52.5931 1.2849,52.8421 C 1.4251,53.2095 1.3979,53.6205 1.4643,54.0081 C 1.824,56.1062 1.6854,58.3596 2.5631,60.2989 C 3.6979,62.8063 5.2035,65.3065 7.3548,67.0233 C 9.4732,68.7139 12.1914,69.7226 14.8721,70.1222 C 17.2713,70.4797 19.6704,70.8373 22.0695,71.1949 C 26.2581,71.3009 30.4468,71.4069 34.6354,71.513 C 38.4263,71.3009 42.2173,71.0888 46.0083,70.8767 C 48.392,70.6252 50.7756,70.3737 53.1593,70.1222 Z"
        style="fill:#ff00ff;fill-opacity:0.25;stroke:#ff00ff;stroke-width:0.2646;vector-effect:non-scaling-stroke"/>
</svg>
