<?xml version="1.0" encoding="UTF-8" standalone="no"?>
<!-- GERADO por photo_to_outline.py — contorno de thermpro (mm), 201 nós -->
<svg xmlns="http://www.w3.org/2000/svg" version="1.1"
     width="67.9665mm" height="71.0134mm" viewBox="0 0 67.9665 71.0134">
  <path d="M 27.6411,0.1331 C 27.2422,0.1417 26.8397,0.1138 26.4412,0.1388 C 26.0387,0.164 25.6537,0.25 25.2489,0.258 C 24.8477,0.266 24.4504,0.2439 24.0504,0.2908 C 23.6446,0.3384 23.267,0.3827 22.8567,0.3833 C 22.4582,0.3838 22.0548,0.367 21.6567,0.3858 C 21.2588,0.4046 20.8605,0.4777 20.4667,0.5342 C 20.0625,0.5923 19.6824,0.6319 19.2733,0.6333 C 18.8661,0.6347 18.4814,0.6453 18.0775,0.6987 C 17.6803,0.7513 17.2837,0.7853 16.8864,0.8364 C 16.4876,0.8876 16.0907,0.881 15.6918,0.9322 C 15.2948,0.9831 14.8965,1.0089 14.5005,1.0673 C 14.1046,1.1257 13.7122,1.2034 13.3191,1.2774 C 12.9279,1.351 12.5191,1.3562 12.1325,1.4479 C 11.7433,1.5402 11.3875,1.7423 11.0196,1.8923 C 10.6458,2.0446 10.2543,2.1162 9.879,2.2595 C 9.5071,2.4016 9.1597,2.6138 8.7963,2.7763 C 8.4247,2.9425 8.0791,3.1112 7.7295,3.3213 C 7.3891,3.5259 7.0297,3.717 6.7222,3.971 C 6.2204,4.3855 5.647,4.7884 5.1846,5.2437 C 4.9039,5.5201 4.6522,5.8499 4.4202,6.1675 C 4.1837,6.4911 3.9755,6.8308 3.7294,7.1481 C 3.4824,7.4668 3.2235,7.7641 3.0359,8.1243 C 2.6679,8.8309 2.8414,8.4774 2.4744,9.1823 C 2.2917,9.5333 2.2028,9.9381 2.0762,10.3113 C 1.914,10.7897 1.8769,10.9775 1.773,11.471 C 1.6701,11.9597 1.5841,12.1479 1.5487,12.6482 C 1.4753,13.684 1.6409,12.8136 1.528,13.8477 C 1.4733,14.3486 1.3496,14.5224 1.2473,15.0128 C 1.031,16.0504 1.1697,15.1533 1.1672,16.2068 C 1.1663,16.617 1.1182,16.9948 1.0719,17.4004 C 1.0264,17.7998 1.0291,18.1958 0.9768,18.595 C 0.9241,18.9979 0.9172,19.3856 0.9172,19.7915 C 0.9172,20.1915 0.9172,20.5915 0.9172,20.9915 C 0.9172,21.3914 0.9203,21.7915 0.9172,22.1915 C 0.9141,22.5998 0.8477,22.9802 0.8096,23.3844 C 0.7722,23.7809 0.7922,24.1863 0.7922,24.5839 C 0.7922,24.9839 0.7922,25.3839 0.7922,25.7839 C 0.7922,26.1839 0.7922,26.5839 0.7922,26.9839 C 0.7922,27.3839 0.7922,27.7839 0.7922,28.1839 C 0.7922,28.586 0.7692,28.9815 0.7552,29.3826 C 0.7412,29.7841 0.809,30.1795 0.7882,30.5809 C 0.7341,31.6268 0.6913,30.7222 0.6675,31.773 C 0.6585,32.1725 0.6672,32.5735 0.6672,32.973 C 0.6672,33.373 0.6672,33.773 0.6672,34.173 C 0.6672,34.577 0.6652,34.9688 0.7173,35.3702 C 0.7345,35.5023 0.7631,35.6331 0.7756,35.7658 C 0.8755,36.8278 0.7259,36.7021 0.7993,37.7651 C 0.8265,38.1598 0.8928,38.5632 0.9416,38.956 C 1.0388,39.739 1.0523,40.1649 0.5973,40.8342 C 0.3044,41.2651 0.2253,41.4085 0.1141,41.921 C 0.0304,42.3068 -0.0111,42.7183 0.0026,43.1129 C 0.0161,43.5032 0.022,43.923 0.0826,44.3092 C 0.1451,44.7077 0.2499,45.0856 0.2965,45.488 C 0.3428,45.8884 0.4095,46.2764 0.4171,46.6803 C 0.4246,47.0794 0.4219,47.4811 0.4172,47.8803 C 0.4125,48.2867 0.3511,48.6705 0.3033,49.0729 C 0.2555,49.4757 0.2107,49.8606 0.2174,50.2662 C 0.2256,50.7592 0.1082,50.9788 0.2839,51.4538 C 0.5575,52.1932 0.467,51.8455 0.9704,52.4311 C 1.4428,52.9807 1.5803,53.5423 1.6494,54.2581 C 1.75,55.301 1.6123,54.4107 1.75,55.4519 C 1.8028,55.8515 1.8409,56.2427 1.9183,56.6389 C 1.9953,57.0326 2.0455,57.4272 2.1069,57.8235 C 2.2318,58.6308 2.1246,58.2125 2.3707,58.9913 C 2.5229,59.4727 2.5477,59.6639 2.6719,60.1518 C 2.7962,60.6402 2.9102,60.8055 3.0906,61.2742 C 3.4748,62.272 3.1094,61.4118 3.6179,62.3486 C 3.8566,62.7884 3.9099,62.9855 4.184,63.406 C 4.4026,63.7413 4.6665,64.0425 4.8904,64.3748 C 5.1126,64.7047 5.3337,65.0449 5.6177,65.3268 C 5.9826,65.6889 6.4157,66.0632 6.8209,66.3797 C 7.1326,66.6231 7.4737,66.8473 7.7932,67.0814 C 8.1181,67.3195 8.4761,67.4933 8.8147,67.7092 C 9.1514,67.9239 9.4738,68.1639 9.8128,68.3749 C 10.1616,68.5921 10.5311,68.7006 10.9083,68.8548 C 11.2834,69.008 11.6446,69.1503 12.0365,69.2582 C 12.4219,69.3644 12.8149,69.4432 13.2041,69.5335 C 14.2213,69.7694 13.3495,69.6075 14.383,69.7539 C 14.7799,69.8102 15.1692,69.8988 15.5649,69.9592 C 15.9627,70.0198 16.361,70.011 16.762,70.0082 C 17.1565,70.0056 17.5681,69.9523 17.9608,70.004 C 18.3604,70.0566 18.724,70.2382 19.1165,70.3203 C 19.4988,70.4002 19.9153,70.4529 20.3039,70.4916 C 20.7011,70.531 21.0992,70.5714 21.4962,70.6122 C 21.8929,70.653 22.2975,70.633 22.6955,70.6333 C 23.1061,70.6336 23.4832,70.6742 23.8893,70.7234 C 24.2878,70.7717 24.6871,70.7583 25.0875,70.7583 C 25.4875,70.7583 25.8875,70.7583 26.2875,70.7583 C 26.6875,70.7583 27.0875,70.7583 27.4875,70.7583 C 27.8858,70.7583 28.2897,70.741 28.6875,70.7611 C 29.0925,70.7816 29.4708,70.8959 29.8705,70.9503 C 30.5051,71.0367 30.429,71.0099 31.0681,71.0083 C 31.7228,71.0066 31.6136,70.9694 32.2613,70.9043 C 32.7997,70.8502 33.3219,70.9302 33.8583,70.9426 C 33.9916,70.9457 34.1249,70.9408 34.258,70.9337 C 34.6589,70.9123 35.0531,70.8655 35.456,70.887 C 35.8582,70.9085 36.2446,70.9976 36.6482,71.0079 C 37.0462,71.0181 37.4507,71.0113 37.8473,70.9748 C 38.3825,70.9255 38.8888,70.7715 39.429,70.7586 C 39.8284,70.7492 40.2294,70.7583 40.629,70.7583 C 41.029,70.7583 41.429,70.7583 41.829,70.7583 C 42.229,70.7583 42.629,70.7583 43.029,70.7583 C 43.4355,70.7583 43.8218,70.7483 44.2251,70.6954 C 44.6285,70.6424 45.0148,70.6333 45.4213,70.6333 C 45.8243,70.6332 46.2182,70.6386 46.6188,70.5874 C 47.0167,70.5367 47.4139,70.5214 47.8118,70.4729 C 48.4363,70.3968 48.3849,70.4358 48.9965,70.286 C 49.3891,70.1899 49.7463,70.0183 50.1551,69.9878 C 50.5489,69.9584 50.9594,70.008 51.3545,70.0083 C 51.8621,70.0087 52.0479,70.0213 52.5493,69.9321 C 52.945,69.8618 53.3347,69.794 53.7324,69.736 C 54.3667,69.6436 54.2833,69.6374 54.9076,69.4955 C 55.9251,69.2642 55.0695,69.4996 56.0729,69.2111 C 56.4636,69.0987 56.8212,68.9487 57.1986,68.8006 C 57.8232,68.5556 57.7129,68.6611 58.2774,68.29 C 58.6107,68.0708 58.9345,67.8315 59.2743,67.6224 C 59.6193,67.41 59.9649,67.2321 60.2899,66.9868 C 60.6864,66.6875 60.8766,66.5972 61.2571,66.2782 C 62.0465,65.6164 61.3856,66.1693 62.1595,65.4885 C 62.6434,65.0629 62.5707,65.107 62.9374,64.5795 C 63.1663,64.2501 63.4006,63.9294 63.6353,63.6045 C 63.8724,63.2765 64.0466,62.9231 64.233,62.5659 C 64.5296,61.9974 64.5472,62.1002 64.7899,61.5046 C 64.9378,61.1414 65.1028,60.7592 65.2222,60.3858 C 65.3438,60.0057 65.4024,59.606 65.5168,59.223 C 65.6331,58.8334 65.745,58.4644 65.8144,58.0627 C 65.8826,57.6682 65.9245,57.2706 65.9952,56.8766 C 66.1093,56.2405 66.1027,56.3336 66.1785,55.6918 C 66.3021,54.6469 66.2318,55.549 66.2947,54.4993 C 66.3179,54.1117 66.367,53.6891 66.4623,53.3121 C 66.6336,52.6341 67.2444,52.2674 67.565,51.6704 C 67.7833,51.2639 67.7302,50.9462 67.7307,50.507 C 67.7313,50.0934 67.7262,49.7265 67.678,49.3135 C 67.632,48.9186 67.5622,48.5195 67.5442,48.122 C 67.5263,47.7241 67.5411,47.3203 67.5422,46.922 C 67.5434,46.5124 67.5883,46.1336 67.6393,45.7285 C 67.6901,45.3248 67.748,44.9445 67.8294,44.5459 C 67.9595,43.9088 67.899,43.9996 67.9363,43.3533 C 67.9739,42.702 67.9935,42.8059 67.8898,42.1583 C 67.8253,41.7555 67.709,41.3846 67.4973,41.0339 C 67.2843,40.6811 67.0074,40.4126 66.9379,39.9874 C 66.8735,39.5942 66.9874,39.1837 67.033,38.7956 C 67.0794,38.4001 67.1486,38.0021 67.1652,37.6039 C 67.1931,36.9383 67.1236,36.269 67.2051,35.6058 C 67.2213,35.4735 67.2524,35.3432 67.2668,35.2107 C 67.31,34.8136 67.2922,34.4102 67.2922,34.0117 C 67.2922,33.6117 67.2922,33.2117 67.2922,32.8117 C 67.2922,32.4134 67.3088,32.0097 67.2889,31.6118 C 67.2689,31.2099 67.1727,30.8227 67.1683,30.4193 C 67.157,29.3678 67.2499,30.2757 67.1908,29.2219 C 67.1683,28.8212 67.1672,28.4241 67.1672,28.0228 C 67.1672,27.6228 67.1672,27.2228 67.1672,26.8228 C 67.1672,26.4228 67.1672,26.0228 67.1672,25.6228 C 67.1672,25.2228 67.1672,24.8228 67.1672,24.4228 C 67.1672,24.0216 67.178,23.6239 67.1282,23.2248 C 67.0776,22.8187 67.0425,22.4412 67.0422,22.0307 C 67.042,21.6307 67.0422,21.2307 67.0422,20.8307 C 67.0422,20.4307 67.0424,20.0307 67.0422,19.6307 C 67.042,18.8099 67.0618,19.2483 66.9588,18.4364 C 66.9082,18.0375 66.9148,17.6408 66.8622,17.2419 C 66.8088,16.8374 66.7931,16.4544 66.7922,16.0464 C 66.7911,15.5335 66.8007,15.3573 66.6764,14.8569 C 66.5779,14.4604 66.4461,14.1008 66.4214,13.6885 C 66.3974,13.2892 66.4408,12.8881 66.3973,12.4893 C 66.3542,12.0937 66.2367,11.7033 66.1528,11.3152 C 66.0156,10.68 66.0429,10.775 65.832,10.1607 C 65.6656,9.6761 65.6533,9.496 65.3984,9.0477 C 65.1507,8.6121 65.0944,8.4184 64.8472,7.9839 C 64.6482,7.634 64.3735,7.3411 64.1305,7.0232 C 63.8869,6.7046 63.686,6.3596 63.4433,6.0403 C 63.2036,5.725 62.9523,5.4019 62.6576,5.1356 C 62.1778,4.702 61.6279,4.2618 61.1136,3.8693 C 60.4849,3.3896 60.7761,3.6346 60.0942,3.2372 C 59.1832,2.7063 59.9718,3.1526 59.0176,2.7104 C 57.7881,2.1406 59.2197,2.6403 57.9307,2.2042 C 57.5483,2.0749 57.1669,1.9882 56.7916,1.8322 C 56.3274,1.6393 56.1682,1.5119 55.6684,1.42 C 55.2754,1.3477 54.8764,1.3226 54.4824,1.2455 C 53.7012,1.0927 54.0898,1.1429 53.2998,1.0429 C 52.9054,0.993 52.5036,0.9501 52.1085,0.9074 C 51.7088,0.8642 51.3139,0.8618 50.9143,0.8095 C 50.5173,0.7575 50.1201,0.7259 49.723,0.6757 C 49.322,0.625 48.928,0.6387 48.5252,0.6332 C 47.4705,0.6188 48.3759,0.6568 47.3334,0.5126 C 46.9351,0.4575 46.5448,0.3923 46.142,0.3834 C 45.7423,0.3746 45.3418,0.3872 44.942,0.3832 C 44.5346,0.3792 44.153,0.3065 43.7493,0.2718 C 43.3504,0.2375 42.949,0.273 42.5497,0.2562 C 42.1476,0.2392 41.7597,0.1494 41.3573,0.1348 C 40.3187,0.0969 41.1957,0.1793 40.1574,0.1304 C 39.7555,0.1114 39.3676,0.0226 38.9649,0.0095 C 38.5659,-0.0035 38.1641,0.0083 37.7649,0.0083 C 37.3649,0.0083 36.9649,0.0083 36.5649,0.0083 C 36.1649,0.0083 35.7649,0.0083 35.3649,0.0083 C 34.9649,0.0083 34.5649,0.0083 34.1649,0.0083 C 34.0316,0.0083 33.8983,0.0083 33.7649,0.0083 C 33.3649,0.0083 32.9649,0.0083 32.5649,0.0083 C 32.1649,0.0083 31.7649,0.0083 31.3649,0.0083 C 30.9649,0.0083 30.5649,0.0083 30.1649,0.0083 C 29.767,0.0083 29.3623,-0.0109 28.9649,0.009 C 28.5181,0.0314 28.0882,0.1234 27.6411,0.1331 Z"
        style="fill:#ff00ff;fill-opacity:0.25;stroke:#ff00ff;stroke-width:0.264583;vector-effect:non-scaling-stroke"/>
</svg>
