<?xml version="1.0" encoding="UTF-8" standalone="no"?>
<!-- GERADO por tools/photo_to_outline.py — contorno de thermpro (mm), 300 nós -->
<svg xmlns="http://www.w3.org/2000/svg" version="1.1"
     width="67.4759mm" height="71.4612mm" viewBox="0 0 67.4759 71.4612">
  <path d="M 31.6012,0.0411 C 31.3215,0.0491 31.0811,0.056 30.8014,0.0627 C 30.5118,0.0697 30.2913,0.0741 30.0016,0.0793 C 29.7094,0.0846 29.494,0.0877 29.2017,0.0923 C 28.9434,0.0964 28.6602,0.1006 28.4018,0.1055 C 28.1161,0.1109 27.8878,0.1158 27.6021,0.1241 C 27.3308,0.1321 27.0737,0.1413 26.8026,0.1526 C 26.5438,0.1635 26.2621,0.1769 26.0035,0.1904 C 25.7266,0.2047 25.4815,0.2188 25.2047,0.2353 C 24.9667,0.2495 24.6442,0.2696 24.4063,0.2847 C 24.1311,0.3022 23.8831,0.3183 23.6079,0.3364 C 23.3803,0.3513 23.0373,0.3742 22.8097,0.3895 C 22.482,0.4115 22.3393,0.4213 22.0115,0.4439 C 21.7455,0.4622 21.4795,0.4807 21.2135,0.4991 C 20.9508,0.5172 20.678,0.536 20.4154,0.5547 C 20.136,0.5745 19.8968,0.5919 19.6175,0.6133 C 19.3644,0.6326 19.0731,0.6556 18.8201,0.6767 C 18.5414,0.7001 18.3016,0.7214 18.0232,0.7473 C 17.7687,0.7709 17.4812,0.7988 17.2269,0.8247 C 16.9579,0.852 16.7002,0.8794 16.4315,0.9096 C 16.1796,0.9378 15.8885,0.9718 15.637,1.0034 C 15.3731,1.0365 15.1073,1.0717 14.8442,1.1105 C 14.5846,1.1487 14.3128,1.1919 14.0545,1.2382 C 13.7907,1.2855 13.5316,1.3366 13.27,1.3947 C 13.0096,1.4526 12.7508,1.5162 12.4934,1.5864 C 12.2366,1.6563 11.98,1.7331 11.7271,1.8158 C 11.4731,1.899 11.2229,1.9879 10.9735,2.084 C 10.7218,2.1809 10.481,2.2809 10.2348,2.391 C 9.992,2.4997 9.7504,2.6155 9.5136,2.737 C 9.2733,2.8603 9.0454,2.9851 8.8123,3.1217 C 8.5826,3.2564 8.3556,3.3981 8.1341,3.5458 C 7.9089,3.696 7.6981,3.846 7.4824,4.0095 C 7.2713,4.1695 7.0607,4.339 6.8595,4.5113 C 6.6552,4.6862 6.4613,4.8628 6.2679,5.0497 C 6.0773,5.2339 5.8887,5.4271 5.7093,5.6222 C 5.5294,5.8177 5.3535,6.021 5.185,6.2263 C 5.0169,6.4311 4.8511,6.6444 4.6943,6.858 C 4.5379,7.071 4.3831,7.2941 4.2388,7.5155 C 4.0923,7.7403 3.9548,7.9651 3.8222,8.1983 C 3.691,8.4291 3.5653,8.6672 3.4483,8.9054 C 3.3309,9.1445 3.2203,9.388 3.117,9.6335 C 3.0138,9.8787 2.917,10.1286 2.8276,10.3792 C 2.7368,10.6335 2.6564,10.8808 2.5788,11.1394 C 2.5012,11.398 2.4328,11.649 2.366,11.9105 C 2.3007,12.1666 2.2385,12.4309 2.1807,12.6888 C 2.122,12.9509 2.0678,13.208 2.0148,13.4713 C 1.9623,13.732 1.9119,13.9955 1.8639,14.257 C 1.8152,14.5217 1.77,14.7794 1.7246,15.0447 C 1.6733,15.3443 1.6425,15.534 1.5925,15.8338 C 1.549,16.0949 1.5047,16.3618 1.4581,16.6224 C 1.4093,16.8949 1.3636,17.137 1.3074,17.408 C 1.2514,17.678 1.1966,17.9205 1.1324,18.1886 C 1.0664,18.4635 1.0075,18.6907 0.9371,18.9644 C 0.8742,19.2088 0.7989,19.4944 0.7397,19.7397 C 0.6743,20.0101 0.6203,20.2476 0.5694,20.5212 C 0.5195,20.7892 0.4814,21.0413 0.4497,21.3121 C 0.4181,21.5822 0.3979,21.8376 0.3808,22.109 C 0.3642,22.3714 0.3533,22.6454 0.3419,22.908 C 0.3293,23.1975 0.3209,23.4178 0.305,23.7072 C 0.2893,23.9918 0.274,24.2212 0.2508,24.5053 C 0.2282,24.7809 0.2042,25.0267 0.1759,25.3018 C 0.1737,25.3228 0.0936,26.0763 0.0915,26.0973 C 0.065,26.3581 0.0381,26.6325 0.0218,26.8942 C 0.005,27.1658 -0.0042,27.4215 0.0019,27.6937 C 0.0079,27.9653 0.0266,28.2217 0.063,28.4909 C 0.0999,28.7631 0.1497,29.0093 0.2144,29.2761 C 0.2795,29.545 0.3504,29.7815 0.4287,30.0467 C 0.5073,30.3136 0.58,30.5461 0.6522,30.8148 C 0.7238,31.0812 0.7823,31.3227 0.8325,31.594 C 0.8825,31.8639 0.9158,32.113 0.9403,32.3864 C 0.9643,32.6549 0.9748,32.9158 0.9808,33.1852 C 0.9866,33.4468 0.9853,33.7236 0.9841,33.9852 C 0.9816,34.5503 0.9811,34.2201 0.9796,34.7852 C 0.9778,35.4518 0.9842,36.1185 0.9862,36.7852 C 0.9871,37.0944 0.9871,37.2759 0.9872,37.5852 C 0.9872,37.6152 0.9872,38.3552 0.9872,38.3852 C 0.9872,38.4895 0.9872,39.0808 0.9873,39.1852 C 0.9875,39.46 0.9878,39.7103 0.9893,39.9852 C 0.9909,40.2611 0.9931,40.5092 0.997,40.7851 C 1.0007,41.0461 1.006,41.3241 1.0122,41.585 C 1.0189,41.8705 1.0257,42.0992 1.0352,42.3846 C 1.0445,42.663 1.054,42.9058 1.0645,43.1841 C 1.0756,43.4792 1.0838,43.6884 1.0938,43.9836 C 1.1033,44.2638 1.1106,44.5029 1.1181,44.7832 C 1.1252,45.0438 1.1317,45.3223 1.1372,45.583 C 1.1437,45.8868 1.1471,46.079 1.1523,46.3828 C 1.1636,47.0354 1.1545,46.5301 1.166,47.1827 C 1.1702,47.4189 1.1762,47.7463 1.1806,47.9826 C 1.1856,48.2432 1.1909,48.5218 1.1967,48.7824 C 1.2032,49.0774 1.2085,49.2872 1.2169,49.5821 C 1.2238,49.8238 1.2338,50.1401 1.2417,50.3818 C 1.2506,50.6558 1.2593,50.9073 1.2689,51.1813 C 1.2789,51.4643 1.2874,51.6978 1.2977,51.9808 C 1.3078,52.26 1.3166,52.5011 1.3264,52.7803 C 1.3453,53.3165 1.3355,53.0435 1.3539,53.5798 C 1.363,53.8443 1.3723,54.1148 1.3829,54.3793 C 1.3936,54.6456 1.4054,54.9122 1.4199,55.1784 C 1.4344,55.4424 1.4514,55.7131 1.4722,55.9767 C 1.493,56.2407 1.518,56.5099 1.547,56.7731 C 1.5762,57.0385 1.6095,57.3025 1.6482,57.5667 C 1.6865,57.8287 1.7307,58.0955 1.7795,58.3558 C 1.8283,58.6164 1.8833,58.8805 1.944,59.1386 C 2.005,59.3984 2.0722,59.6561 2.1465,59.9124 C 2.2199,60.1653 2.3027,60.4259 2.39,60.6744 C 2.478,60.9245 2.5749,61.1763 2.6779,61.4206 C 2.7815,61.6665 2.8926,61.9088 3.0117,62.1475 C 3.1298,62.384 3.2589,62.6228 3.392,62.8512 C 3.526,63.0812 3.6681,63.3082 3.8168,63.5289 C 3.9652,63.7494 4.1227,63.967 4.2845,64.1778 C 4.445,64.387 4.6172,64.5986 4.7894,64.7982 C 4.9624,64.9986 5.1451,65.1982 5.329,65.3887 C 5.512,65.5782 5.7068,65.7697 5.9002,65.9486 C 6.097,66.1305 6.2963,66.3039 6.5038,66.4734 C 6.7091,66.6411 6.9233,66.8055 7.1383,66.9605 C 7.3573,67.1184 7.573,67.2638 7.8007,67.4088 C 8.026,67.5523 8.2542,67.6888 8.4863,67.821 C 8.7208,67.9546 8.95,68.0778 9.1895,68.2024 C 9.419,68.3218 9.6717,68.4483 9.9044,68.5613 C 10.142,68.6767 10.3879,68.7925 10.6287,68.9009 C 10.8689,69.0091 11.1197,69.1175 11.3636,69.2169 C 11.6136,69.3187 11.8564,69.4123 12.1109,69.5024 C 12.3644,69.5922 12.6138,69.673 12.8714,69.7504 C 13.1245,69.8265 13.3861,69.8987 13.6421,69.9648 C 13.9071,70.0332 14.1529,70.0915 14.4199,70.1516 C 14.6721,70.2084 14.949,70.2669 15.2022,70.3188 C 15.4552,70.3706 15.7334,70.4255 15.9872,70.4732 C 16.2528,70.5232 16.5081,70.569 16.7748,70.6135 C 17.0369,70.6572 17.3023,70.6984 17.5653,70.7357 C 17.8363,70.774 18.087,70.806 18.3589,70.8371 C 18.6298,70.8681 18.8832,70.8933 19.1547,70.9183 C 19.4168,70.9425 19.6895,70.9651 19.9518,70.9861 C 20.1946,71.0056 20.5066,71.0294 20.7495,71.0474 C 21.0349,71.0686 21.2619,71.0847 21.5474,71.1047 C 21.8134,71.1233 22.0795,71.1416 22.3455,71.1601 C 22.4966,71.1707 22.9925,71.2055 23.1435,71.2161 C 23.5272,71.2432 23.5579,71.2457 23.9415,71.273 C 24.2036,71.2918 24.4774,71.3114 24.7395,71.3293 C 25.0027,71.3473 25.2745,71.3653 25.5379,71.3808 C 25.8051,71.3965 26.0694,71.4104 26.3368,71.4218 C 26.6071,71.4335 26.8659,71.4423 27.1363,71.4487 C 27.4089,71.4553 27.6636,71.4587 27.9362,71.4603 C 28.2096,71.462 28.4629,71.4612 28.7362,71.4599 C 28.889,71.4592 29.3835,71.4559 29.5362,71.455 C 29.804,71.4534 30.0684,71.4518 30.3362,71.4509 C 30.6011,71.45 30.8713,71.4496 31.1362,71.4498 C 31.4325,71.45 31.6399,71.4507 31.9362,71.4517 C 32.3388,71.4532 32.3336,71.4536 32.7362,71.4547 C 33.0134,71.4555 33.259,71.456 33.5362,71.4562 C 33.6695,71.4563 33.8029,71.4563 33.9362,71.4563 C 34.2159,71.4563 34.4565,71.456 34.7362,71.4553 C 35.0979,71.4544 35.1746,71.4538 35.5362,71.4525 C 35.8377,71.4515 36.0347,71.4508 36.3362,71.4505 C 36.5982,71.4503 36.8742,71.4506 37.1362,71.4513 C 37.4064,71.4521 37.666,71.4535 37.9362,71.455 C 38.0515,71.4556 38.6208,71.4591 38.7362,71.4596 C 39.0077,71.4608 39.2646,71.4616 39.5362,71.46 C 39.8099,71.4584 40.0624,71.4551 40.3361,71.4486 C 40.6077,71.4422 40.8642,71.4336 41.1356,71.422 C 41.4035,71.4106 41.6669,71.3968 41.9346,71.3811 C 42.1974,71.3657 42.4702,71.3476 42.7329,71.3297 C 43.0025,71.3113 43.2614,71.2927 43.5309,71.2734 C 43.8994,71.247 43.9604,71.2424 44.3289,71.2164 C 44.4906,71.205 44.9652,71.1717 45.1269,71.1604 C 45.393,71.1419 45.659,71.1236 45.925,71.1051 C 46.2091,71.0853 46.439,71.0691 46.723,71.0482 C 46.9714,71.0299 47.2723,71.0071 47.5207,70.9874 C 47.7806,70.9668 48.0582,70.9441 48.3179,70.9203 C 48.5904,70.8954 48.8418,70.8704 49.1137,70.8393 C 49.3824,70.8086 49.6395,70.7756 49.9072,70.7376 C 50.1691,70.7005 50.4369,70.6587 50.6977,70.615 C 50.9671,70.5699 51.2168,70.5248 51.4852,70.4741 C 51.7386,70.4263 52.0175,70.3712 52.2702,70.3196 C 52.5221,70.2682 52.8017,70.2095 53.0527,70.1533 C 53.3182,70.094 53.5673,70.0354 53.8308,69.9679 C 54.0876,69.9022 54.348,69.8309 54.6019,69.755 C 54.8602,69.6778 55.1085,69.5975 55.3627,69.5077 C 55.6194,69.4171 55.8579,69.3253 56.11,69.2225 C 56.3544,69.1229 56.6042,69.0147 56.8448,68.9062 C 57.0845,68.7981 57.3325,68.6812 57.5688,68.5661 C 57.7999,68.4536 58.0555,68.3252 58.2834,68.2064 C 58.5196,68.0831 58.7547,67.9563 58.9862,67.8242 C 59.2204,67.6905 59.4439,67.5565 59.6713,67.4113 C 59.8984,67.2663 60.1147,67.12 60.3332,66.9623 C 60.5516,66.8048 60.7592,66.6456 60.9677,66.4752 C 61.1753,66.3055 61.3743,66.1323 61.5714,65.9505 C 61.7682,65.7688 61.957,65.5837 62.1432,65.3912 C 62.328,65.2001 62.5094,65.0022 62.6834,64.8012 C 62.8572,64.6004 63.0275,64.3922 63.1895,64.1818 C 63.3522,63.9705 63.5087,63.7545 63.658,63.5335 C 63.8077,63.3121 63.9493,63.0874 64.0841,62.8566 C 64.2182,62.6269 64.3456,62.3909 64.4644,62.1529 C 64.5844,61.9125 64.6939,61.6737 64.7981,61.426 C 64.9028,61.1772 64.9959,60.9341 65.0851,60.6794 C 65.1726,60.4294 65.2544,60.1717 65.328,59.9173 C 65.403,59.6583 65.4687,59.4058 65.5303,59.1434 C 65.591,58.8851 65.646,58.6213 65.695,58.3606 C 65.7441,58.0994 65.788,57.8345 65.8265,57.5715 C 65.865,57.3089 65.8987,57.0418 65.9278,56.778 C 65.9571,56.5119 65.9815,56.2484 66.0024,55.9815 C 66.0232,55.7172 66.0401,55.448 66.0546,55.1832 C 66.0693,54.9146 66.0808,54.6529 66.0916,54.3841 C 66.1024,54.1164 66.1114,53.8524 66.1207,53.5846 C 66.1402,53.0171 66.1281,53.3526 66.1481,52.7851 C 66.1581,52.5008 66.1665,52.2699 66.1768,51.9856 C 66.1872,51.6974 66.1953,51.4743 66.2054,51.1861 C 66.2151,50.9084 66.2234,50.6643 66.2323,50.3866 C 66.2401,50.1463 66.25,49.8273 66.2568,49.587 C 66.2653,49.2885 66.2703,49.0857 66.277,48.7872 C 66.2828,48.526 66.2882,48.2487 66.2932,47.9874 C 66.2978,47.7481 66.3039,47.4268 66.3082,47.1875 C 66.3185,46.6223 66.3122,46.9529 66.3222,46.3876 C 66.3277,46.0803 66.331,45.8951 66.3376,45.5878 C 66.3431,45.3293 66.3497,45.0465 66.3567,44.788 C 66.3641,44.5118 66.3715,44.2646 66.3809,43.9884 C 66.3909,43.6894 66.3988,43.4878 66.41,43.1889 C 66.4204,42.9121 66.4299,42.6663 66.4392,42.3895 C 66.4489,42.0999 66.4553,41.8795 66.4622,41.5898 C 66.4684,41.3288 66.4737,41.0509 66.4774,40.7899 C 66.4813,40.5173 66.4836,40.2626 66.4851,39.99 C 66.4866,39.7133 66.4869,39.4666 66.4871,39.19 C 66.4872,39.075 66.4872,38.5049 66.4872,38.39 C 66.4872,38.3474 66.4872,37.6326 66.4872,37.59 C 66.4873,37.2777 66.4873,37.1022 66.4883,36.79 C 66.4903,36.1233 66.4966,35.4567 66.4947,34.79 C 66.493,34.1822 66.4928,34.5978 66.4902,33.99 C 66.4891,33.7294 66.4879,33.4506 66.4939,33.19 C 66.5,32.9193 66.5107,32.6611 66.535,32.3913 C 66.5596,32.1176 66.5927,31.8691 66.6427,31.5989 C 66.6928,31.3276 66.7512,31.086 66.8227,30.8196 C 66.8956,30.5479 66.9667,30.3213 67.0464,30.0516 C 67.1242,29.7883 67.1963,29.5479 67.2613,29.2811 C 67.3262,29.0141 67.3762,28.7684 67.4132,28.496 C 67.4496,28.2274 67.4684,27.9698 67.4742,27.6988 C 67.48,27.4304 67.4703,27.1672 67.4535,26.8993 C 67.4371,26.6371 67.4101,26.3638 67.3833,26.1025 C 67.3561,25.8372 67.3256,25.5723 67.2981,25.307 C 67.2697,25.0324 67.2453,24.7858 67.2226,24.5106 C 67.1993,24.2272 67.1838,23.9964 67.1682,23.7125 C 67.1523,23.4244 67.1438,23.2015 67.1315,22.9133 C 67.1204,22.6534 67.1095,22.374 67.0934,22.1142 C 67.0766,21.8428 67.0568,21.5874 67.0256,21.3172 C 66.9942,21.0457 66.9565,20.7951 66.9067,20.5263 C 66.8556,20.2507 66.8025,20.0171 66.7366,19.7447 C 66.6775,19.5005 66.6015,19.2128 66.5387,18.9695 C 66.4693,18.7005 66.408,18.4641 66.343,18.1939 C 66.2786,17.9258 66.2238,17.6833 66.1677,17.4133 C 66.1116,17.1433 66.0656,16.8992 66.0169,16.6277 C 65.9697,16.364 65.9265,16.1034 65.8825,15.8391 C 65.8325,15.5394 65.8018,15.3496 65.7507,15.05 C 65.7049,14.7816 65.661,14.53 65.6119,14.2622 C 65.5637,13.9996 65.5138,13.7382 65.4612,13.4765 C 65.4082,13.2129 65.3542,12.9563 65.2954,12.6939 C 65.2378,12.4364 65.1754,12.1713 65.1103,11.9156 C 65.0441,11.6554 64.9751,11.4016 64.8982,11.1443 C 64.821,10.8859 64.7407,10.638 64.6504,10.3838 C 64.5619,10.1347 64.4642,9.8814 64.362,9.6377 C 64.259,9.3921 64.1485,9.1484 64.0312,8.9094 C 63.9137,8.6698 63.7892,8.4343 63.6573,8.2023 C 63.5225,7.9653 63.3895,7.7479 63.2405,7.5196 C 63.0953,7.297 62.9419,7.0766 62.7845,6.8624 C 62.6252,6.6456 62.4645,6.4386 62.2938,6.2307 C 62.1248,6.0249 61.9497,5.8227 61.7695,5.6266 C 61.5864,5.4272 61.4059,5.2419 61.2112,5.0538 C 61.0203,4.8693 60.8214,4.6879 60.6199,4.5151 C 60.4179,4.3418 60.2094,4.1737 59.9974,4.0128 C 59.7861,3.8524 59.5668,3.6957 59.3464,3.5481 C 59.1257,3.4003 58.8978,3.2576 58.6688,3.123 C 58.4399,2.9885 58.2041,2.8588 57.968,2.7374 C 57.7313,2.6157 57.4898,2.5001 57.2468,2.3915 C 57.0035,2.2829 56.7566,2.1806 56.5079,2.085 C 56.2565,1.9884 56.0101,1.9011 55.754,1.8176 C 55.5019,1.7354 55.2434,1.6583 54.9876,1.5885 C 54.7256,1.517 54.4762,1.4556 54.2111,1.3966 C 53.9484,1.3381 53.6915,1.2874 53.4266,1.2397 C 53.1629,1.1923 52.9022,1.1506 52.637,1.1115 C 52.3738,1.0726 52.1083,1.0374 51.8443,1.0042 C 51.5858,0.9717 51.3087,0.9393 51.0498,0.9102 C 50.7811,0.8801 50.5233,0.8527 50.2543,0.8253 C 49.9956,0.799 49.717,0.7719 49.4581,0.7477 C 49.183,0.7221 48.9366,0.7002 48.6612,0.677 C 48.4069,0.6557 48.1183,0.6328 47.8638,0.6133 C 47.5885,0.5923 47.3413,0.5742 47.0659,0.5546 C 46.8145,0.5367 46.5194,0.5164 46.2679,0.499 C 46.0018,0.4806 45.7358,0.4621 45.4698,0.4438 C 45.1463,0.4215 44.9951,0.4112 44.6716,0.3894 C 44.4377,0.3737 44.1074,0.3517 43.8734,0.3364 C 43.6044,0.3187 43.3441,0.3019 43.0751,0.2848 C 42.8372,0.2698 42.5145,0.2497 42.2766,0.2356 C 42.0022,0.2192 41.7523,0.2049 41.4778,0.1907 C 41.2175,0.1772 40.9392,0.1639 40.6787,0.153 C 40.4016,0.1414 40.1565,0.1325 39.8792,0.1244 C 39.5989,0.1162 39.3599,0.111 39.0795,0.1057 C 38.8278,0.1009 38.5312,0.0965 38.2796,0.0926 C 37.985,0.088 37.7742,0.085 37.4797,0.0798 C 37.1945,0.0747 36.965,0.0702 36.6799,0.0634 C 36.3993,0.0567 36.1607,0.0499 35.8801,0.0419 C 35.6311,0.0348 35.3296,0.0256 35.0805,0.0193 C 34.808,0.0124 34.5532,0.0068 34.2806,0.0034 C 33.8806,-0.0016 33.4806,-0.0011 33.0807,0.0046 C 32.7967,0.0087 32.5647,0.0144 32.2808,0.0217 C 32.1081,0.0262 31.7509,0.0368 31.6012,0.0411 Z"
        style="fill:#ff00ff;fill-opacity:0.25;stroke:#ff00ff;stroke-width:0.264583;vector-effect:non-scaling-stroke"/>
</svg>
