<?xml version="1.0" encoding="UTF-8" standalone="no"?>
<!-- GERADO por photo_to_outline.py — contorno de thermpro (mm), 305 nós -->
<svg xmlns="http://www.w3.org/2000/svg" version="1.1"
     width="67.9426mm" height="70.9996mm" viewBox="0 0 67.9426 70.9996">
  <path d="M 28.4283,0.0511 C 28.0582,0.0929 28.0044,0.1086 27.6318,0.1217 C 27.4038,0.1296 27.0598,0.1216 26.8318,0.1257 C 26.4494,0.1327 26.4143,0.1385 26.0341,0.1787 C 25.6271,0.2218 25.647,0.2334 25.2374,0.2469 C 24.9114,0.2577 24.7635,0.2415 24.4376,0.258 C 24.0459,0.2778 24.0315,0.2992 23.6417,0.3371 C 23.2774,0.3725 23.2089,0.3719 22.8431,0.3751 C 22.7447,0.3759 22.1414,0.3742 22.0431,0.3755 C 21.6958,0.3798 21.5902,0.3822 21.2448,0.4199 C 20.9499,0.4522 20.7462,0.4898 20.4526,0.5307 C 20.1665,0.5705 19.9461,0.6002 19.6574,0.6156 C 19.284,0.6356 19.2311,0.6166 18.8576,0.6271 C 18.4869,0.6376 18.4288,0.6497 18.0605,0.6907 C 17.7955,0.7202 17.5303,0.7484 17.2653,0.7781 C 16.8925,0.8199 16.8441,0.8331 16.47,0.8633 C 15.7907,0.9181 16.3506,0.8562 15.6728,0.9289 C 15.4077,0.9573 15.1426,0.9866 14.8776,1.0162 C 14.4817,1.0603 14.4784,1.0608 14.0856,1.1271 C 13.1169,1.2907 14.2661,1.1009 13.2985,1.2703 C 12.4458,1.4195 13.3623,1.2534 12.5071,1.3863 C 12.1641,1.4397 12.0593,1.4582 11.7326,1.5775 C 11.5546,1.6425 11.1714,1.8187 10.9954,1.8882 C 10.6018,2.0435 10.6393,2.0123 10.2371,2.1418 C 9.8836,2.2556 9.8288,2.2736 9.4914,2.429 C 9.2492,2.5405 9.0109,2.6605 8.7688,2.7722 C 8.4623,2.9135 8.3459,2.9597 8.0496,3.1221 C 7.9172,3.1946 7.4899,3.4507 7.3616,3.5301 C 7.0814,3.7036 6.9605,3.7766 6.7045,3.985 C 6.3929,4.2386 6.1037,4.5089 5.7824,4.7517 C 5.5181,4.9514 5.4018,5.0257 5.1654,5.2593 C 4.9963,5.4264 4.7885,5.6771 4.6422,5.8639 C 4.4641,6.0914 4.3372,6.274 4.1716,6.5106 C 3.8934,6.908 3.9976,6.7734 3.7029,7.1588 C 3.5485,7.3608 3.3627,7.5855 3.2241,7.7994 C 3.0383,8.0862 3.0007,8.2 2.8445,8.5029 C 2.7224,8.7399 2.5808,8.9668 2.4648,9.2069 C 2.3213,9.5039 2.2868,9.6427 2.1846,9.9552 C 2.1432,10.0817 1.9764,10.5887 1.94,10.7168 C 1.8601,10.9979 1.8191,11.2102 1.7568,11.4954 C 1.7184,11.6714 1.6213,12.1002 1.5933,12.2784 C 1.5421,12.6049 1.5413,12.7456 1.5341,13.0753 C 1.5274,13.3806 1.5398,13.5701 1.5017,13.8741 C 1.4597,14.2097 1.411,14.3276 1.33,14.6546 C 1.2514,14.9718 1.2133,15.1136 1.1815,15.4396 C 1.1521,15.7402 1.1628,15.9377 1.158,16.239 C 1.1519,16.6252 1.1521,16.6528 1.113,17.0372 C 1.0396,17.7574 1.089,17.1112 1.0357,17.8333 C 0.9833,18.5442 1.0381,17.9209 0.9637,18.6298 C 0.9237,19.0109 0.9171,19.0442 0.9094,19.4275 C 0.9081,19.4945 0.9084,20.1605 0.9084,20.2275 C 0.9084,20.4941 0.9084,20.7608 0.9084,21.0275 C 0.9084,21.2941 0.9088,21.5608 0.9084,21.8275 C 0.9079,22.1241 0.9116,22.3308 0.8903,22.627 C 0.8573,23.0862 0.8432,22.9637 0.8064,23.4225 C 0.7813,23.7359 0.7844,23.9079 0.7834,24.2219 C 0.7826,24.4886 0.7834,24.7553 0.7834,25.0219 C 0.7834,25.2886 0.7834,25.5553 0.7834,25.8219 C 0.7834,26.0886 0.7834,26.3553 0.7834,26.6219 C 0.7834,26.8886 0.7834,27.1553 0.7834,27.4219 C 0.7834,27.6886 0.7839,27.9553 0.7834,28.2219 C 0.7825,28.6881 0.7852,28.5558 0.7684,29.0217 C 0.7537,29.4296 0.746,29.413 0.7565,29.8213 C 0.7661,30.1953 0.7888,30.2463 0.7668,30.6207 C 0.7518,30.8759 0.703,31.1615 0.6819,31.416 C 0.6559,31.7307 0.6593,31.9 0.6584,32.2154 C 0.6584,32.2168 0.6584,33.014 0.6584,33.0154 C 0.6584,33.282 0.6584,33.5487 0.6584,33.8154 C 0.6584,33.8945 0.6579,34.5362 0.6597,34.6154 C 0.6687,35.0115 0.6761,35.019 0.718,35.4128 C 0.732,35.5453 0.7505,35.6775 0.7611,35.8104 C 0.7928,36.2095 0.7825,36.6099 0.7834,37.0098 C 0.784,37.3086 0.7806,37.511 0.8038,37.8093 C 0.8178,37.9904 0.8741,38.4236 0.8967,38.6038 C 0.9451,38.9902 1.0371,39.4059 1.0108,39.797 C 0.9894,40.1144 0.9253,40.2751 0.7719,40.5507 C 0.5116,41.0183 0.5898,40.7496 0.3512,41.2306 C 0.221,41.493 0.1594,41.7013 0.0996,41.9871 C 0.0485,42.2319 0.0125,42.5305 0.0028,42.7804 C -0.0068,43.0262 0.0103,43.3346 0.0237,43.5798 C 0.0401,43.8806 0.0484,44.0781 0.0964,44.376 C 0.4696,46.6879 -0.1158,42.8479 0.2466,45.1616 C 0.2631,45.2667 0.3366,45.8494 0.3487,45.9551 C 0.3889,46.3085 0.3986,46.3966 0.4069,46.7524 C 0.4086,46.8242 0.4087,47.4807 0.4084,47.5524 C 0.4071,47.8719 0.4097,48.0331 0.3831,48.3517 C 0.368,48.5319 0.3111,48.9668 0.289,49.1461 C 0.2508,49.4559 0.2247,49.6298 0.2116,49.942 C 0.2095,49.9939 0.2049,50.6901 0.2059,50.742 C 0.2127,51.0671 0.2055,51.2191 0.3324,51.5246 C 0.4318,51.7639 0.6095,51.9917 0.7692,52.1916 C 0.9269,52.3891 1.1337,52.6 1.2641,52.8191 C 1.4216,53.0838 1.4692,53.2689 1.5317,53.5676 C 1.583,53.813 1.6183,54.1104 1.64,54.3599 C 1.6961,55.0067 1.6331,54.5115 1.7011,55.1574 C 1.7065,55.209 1.7926,55.8999 1.7995,55.9513 C 1.8689,56.4668 1.8385,56.2285 1.9302,56.7403 C 1.994,57.0958 2.004,57.1729 2.0572,57.5301 C 2.0979,57.8032 2.1294,58.0491 2.1857,58.3196 C 2.2625,58.6884 2.2872,58.7309 2.3944,59.0914 C 2.5428,59.59 2.4766,59.359 2.6017,59.8638 C 2.6936,60.2343 2.6949,60.2721 2.8273,60.6306 C 2.9197,60.8807 3.021,61.1275 3.1233,61.3737 C 3.2702,61.7274 3.2876,61.7574 3.4681,62.0949 C 4.7532,64.4978 2.5702,60.3922 3.8443,62.8009 C 3.9945,63.0849 4.0665,63.2251 4.2473,63.4912 C 4.2803,63.5398 4.6866,64.0883 4.7207,64.136 C 4.7577,64.1877 5.1402,64.7414 5.1781,64.7923 C 5.3607,65.0373 5.4831,65.1822 5.7047,65.3929 C 5.7652,65.4504 6.2462,65.8623 6.3087,65.9174 C 6.5992,66.1731 6.609,66.2013 6.9174,66.4359 C 7.1296,66.5974 7.3512,66.7462 7.5667,66.9032 C 7.9098,67.1534 7.8639,67.133 8.2248,67.3572 C 8.9595,67.8137 8.1787,67.3081 8.908,67.7734 C 10.2207,68.6108 8.2655,67.3728 9.5759,68.2137 C 9.8448,68.3862 9.9812,68.4725 10.2733,68.6034 C 10.5166,68.7124 10.7685,68.8012 11.0165,68.8992 C 11.32,69.0191 11.4559,69.0765 11.768,69.1727 C 12.0287,69.253 12.2766,69.3123 12.542,69.3745 C 12.8016,69.4354 13.0617,69.4941 13.3221,69.5517 C 13.6847,69.632 13.7404,69.645 14.1071,69.7046 C 14.5084,69.7698 14.497,69.7577 14.8978,69.8265 C 15.1718,69.8736 15.4095,69.9292 15.6861,69.9618 C 15.9782,69.9963 16.191,69.9985 16.4846,70 C 17.0017,70.0028 16.7676,69.9945 17.2845,69.9885 C 17.5943,69.985 17.7751,69.9773 18.0817,70.0315 C 18.3845,70.0851 18.5568,70.1637 18.8534,70.2407 C 19.1607,70.3204 19.3249,70.3442 19.6387,70.3902 C 19.9519,70.4361 20.1177,70.4559 20.4328,70.4862 C 21.5497,70.5939 20.1132,70.4445 21.2288,70.5649 C 21.613,70.6064 21.6396,70.6151 22.0261,70.624 C 22.1391,70.6266 22.7132,70.6238 22.8261,70.6257 C 23.2204,70.6323 23.2319,70.6358 23.6239,70.6773 C 24.0162,70.7189 24.0258,70.7334 24.4205,70.747 C 24.5414,70.7512 25.0995,70.7501 25.2205,70.7501 C 25.4871,70.7501 25.7538,70.7501 26.0205,70.7501 C 26.2871,70.7501 26.5538,70.7501 26.8205,70.7501 C 27.0871,70.7501 27.3538,70.7501 27.6205,70.7501 C 27.6977,70.7501 28.3432,70.7496 28.4205,70.7516 C 28.7606,70.7604 28.8802,70.7701 29.2163,70.8232 C 29.6275,70.8881 29.5912,70.9074 30.0053,70.9541 C 30.2608,70.9829 30.547,70.9933 30.8038,70.9974 C 31.0973,71.0021 31.3105,71.0004 31.6032,70.9769 C 31.9441,70.9495 32.0574,70.9169 32.3987,70.893 C 32.8014,70.8649 33.1954,70.8971 33.5973,70.9159 C 33.7305,70.9222 33.8637,70.9297 33.997,70.9291 C 34.2281,70.9279 34.5652,70.898 34.7958,70.8882 C 35.1245,70.8743 35.2669,70.8716 35.595,70.8976 C 35.9857,70.9286 35.9995,70.9544 36.3904,70.9827 C 36.6616,71.0024 36.9184,71.002 37.19,70.9959 C 37.4502,70.99 37.7295,70.9783 37.9882,70.947 C 38.4425,70.8921 38.3246,70.8812 38.7768,70.8133 C 39.1043,70.7641 39.2427,70.7578 39.5735,70.7512 C 39.642,70.7498 40.305,70.7501 40.3735,70.7501 C 40.6401,70.7501 40.9068,70.7501 41.1735,70.7501 C 41.4401,70.7501 41.7068,70.7501 41.9735,70.7501 C 42.2401,70.7501 42.5068,70.7501 42.7735,70.7501 C 42.9453,70.7501 43.4017,70.7518 43.5734,70.7444 C 43.9653,70.7272 43.9798,70.7086 44.3696,70.6694 C 44.7436,70.6317 44.7921,70.63 45.1679,70.6254 C 45.3454,70.6232 45.7904,70.6279 45.9679,70.6224 C 46.36,70.6103 46.3751,70.5982 46.7647,70.5563 C 47.719,70.4537 46.6058,70.5735 47.5612,70.4821 C 47.8595,70.4536 48.0587,70.4281 48.355,70.3833 C 48.6817,70.3338 48.8194,70.3131 49.1393,70.2288 C 49.4288,70.1526 49.615,70.0718 49.9117,70.0226 C 50.2149,69.9723 50.4038,69.9842 50.7094,69.9893 C 51.103,69.9959 51.1155,70.0039 51.5093,69.9999 C 51.8054,69.9969 52.0132,69.9925 52.3074,69.9553 C 52.5577,69.9237 52.847,69.8595 53.0953,69.8173 C 53.7258,69.7104 53.2554,69.8021 53.8862,69.6972 C 54.2352,69.6392 54.3251,69.6161 54.6704,69.5395 C 54.8242,69.5053 55.2973,69.3993 55.4506,69.3626 C 55.6938,69.3042 55.9843,69.2303 56.2234,69.1563 C 56.5385,69.0586 56.6684,69.0042 56.9754,68.8842 C 57.0403,68.8588 57.655,68.6171 57.7184,68.5879 C 57.9989,68.4586 58.1528,68.3575 58.4104,68.1885 C 58.8656,67.8898 58.6169,68.0377 59.0753,67.7437 C 59.776,67.2944 59.0524,67.7681 59.7594,67.3292 C 60.1014,67.117 60.0919,67.1109 60.4163,66.8734 C 60.4253,66.8668 61.0544,66.4096 61.0632,66.4028 C 61.3581,66.1752 61.3912,66.1284 61.671,65.883 C 61.7978,65.7718 62.152,65.4741 62.273,65.3563 C 62.4834,65.1516 62.6192,64.986 62.794,64.7506 C 62.8414,64.6868 63.206,64.1595 63.2522,64.0949 C 63.3408,63.9708 63.637,63.5741 63.7218,63.4473 C 63.9014,63.1785 63.9709,63.0405 64.123,62.7558 C 64.2487,62.5206 64.3775,62.2871 64.5026,62.0516 C 64.6844,61.7093 64.6948,61.6864 64.8405,61.3272 C 64.8471,61.311 65.1247,60.5982 65.1306,60.5817 C 65.2585,60.2231 65.2589,60.1823 65.3523,59.8137 C 65.4885,59.2758 65.4083,59.5748 65.5637,59.0423 C 65.6624,58.7043 65.6945,58.6137 65.7651,58.2684 C 65.823,57.9854 65.851,57.7645 65.8938,57.479 C 65.9603,57.0352 65.9442,57.1313 66.0221,56.6894 C 66.1081,56.2015 66.0823,56.3907 66.147,55.8994 C 66.162,55.7859 66.233,55.2194 66.2446,55.1054 C 66.3412,54.1558 66.2166,55.2581 66.3063,54.3079 C 66.3273,54.085 66.3725,53.7354 66.4198,53.5163 C 66.487,53.2054 66.5304,53.0454 66.7018,52.7742 C 66.822,52.5839 67.0666,52.3284 67.2045,52.1524 C 67.3611,51.9526 67.5338,51.7161 67.6251,51.4756 C 67.7393,51.175 67.7291,51.005 67.735,50.6892 C 67.7375,50.5595 67.736,50.0189 67.7296,49.8893 C 67.7159,49.6105 67.6821,49.3704 67.6479,49.0937 C 67.6254,48.9115 67.5694,48.4823 67.5549,48.2992 C 67.531,47.9961 67.5342,47.8034 67.5334,47.4998 C 67.5331,47.388 67.5328,46.8116 67.5361,46.6998 C 67.5465,46.3527 67.5607,46.2475 67.6012,45.9029 C 67.6179,45.7614 67.6823,45.2504 67.705,45.1097 C 67.7475,44.8464 67.8144,44.5874 67.8538,44.3237 C 67.893,44.0622 67.9066,43.7905 67.9208,43.5269 C 67.9352,43.2593 67.9509,42.9957 67.9377,42.7275 C 67.9261,42.4924 67.8845,42.1649 67.833,41.9351 C 67.7691,41.6499 67.6999,41.4443 67.5656,41.1841 C 66.839,39.7762 67.8836,41.9049 67.1456,40.5036 C 67,40.2272 66.9449,40.0558 66.9303,39.7424 C 66.912,39.3499 67.0014,38.9372 67.0499,38.5494 C 67.0763,38.3378 67.1247,37.9675 67.1402,37.7546 C 67.1614,37.4625 67.1579,37.2477 67.1584,36.9551 C 67.1591,36.5547 67.1513,36.1553 67.1862,35.7559 C 67.1978,35.6231 67.2174,35.4911 67.2313,35.3585 C 67.2721,34.9707 67.2762,34.9507 67.2828,34.5607 C 67.2836,34.511 67.2834,33.8104 67.2834,33.7607 C 67.2834,33.494 67.2834,33.2274 67.2834,32.9607 C 67.2834,32.694 67.2848,32.4274 67.2834,32.1607 C 67.2816,31.8244 67.2837,31.6968 67.2541,31.3616 C 67.2295,31.0814 67.1858,30.8472 67.1725,30.5659 C 67.1552,30.2013 67.181,30.1306 67.1892,29.7665 C 67.1986,29.348 67.1862,29.385 67.1704,28.967 C 67.156,28.583 67.1587,28.5515 67.1584,28.1672 C 67.1582,27.9006 67.1584,27.6339 67.1584,27.3672 C 67.1584,27.1006 67.1584,26.8339 67.1584,26.5672 C 67.1584,26.3006 67.1584,26.0339 67.1584,25.7672 C 67.1584,25.5006 67.1584,25.2339 67.1584,24.9672 C 67.1584,24.7006 67.1597,24.4339 67.1584,24.1672 C 67.1567,23.829 67.1593,23.7054 67.1292,23.3682 C 67.0928,22.9599 67.0712,22.9821 67.0458,22.5727 C 67.0303,22.3233 67.0335,22.0225 67.0334,21.7729 C 67.0332,21.5062 67.0334,21.2396 67.0334,20.9729 C 67.0334,20.7062 67.0334,20.4396 67.0334,20.1729 C 67.0334,20.1099 67.0338,19.436 67.0323,19.3729 C 67.0235,18.9771 67.0158,18.9689 66.9735,18.5756 C 66.8969,17.8636 66.9576,18.4929 66.9024,17.779 C 66.8399,16.971 66.9007,17.7896 66.822,16.9832 C 66.7847,16.6012 66.7883,16.5682 66.7835,16.1846 C 66.7798,15.8936 66.7879,15.6755 66.7567,15.3854 C 66.7194,15.0384 66.6826,14.9399 66.5967,14.6028 C 66.5134,14.2761 66.4698,14.1572 66.433,13.8208 C 66.3998,13.5182 66.4147,13.3251 66.4071,13.0216 C 66.3993,12.7038 66.3929,12.5395 66.3414,12.2253 C 66.3127,12.0509 66.2121,11.6154 66.1737,11.4431 C 66.1156,11.1827 66.0622,10.9217 65.9892,10.6648 C 65.949,10.5232 65.7897,10.0432 65.7426,9.9038 C 65.6333,9.5805 65.6023,9.4668 65.4495,9.1606 C 65.3305,8.9221 65.1916,8.6938 65.0707,8.4562 C 64.9084,8.1371 64.8868,8.0539 64.6886,7.7543 C 64.5453,7.5377 64.363,7.3227 64.2052,7.1172 C 63.9201,6.7458 64.0059,6.8517 63.7388,6.4674 C 63.5612,6.2118 63.4604,6.0657 63.2665,5.822 C 63.1129,5.629 62.9148,5.3946 62.7369,5.2231 C 62.4987,4.9936 62.3786,4.9195 62.1163,4.7194 C 61.7266,4.4221 61.8677,4.5342 61.4982,4.2123 C 61.2246,3.9739 61.1753,3.9171 60.875,3.712 C 60.7289,3.6121 60.346,3.3827 60.1933,3.2936 C 59.8947,3.1195 59.7999,3.0659 59.488,2.9167 C 59.2475,2.8017 59.0025,2.6961 58.7619,2.5811 C 58.47,2.4415 58.3378,2.3635 58.0345,2.2491 C 57.7523,2.1427 57.5579,2.102 57.2725,2.0057 C 56.9243,1.8881 56.8677,1.8532 56.5282,1.7134 C 56.2387,1.5943 56.0804,1.5208 55.7744,1.4491 C 55.5277,1.3912 55.2336,1.3664 54.9839,1.3284 C 54.6619,1.2793 54.5171,1.2446 54.1967,1.1865 C 53.979,1.147 53.6265,1.0867 53.4073,1.0571 C 53.1947,1.0285 52.8253,0.9928 52.6122,0.9687 C 52.2033,0.9226 52.2271,0.9168 51.8167,0.8847 C 51.1434,0.8319 51.6913,0.8911 51.0197,0.8181 C 36.8768,-0.7191 64.3681,2.2627 50.2244,0.7317 C 50.0868,0.7168 49.5673,0.655 49.4292,0.6446 C 49.0542,0.6164 49.0052,0.6314 48.6297,0.6247 C 48.2775,0.6184 48.1819,0.6147 47.8318,0.5748 C 47.5505,0.5428 47.3199,0.5026 47.0395,0.4644 C 46.7501,0.425 46.5359,0.3968 46.244,0.3826 C 46.0403,0.3727 45.6479,0.3752 45.4441,0.3751 C 45.2153,0.375 44.873,0.3776 44.6443,0.3647 C 44.2495,0.3425 44.2418,0.3206 43.8485,0.284 C 43.4724,0.249 43.4271,0.2548 43.0497,0.2501 C 42.6788,0.2455 42.6204,0.2531 42.2506,0.2201 C 41.8455,0.1839 41.8612,0.1625 41.455,0.1377 C 41.1767,0.1206 40.9338,0.1271 40.6552,0.1251 C 40.2988,0.1225 40.2115,0.1248 39.8563,0.0923 C 39.4753,0.0573 39.4429,0.0333 39.0606,0.0111 C 38.828,-0.0024 38.4936,0.0003 38.2608,0.0001 C 37.9941,0 37.7274,0.0001 37.4608,0.0001 C 37.1941,0.0001 36.9274,0.0001 36.6608,0.0001 C 36.3941,0.0001 36.1274,0.0001 35.8608,0.0001 C 35.5941,0.0001 35.3274,0.0001 35.0608,0.0001 C 34.7941,0.0001 34.5274,0.0001 34.2608,0.0001 C 34.1274,0.0001 33.9941,0.0001 33.8608,0.0001 C 33.5941,0.0001 33.3274,0.0001 33.0608,0.0001 C 32.7941,0.0001 32.5274,0.0001 32.2608,0.0001 C 31.9941,0.0001 31.7274,0.0001 31.4608,0.0001 C 31.1941,0.0001 30.9274,0.0001 30.6608,0.0001 C 30.3941,0.0001 30.1274,0.0001 29.8608,0.0001 C 29.7475,0.0001 29.1741,-0.0008 29.0608,0.0029 C 28.7734,0.0122 28.6827,0.0224 28.4283,0.0511 Z"
        style="fill:#ff00ff;fill-opacity:0.25;stroke:#ff00ff;stroke-width:0.264583;vector-effect:non-scaling-stroke"/>
</svg>
