<?xml version="1.0" encoding="UTF-8" standalone="no"?>
<!-- GERADO por tools/photo_to_outline.py — contorno de thermpro (mm), 24 nós -->
<svg xmlns="http://www.w3.org/2000/svg" version="1.1"
     width="67.1718mm" height="71.5468mm" viewBox="0 0 67.1718 71.5468">
  <path d="M 26.4856,0.1475 C 23.0296,0.3089 19.5532,0.5266 16.1164,0.9298 C 12.6157,1.3406 9.3001,2.2852 6.6054,4.6667 C 6.4074,4.8417 6.209,5.0273 6.0215,5.2134 C 3.6919,7.5268 2.4952,10.5339 1.9532,13.7246 C 1.3751,17.128 0.7055,20.5632 0.3455,23.9957 C 0.2483,24.9233 0.1322,25.8512 0.0688,26.7819 C -0.3513,32.9504 1.271,40.2182 1.3413,46.6373 C 1.379,50.0723 1.3092,53.6137 1.6924,57.0293 C 1.9897,59.6782 2.935,62.2697 4.572,64.3864 C 5.0613,65.0191 5.6035,65.6121 6.1993,66.146 C 8.8313,68.5046 12.0365,69.9016 15.4972,70.4517 C 18.8667,70.9874 22.4387,71.2804 25.8485,71.4151 C 31.2564,71.6287 36.8436,71.5946 42.2439,71.2349 C 45.7543,71.0011 49.1119,70.9437 52.5517,70.0896 C 55.8174,69.2788 59.371,68.0327 61.8533,65.6795 C 62.4338,65.1292 62.9678,64.5293 63.4457,63.8879 C 65.0707,61.7066 65.7505,59.0939 66.011,56.4223 C 67.0572,45.6912 67.1812,34.3984 67.1717,23.7255 C 67.1686,20.2099 66.19,16.9731 65.4239,13.5417 C 64.6786,10.204 63.4473,7.2025 60.8846,4.8337 C 60.7867,4.7432 60.6872,4.6543 60.5864,4.567 C 57.875,2.2194 54.48,1.3947 51.0056,0.9883 C 47.5615,0.5855 44.1048,0.3167 40.6405,0.169 C 35.9288,-0.0319 31.1975,-0.0725 26.4856,0.1475 Z"
        style="fill:#ff00ff;fill-opacity:0.25;stroke:#ff00ff;stroke-width:0.264583;vector-effect:non-scaling-stroke"/>
</svg>
