<?xml version="1.0" encoding="UTF-8" standalone="no"?>
<!-- GERADO por photo_to_outline.py — contorno de thermpro (mm), 151 nós -->
<svg xmlns="http://www.w3.org/2000/svg" version="1.1"
     width="67.5471mm" height="70.8824mm" viewBox="0 0 67.5471 70.8824">
  <path d="M 28.3036,0.0973 C 27.7707,0.142 27.2381,0.1155 26.7045,0.1311 C 26.1706,0.1468 25.6431,0.2319 25.1093,0.2486 C 24.5734,0.2654 24.0466,0.2645 23.5119,0.3162 C 22.9793,0.3677 22.4478,0.363 21.915,0.4021 C 21.3826,0.4411 20.8525,0.4836 20.3196,0.5166 C 19.7881,0.5496 19.2561,0.605 18.7251,0.647 C 18.1939,0.689 17.6621,0.7405 17.1317,0.7908 C 16.601,0.841 16.0705,0.9022 15.5414,0.9669 C 14.8799,1.0478 14.614,1.0764 13.9566,1.1863 C 13.4311,1.2741 12.9072,1.3808 12.389,1.5051 C 11.8699,1.6297 11.3598,1.7842 10.8538,1.9538 C 10.0444,2.2249 10.1392,2.1755 9.3608,2.5269 C 8.3908,2.9647 8.8598,2.725 7.9325,3.2472 C 7.3518,3.5742 7.1306,3.7269 6.5929,4.1203 C 5.9065,4.6225 5.9791,4.5547 5.3529,5.1306 C 4.7235,5.7094 4.8229,5.6571 4.2844,6.3192 C 3.8624,6.8379 3.7062,7.0502 3.347,7.6144 C 3.0607,8.0641 2.7862,8.5228 2.5643,9.0083 C 2.3435,9.4918 2.1505,9.9941 1.9831,10.4984 C 1.8148,11.0052 1.6816,11.5214 1.5707,12.0434 C 1.349,13.0872 1.441,12.562 1.2933,13.6188 C 1.2194,14.147 1.1563,14.6767 1.097,15.2067 C 1.0376,15.7371 0.9856,16.267 0.9397,16.7988 C 0.8477,17.8657 0.8587,17.323 0.8267,18.394 C 0.8108,18.9282 0.733,19.4557 0.7104,19.9891 C 0.6879,20.5213 0.7031,21.0566 0.7031,21.5891 C 0.703,22.1255 0.6913,22.6523 0.6397,23.1865 C 0.5572,24.0411 0.5781,23.926 0.5781,24.7841 C 0.5781,25.3174 0.5781,25.8508 0.5781,26.3841 C 0.5781,26.9174 0.5781,27.4508 0.5781,27.9841 C 0.5781,28.5174 0.5798,29.0508 0.5781,29.5841 C 0.5763,30.1217 0.5213,30.6449 0.4798,31.1798 C 0.4385,31.7115 0.4531,32.2464 0.4531,32.7791 C 0.4531,33.3116 0.4381,33.8469 0.4606,34.379 C 0.4945,35.1815 0.5781,35.9687 0.5781,36.7742 C 0.5781,37.3073 0.5861,37.8412 0.5769,38.3742 C 0.5676,38.9096 0.5022,39.4362 0.4341,39.9666 C 0.3661,40.4956 0.2894,41.0233 0.2137,41.5513 C 0.0616,42.613 0.1416,42.0747 0.057,43.1428 C 0.0031,43.8237 -0.0268,44.0553 0.0326,44.7377 C 0.079,45.2709 0.0781,45.8013 0.0781,46.3361 C 0.0781,46.8698 0.0694,47.4026 0.1155,47.9349 C 0.1618,48.4689 0.1866,48.9959 0.2114,49.5311 C 0.251,50.3847 0.2631,50.2774 0.4277,51.1148 C 0.7782,52.8978 0.3254,50.9183 0.821,52.665 C 1.054,53.4861 1.0357,53.3803 1.24,54.2091 C 1.3995,54.8565 1.4553,55.1172 1.5807,55.7722 C 1.681,56.296 1.7665,56.8225 1.8706,57.3456 C 2.0373,58.1829 2.0076,58.0801 2.2317,58.904 C 2.5957,60.2414 2.2219,59.1316 2.7023,60.4327 C 2.8865,60.9318 3.0868,61.4295 3.3144,61.9105 C 3.5436,62.3947 3.8127,62.8515 4.1078,63.298 C 4.4027,63.7443 4.7046,64.1803 5.0482,64.5909 C 5.9384,65.6549 5.0966,64.8387 6.134,65.7637 C 6.5312,66.1178 6.9511,66.4519 7.3752,66.7729 C 7.8012,67.0952 8.2389,67.398 8.6976,67.672 C 9.43,68.1094 9.3406,68.0542 10.1094,68.4237 C 10.5931,68.6562 11.0892,68.8371 11.5975,69.0074 C 12.2311,69.2196 12.4789,69.3114 13.1316,69.4583 C 13.6517,69.5754 14.1767,69.6738 14.7038,69.7533 C 15.2312,69.8329 15.7613,69.8937 16.2905,69.9593 C 16.8199,70.0249 17.3491,70.0889 17.8793,70.1479 C 18.4094,70.2069 18.938,70.2773 19.468,70.3374 C 19.9981,70.3975 20.5279,70.4561 21.0595,70.5009 C 21.5909,70.5457 22.1205,70.6136 22.6541,70.6259 C 23.1911,70.6384 23.7153,70.6667 24.2504,70.7135 C 24.7828,70.7601 25.3153,70.7526 25.8492,70.7526 C 26.3817,70.7526 26.9169,70.7381 27.4491,70.7594 C 28.3028,70.7936 28.1892,70.8573 29.0443,70.8759 C 29.5771,70.8875 30.1113,70.8776 30.6443,70.8776 C 31.1776,70.8776 31.7109,70.8776 32.2443,70.8776 C 32.7776,70.8776 33.3109,70.8776 33.8443,70.8776 C 34.3776,70.8776 34.9109,70.8776 35.4443,70.8776 C 35.9776,70.8776 36.5109,70.8776 37.0443,70.8776 C 37.5769,70.8776 38.1118,70.8914 38.6442,70.8723 C 39.1778,70.853 39.7053,70.7687 40.2394,70.7551 C 40.7721,70.7416 41.3065,70.7526 41.8394,70.7526 C 42.3748,70.7526 42.9038,70.7493 43.4373,70.6986 C 43.972,70.6477 44.4985,70.642 45.0344,70.6219 C 45.5664,70.602 46.0983,70.5342 46.6286,70.4894 C 47.16,70.4445 47.69,70.3824 48.2196,70.3208 C 48.7494,70.2592 49.2782,70.1902 49.8082,70.1298 C 50.3381,70.0693 50.8673,70.0036 51.3966,69.9382 C 52.4549,69.8075 51.9291,69.8934 52.9828,69.7291 C 53.509,69.6472 54.0351,69.5477 54.553,69.4232 C 55.2013,69.2673 55.4521,69.1717 56.0839,68.9602 C 57.8148,68.3808 55.9244,69.1604 57.5639,68.3569 C 58.3304,67.9812 58.2423,68.0415 58.9695,67.5938 C 59.5376,67.244 59.7508,67.083 60.2801,66.6773 C 60.7016,66.3542 61.1233,66.0195 61.5136,65.6588 C 61.9041,65.2979 62.2477,64.8822 62.5845,64.4717 C 62.9233,64.0588 63.2179,63.6144 63.5074,63.1661 C 63.7976,62.7165 64.0565,62.2532 64.2793,61.7665 C 64.556,61.162 64.6559,60.9098 64.8808,60.2842 C 65.0611,59.7826 65.2056,59.2676 65.3403,58.7521 C 65.5088,58.1069 65.5626,57.8456 65.6895,57.191 C 65.791,56.6674 65.8777,56.1411 65.9808,55.6178 C 66.1098,54.9633 66.1664,54.7032 66.33,54.0566 C 66.5395,53.229 66.5182,53.3343 66.7538,52.5138 C 66.9015,51.9998 67.0331,51.4859 67.1317,50.96 C 67.2551,50.3015 67.3021,50.0441 67.3245,49.3737 C 67.3425,48.838 67.3906,48.3123 67.4296,47.7782 C 67.4685,47.2466 67.4531,46.7113 67.4531,46.1788 C 67.4531,45.6421 67.4692,45.1159 67.5137,44.5811 C 67.5859,43.7151 67.5282,43.8485 67.464,42.9857 C 67.4243,42.4515 67.3697,41.926 67.2949,41.3954 C 67.2205,40.8673 67.1455,40.3393 67.0784,39.8102 C 67.0108,39.2785 66.9582,38.753 66.9533,38.2165 C 66.9485,37.6833 66.953,37.1498 66.9531,36.6165 C 66.9531,35.9441 67.0121,35.2905 67.0579,34.621 C 67.0942,34.0895 67.0781,33.5539 67.0781,33.0215 C 67.0781,32.4891 67.0939,31.9536 67.0665,31.4217 C 67.0391,30.888 66.9617,30.3616 66.9538,29.8263 C 66.9459,29.2933 66.9531,28.7595 66.9531,28.2263 C 66.9531,27.693 66.9531,27.1597 66.9531,26.6263 C 66.9531,26.093 66.9531,25.5597 66.9531,25.0263 C 66.9531,24.4925 66.9609,23.96 66.9139,23.4276 C 66.8666,22.8925 66.8286,22.369 66.8281,21.8313 C 66.8275,21.2982 66.837,20.7643 66.8266,20.2313 C 66.8162,19.6967 66.7342,19.1697 66.7106,18.6361 C 66.6727,17.7795 66.6903,17.8946 66.6118,17.0402 C 66.563,16.5087 66.5213,15.9779 66.4618,15.4474 C 66.4024,14.9173 66.3403,14.3877 66.2706,13.8589 C 66.2009,13.3296 66.1146,12.8041 66.0086,12.2809 C 65.9026,11.7573 65.7766,11.2405 65.6198,10.7297 C 65.4633,10.22 65.2769,9.7191 65.0673,9.2288 C 64.8567,8.736 64.5982,8.2735 64.315,7.819 C 64.0329,7.3661 63.7315,6.9261 63.3997,6.5078 C 63.0705,6.0926 62.7323,5.6698 62.3557,5.2962 C 61.9792,4.9228 61.5556,4.585 61.1341,4.2641 C 60.0328,3.4254 61.0013,4.0724 59.8077,3.3708 C 58.614,2.6691 59.6414,3.2218 58.3889,2.6323 C 57.9055,2.4048 57.4102,2.21 56.9063,2.0328 C 56.4027,1.8557 55.8953,1.6937 55.3773,1.5637 C 54.8605,1.434 54.3375,1.3229 53.8131,1.2287 C 53.2879,1.1343 52.7591,1.0656 52.2299,0.9985 C 51.7009,0.9314 51.1707,0.8716 50.6404,0.816 C 50.1102,0.7604 49.5783,0.7157 49.0474,0.6674 C 48.5167,0.6191 47.9843,0.5783 47.4532,0.5342 C 46.9212,0.4901 46.3894,0.4737 45.8575,0.4242 C 45.3256,0.3747 44.7923,0.3858 44.2604,0.3395 C 43.1898,0.2463 43.739,0.2676 42.6641,0.2521 C 42.1285,0.2444 41.6026,0.1678 41.0688,0.1393 C 40.536,0.1109 40.002,0.1438 39.4692,0.1148 C 38.802,0.0786 38.5432,0.0121 37.8739,0.0033 C 37.3407,-0.0037 36.807,0.0026 36.2739,0.0026 C 35.7405,0.0026 35.2072,0.0026 34.6739,0.0026 C 34.1405,0.0026 33.6072,0.0026 33.0739,0.0026 C 32.5405,0.0026 32.0072,0.0026 31.4739,0.0026 C 30.9405,0.0026 30.4072,0.0015 29.8739,0.0026 C 29.2114,0.004 28.9623,0.042 28.3036,0.0973 Z"
        style="fill:#ff00ff;fill-opacity:0.25;stroke:#ff00ff;stroke-width:0.2646;vector-effect:non-scaling-stroke"/>
</svg>
