<?xml version="1.0" encoding="UTF-8" standalone="no"?>
<!-- GERADO por tools/photo_to_outline.py — contorno de thermpro (mm), 300 nós -->
<svg xmlns="http://www.w3.org/2000/svg" version="1.1"
     width="67.6913mm" height="70.9348mm" viewBox="0 0 67.6913 70.9348">
  <path d="M 28.3057,0.0648 C 28.0633,0.0746 27.7489,0.0892 27.5066,0.101 C 27.232,0.1144 26.9821,0.1274 26.7076,0.1422 C 26.4371,0.1568 26.1794,0.1714 25.9089,0.1867 C 25.6165,0.2032 25.4025,0.2155 25.1101,0.2316 C 24.8049,0.2485 24.6165,0.2586 24.3113,0.2748 C 24.127,0.2846 23.6967,0.3073 23.5124,0.3172 C 23.2398,0.3318 22.9862,0.3456 22.7136,0.3612 C 22.446,0.3765 22.1826,0.3922 21.9151,0.4091 C 21.6339,0.4268 21.3978,0.4425 21.1168,0.462 C 20.8696,0.4791 20.566,0.5009 20.3189,0.5193 C 20.031,0.5408 19.809,0.5581 19.5213,0.5812 C 19.2681,0.6015 18.9771,0.6256 18.724,0.6468 C 18.514,0.6644 18.1367,0.6963 17.9268,0.7143 C 17.6779,0.7357 17.3787,0.7617 17.1299,0.7844 C 16.8617,0.809 16.6015,0.8338 16.3336,0.8613 C 16.0633,0.8891 15.8083,0.9171 15.5384,0.9485 C 15.2868,0.9777 14.9955,1.0132 14.7444,1.0461 C 14.4775,1.0811 14.2182,1.1171 13.9524,1.159 C 13.6887,1.2005 13.4265,1.2458 13.1644,1.2969 C 12.8995,1.3485 12.6451,1.4032 12.3826,1.4663 C 12.1219,1.529 11.8669,1.5965 11.6094,1.6713 C 11.355,1.7451 11.0973,1.8266 10.8466,1.9122 C 10.5937,1.9985 10.3444,2.0901 10.0956,2.1875 C 9.851,2.2833 9.5973,2.3887 9.357,2.4949 C 9.1126,2.6029 8.8721,2.7156 8.633,2.835 C 8.3958,2.9534 8.1573,3.0796 7.9266,3.2103 C 7.6939,3.3421 7.4669,3.4792 7.2422,3.6243 C 7.021,3.767 6.7954,3.9219 6.5833,4.0778 C 6.3683,4.2358 6.1587,4.4004 5.9545,4.5721 C 5.7508,4.7434 5.5516,4.9225 5.3596,5.1067 C 5.1689,5.2897 4.9792,5.4841 4.8004,5.6786 C 4.6205,5.8743 4.445,6.0776 4.2772,6.2837 C 4.1104,6.4885 3.9449,6.7042 3.7901,6.9182 C 3.635,7.1324 3.4823,7.3564 3.3395,7.5791 C 3.198,7.8 3.0559,8.0359 2.9274,8.2646 C 2.7971,8.4966 2.6728,8.734 2.5578,8.974 C 2.4426,9.2142 2.3353,9.4591 2.2375,9.7069 C 2.1387,9.957 2.0514,10.2043 1.9712,10.4611 C 1.8899,10.7215 1.8236,10.9672 1.7601,11.2325 C 1.698,11.4917 1.6441,11.7533 1.595,12.0152 C 1.5464,12.2747 1.5021,12.5432 1.4619,12.804 C 1.4212,13.0671 1.3839,13.3321 1.3486,13.596 C 1.3147,13.8493 1.2788,14.1359 1.2482,14.3896 C 1.2163,14.6538 1.1857,14.9198 1.1563,15.1843 C 1.1276,15.443 1.098,15.7209 1.0717,15.9798 C 1.0448,16.2442 1.0188,16.5115 0.9953,16.7762 C 0.9707,17.0522 0.9509,17.2972 0.9308,17.5736 C 0.9118,17.8354 0.8941,18.1098 0.8788,18.3719 C 0.8633,18.638 0.8494,18.9045 0.8374,19.1708 C 0.825,19.4451 0.8154,19.6957 0.8062,19.9702 C 0.7973,20.2395 0.7901,20.5005 0.783,20.7698 C 0.7759,21.0364 0.7693,21.303 0.7622,21.5696 C 0.755,21.8417 0.748,22.0972 0.7401,22.3693 C 0.7306,22.6953 0.7258,22.8429 0.7158,23.1689 C 0.7072,23.4469 0.6996,23.6905 0.6921,23.9685 C 0.6848,24.2383 0.6785,24.4984 0.6733,24.7683 C 0.668,25.0478 0.6647,25.2887 0.6619,25.5682 C 0.6592,25.8348 0.6577,26.1016 0.6565,26.3682 C 0.6552,26.6409 0.6547,26.8955 0.6537,27.1682 C 0.6528,27.444 0.6519,27.6924 0.65,27.9682 C 0.6482,28.2406 0.6458,28.4958 0.6421,28.7682 C 0.6384,29.0397 0.6338,29.2965 0.628,29.568 C 0.622,29.8452 0.6158,30.0906 0.6083,30.3678 C 0.601,30.6382 0.5934,30.897 0.5858,31.1675 C 0.5786,31.425 0.5706,31.7096 0.5648,31.9672 C 0.5587,32.2374 0.5539,32.4968 0.5514,32.7671 C 0.5489,33.036 0.5485,33.2981 0.5506,33.5671 C 0.5527,33.8402 0.557,34.0939 0.5635,34.3669 C 0.5729,34.7668 0.5863,35.1666 0.6023,35.5663 C 0.6133,35.8412 0.6246,36.0907 0.6385,36.3655 C 0.6722,37.0309 0.7246,37.6968 0.7254,38.3634 C 0.7257,38.6348 0.7184,38.8919 0.6976,39.1627 C 0.6766,39.4365 0.6457,39.6856 0.601,39.9565 C 0.556,40.2291 0.504,40.4713 0.4429,40.7406 C 0.3414,41.1884 0.3609,41.0715 0.2593,41.5193 C 0.1985,41.7869 0.1453,42.0324 0.1016,42.3034 C 0.0581,42.5741 0.0289,42.8243 0.0128,43.0981 C -0.0031,43.3699 -0.0028,43.6258 0.0061,43.8978 C 0.0147,44.162 0.0347,44.4327 0.0559,44.6962 C 0.0731,44.9098 0.1076,45.2796 0.1259,45.4931 C 0.1492,45.7655 0.17,46.0178 0.1864,46.2908 C 0.2028,46.5653 0.2132,46.8151 0.2186,47.0901 C 0.224,47.3666 0.2232,47.6135 0.2183,47.89 C 0.213,48.1825 0.2039,48.3973 0.1953,48.6897 C 0.1877,48.9471 0.1787,49.2319 0.181,49.4895 C 0.1834,49.7634 0.1928,50.0156 0.222,50.2881 C 0.2513,50.5617 0.2935,50.8083 0.3569,51.0761 C 0.42,51.3423 0.4958,51.584 0.5843,51.8427 C 0.6699,52.0928 0.7684,52.3457 0.8613,52.5932 C 0.96,52.8562 1.0447,53.0787 1.1339,53.3452 C 1.2208,53.6049 1.2939,53.8466 1.3621,54.1118 C 1.4307,54.3783 1.4825,54.6228 1.5328,54.8932 C 1.582,55.1583 1.6211,55.4163 1.6612,55.6828 C 1.7158,56.0457 1.7228,56.1114 1.7787,56.4741 C 1.8209,56.7479 1.8602,56.9907 1.9088,57.2635 C 1.956,57.5288 2.0051,57.7851 2.0602,58.049 C 2.114,58.3061 2.1742,58.574 2.2368,58.8292 C 2.3008,59.0896 2.3685,59.3445 2.4435,59.602 C 2.5181,59.8581 2.5982,60.1122 2.6852,60.3645 C 2.7731,60.6194 2.8644,60.8637 2.9659,61.1135 C 3.0669,61.3618 3.1731,61.6035 3.2878,61.8458 C 3.4012,62.0851 3.5237,62.3262 3.6504,62.5588 C 3.7774,62.7917 3.9132,63.0244 4.0534,63.2497 C 4.1927,63.4734 4.3435,63.7011 4.4959,63.916 C 4.6523,64.1367 4.8088,64.3433 4.9794,64.5532 C 5.1474,64.7601 5.3225,64.9618 5.5042,65.1568 C 5.6901,65.3566 5.87,65.5365 6.0691,65.723 C 6.265,65.9065 6.4631,66.08 6.6697,66.2513 C 6.8775,66.4235 7.0828,66.5836 7.2991,66.7451 C 7.5103,66.9027 7.7327,67.0609 7.9503,67.2096 C 8.1702,67.3598 8.3939,67.5064 8.6197,67.6476 C 8.8456,67.7888 9.075,67.9258 9.3073,68.0563 C 9.5418,68.188 9.7734,68.3107 10.015,68.4292 C 10.2563,68.5475 10.4954,68.656 10.7436,68.7591 C 10.9905,68.8615 11.2389,68.9554 11.4918,69.0419 C 11.7442,69.1282 11.9993,69.2061 12.2561,69.2778 C 12.5107,69.349 12.774,69.4151 13.0315,69.4744 C 13.2896,69.5338 13.5544,69.5888 13.8147,69.6374 C 14.082,69.6872 14.3348,69.7287 14.604,69.7676 C 14.8756,69.807 15.1248,69.8376 15.3976,69.8684 C 15.6623,69.8983 15.9282,69.9247 16.1933,69.9508 C 16.5171,69.9828 16.6657,69.9961 16.9894,70.0291 C 17.2624,70.057 17.5122,70.0835 17.7848,70.1152 C 18.0635,70.1476 18.3004,70.1775 18.5786,70.2143 C 18.8755,70.2534 19.0745,70.2819 19.3713,70.3223 C 19.6488,70.3601 19.8865,70.3925 20.1645,70.4265 C 20.4349,70.4595 20.6884,70.4878 20.9596,70.5142 C 21.2324,70.5408 21.4835,70.5616 21.7568,70.5816 C 22.0134,70.6003 22.2983,70.618 22.5551,70.6325 C 22.8206,70.6475 23.0885,70.6608 23.3541,70.6726 C 23.6137,70.6841 23.8938,70.695 24.1535,70.7037 C 24.4274,70.7129 24.6793,70.7199 24.9532,70.7263 C 25.2375,70.7329 25.4687,70.7369 25.753,70.7415 C 26.0017,70.7456 26.3043,70.7497 26.5529,70.7542 C 26.8302,70.7592 27.0756,70.7642 27.3527,70.7727 C 27.6375,70.7814 27.8675,70.7906 28.1521,70.804 C 28.4208,70.8166 28.6824,70.8314 28.951,70.8459 C 29.2299,70.861 29.471,70.8745 29.7499,70.8875 C 30.0212,70.9001 30.2778,70.9104 30.5493,70.9183 C 30.8209,70.9262 31.0774,70.931 31.3492,70.9331 C 31.6258,70.9352 31.8725,70.934 32.1491,70.9312 C 32.4263,70.9285 32.6719,70.9238 32.9491,70.9202 C 33.238,70.9164 33.4601,70.9138 33.749,70.9134 C 34.0329,70.9129 34.2652,70.9145 34.549,70.9178 C 34.8988,70.9218 34.9991,70.9248 35.3489,70.9293 C 35.6314,70.9329 35.8665,70.9354 36.1489,70.9347 C 36.4243,70.9341 36.6735,70.931 36.9488,70.9243 C 37.2186,70.9178 37.4787,70.9085 37.7483,70.8967 C 38.0295,70.8845 38.2663,70.8717 38.5473,70.8564 C 38.8312,70.841 39.0622,70.8273 39.3461,70.813 C 39.6301,70.7987 39.8612,70.7883 40.1454,70.7785 C 40.4159,70.7692 40.6745,70.763 40.9451,70.7575 C 41.2122,70.7522 41.4779,70.7485 41.745,70.7442 C 42.0269,70.7397 42.263,70.736 42.5449,70.73 C 42.8183,70.7242 43.0713,70.7177 43.3446,70.7092 C 43.6093,70.7009 43.8794,70.691 44.144,70.6799 C 44.4068,70.6689 44.6805,70.656 44.9431,70.642 C 45.2033,70.6281 45.4818,70.6117 45.7417,70.5939 C 46.0089,70.5757 46.2725,70.5556 46.5392,70.5313 C 46.8097,70.5067 47.0651,70.4799 47.3349,70.4485 C 47.6113,70.4163 47.8528,70.3848 48.1285,70.3478 C 48.3928,70.3123 48.6569,70.2749 48.9211,70.2394 C 49.1976,70.2022 49.4377,70.1708 49.7146,70.1374 C 49.992,70.1039 50.2317,70.0774 50.5096,70.0483 C 50.8019,70.0177 51.0132,69.9976 51.3057,69.969 C 51.5776,69.9424 51.83,69.9183 52.1017,69.889 C 52.3708,69.86 52.6277,69.8303 52.896,69.7939 C 53.1705,69.7567 53.4136,69.7194 53.6864,69.6712 C 53.9476,69.6251 54.2121,69.5727 54.4712,69.5159 C 54.7319,69.4587 54.9907,69.3967 55.2487,69.328 C 55.5063,69.2594 55.7627,69.1849 56.0162,69.1025 C 56.2719,69.0194 56.5188,68.931 56.7688,68.8318 C 57.0163,68.7337 57.2617,68.6268 57.5024,68.5131 C 57.7425,68.3997 57.9821,68.2771 58.2151,68.1499 C 58.4491,68.0223 58.6797,67.8877 58.907,67.7485 C 59.1309,67.6114 59.3621,67.4625 59.5801,67.3162 C 59.7986,67.1695 60.0228,67.0126 60.2352,66.8571 C 60.4475,66.7017 60.6653,66.5356 60.8699,66.3703 C 61.0779,66.2023 61.28,66.0302 61.4778,65.8503 C 61.6746,65.6714 61.8673,65.4851 62.0519,65.2934 C 62.2356,65.1025 62.416,64.9013 62.5863,64.6984 C 62.7583,64.4934 62.9218,64.2848 63.0799,64.0689 C 63.2353,63.8567 63.3897,63.6304 63.5319,63.4091 C 63.6774,63.1825 63.8122,62.9583 63.9442,62.7236 C 64.0741,62.4926 64.1996,62.2535 64.3163,62.0156 C 64.4359,61.7719 64.5426,61.5378 64.6482,61.2878 C 64.7526,61.0407 64.8483,60.795 64.939,60.5426 C 65.0305,60.288 65.1114,60.0419 65.1899,59.7831 C 65.2675,59.5272 65.3384,59.2715 65.4047,59.0125 C 65.4709,58.7543 65.5316,58.4944 65.5882,58.2339 C 65.6453,57.9714 65.6966,57.7137 65.7455,57.4495 C 65.7949,57.1821 65.8374,56.9296 65.8801,56.661 C 65.9281,56.3584 65.9541,56.1729 65.9989,55.8698 C 66.0372,55.6113 66.0769,55.3369 66.1213,55.0793 C 66.1677,54.8097 66.2154,54.5612 66.2784,54.295 C 66.3418,54.0275 66.4091,53.7864 66.4923,53.5243 C 66.5777,53.2553 66.6588,53.0341 66.7573,52.7696 C 66.8431,52.5392 66.9557,52.2522 67.0388,52.0208 C 67.1307,51.7647 67.2132,51.5224 67.2836,51.2594 C 67.3549,50.9932 67.4056,50.7492 67.4432,50.4761 C 67.4806,50.2051 67.4973,49.9522 67.5049,49.6789 C 67.5122,49.4155 67.5061,49.1423 67.4994,48.879 C 67.4872,48.4026 67.4865,48.5559 67.4751,48.0794 C 67.4682,47.7939 67.4648,47.565 67.4677,47.2795 C 67.4704,47.0101 67.4785,46.7489 67.4922,46.4799 C 67.5063,46.2032 67.5247,45.9579 67.5473,45.6818 C 67.5754,45.3397 67.5882,45.227 67.6176,44.8849 C 67.6402,44.6218 67.663,44.351 67.6761,44.0871 C 67.6895,43.8163 67.696,43.5586 67.6873,43.2874 C 67.6785,43.0119 67.6575,42.7638 67.6198,42.4907 C 67.5825,42.2205 67.5328,41.9705 67.4746,41.7042 C 67.4178,41.444 67.3518,41.1849 67.2909,40.9256 C 67.2274,40.6559 67.1717,40.4164 67.1213,40.1439 C 67.0713,39.8733 67.0345,39.6261 67.0075,39.3523 C 66.9808,39.0821 66.9682,38.8251 66.964,38.5537 C 66.9599,38.2855 66.9667,38.0218 66.9769,37.7539 C 66.9922,37.3542 67.0184,36.9549 67.0397,36.5555 C 67.0553,36.2629 67.0658,36.0493 67.0784,35.7565 C 67.1012,35.2237 67.1193,34.6906 67.1298,34.1573 C 67.1353,33.8802 67.1383,33.6346 67.1392,33.3574 C 67.1399,33.0885 67.1383,32.8263 67.1348,32.5574 C 67.1311,32.2813 67.1256,32.0337 67.1188,31.7576 C 67.1129,31.5166 67.1038,31.1989 67.0971,30.9579 C 67.0893,30.6814 67.0822,30.4347 67.0751,30.1582 C 67.0681,29.8877 67.0619,29.629 67.0566,29.3584 C 67.0513,29.0867 67.0473,28.8303 67.0441,28.5585 C 67.0409,28.2844 67.039,28.0326 67.0374,27.7585 C 67.0359,27.494 67.0351,27.2231 67.0342,26.9585 C 67.0332,26.6787 67.0325,26.4384 67.0309,26.1586 C 67.0294,25.9011 67.0273,25.616 67.0242,25.3586 C 67.0208,25.0858 67.0164,24.8315 67.0105,24.5587 C 67.0045,24.28 66.998,24.0376 66.99,23.759 C 66.9821,23.483 66.9741,23.2352 66.9656,22.9593 C 66.9556,22.6341 66.951,22.4849 66.9418,22.1597 C 66.934,21.8803 66.9277,21.6394 66.9205,21.36 C 66.9149,21.1415 66.906,20.7787 66.9,20.5602 C 66.8924,20.2829 66.8853,20.0378 66.8753,19.7606 C 66.8656,19.4898 66.8549,19.232 66.8417,18.9613 C 66.8291,18.7034 66.8134,18.4203 66.7975,18.1626 C 66.7807,17.8924 66.7631,17.6343 66.7424,17.3645 C 66.7215,17.0934 66.6995,16.8381 66.6744,16.5674 C 66.6499,16.3032 66.6229,16.0352 66.5954,15.7713 C 66.5686,15.515 66.5378,15.2321 66.5088,14.976 C 66.478,14.7038 66.4485,14.4534 66.4149,14.1815 C 66.3832,13.926 66.347,13.6432 66.3117,13.3882 C 66.2756,13.1265 66.2363,12.8577 66.1942,12.5969 C 66.152,12.3354 66.106,12.0691 66.0544,11.8093 C 66.0018,11.5439 65.9462,11.2909 65.8789,11.0289 C 65.8119,10.7678 65.7392,10.5171 65.6541,10.2613 C 65.5697,10.0072 65.4769,9.7593 65.3739,9.5122 C 65.2713,9.2662 65.1594,9.0236 65.0399,8.7854 C 64.9201,8.5465 64.7929,8.3133 64.6582,8.0825 C 64.5247,7.8536 64.3817,7.6243 64.2353,7.4035 C 64.0879,7.1814 63.9342,6.9632 63.7745,6.7497 C 63.6169,6.5389 63.447,6.3244 63.2775,6.1229 C 63.1059,5.919 62.928,5.7199 62.7445,5.5266 C 62.5621,5.3346 62.37,5.144 62.1761,4.9638 C 61.9806,4.7822 61.7796,4.6071 61.5728,4.4386 C 61.3649,4.2691 61.155,4.1095 60.9367,3.9537 C 60.7214,3.8001 60.4959,3.6494 60.2718,3.509 C 60.0461,3.3675 59.8155,3.2324 59.5819,3.1042 C 59.3491,2.9765 59.1095,2.8542 58.8703,2.739 C 58.63,2.6234 58.3868,2.5138 58.1414,2.4094 C 57.8957,2.3049 57.6486,2.2062 57.3986,2.1125 C 57.1482,2.0186 56.8979,1.9308 56.6437,1.8479 C 56.3891,1.765 56.1358,1.6885 55.8778,1.6171 C 55.6213,1.5462 55.3615,1.481 55.1021,1.4216 C 54.8405,1.3617 54.5826,1.3087 54.3187,1.2597 C 54.0551,1.2107 53.7948,1.1679 53.5297,1.128 C 53.2704,1.089 52.9972,1.0524 52.7371,1.0194 C 52.489,0.9879 52.1913,0.9527 51.9427,0.9247 C 51.6676,0.8937 51.4227,0.8678 51.1472,0.8405 C 50.8797,0.814 50.6184,0.79 50.3507,0.7661 C 50.1005,0.7438 49.8039,0.7184 49.5536,0.697 C 49.3247,0.6775 48.9854,0.6489 48.7565,0.6298 C 48.5033,0.6087 48.2124,0.5848 47.9591,0.5647 C 47.6807,0.5426 47.44,0.5242 47.1614,0.5038 C 46.9083,0.4851 46.6167,0.4644 46.3635,0.4472 C 46.0902,0.4286 45.8385,0.4123 45.5651,0.3955 C 45.295,0.379 45.0367,0.364 44.7665,0.349 C 44.4915,0.3337 44.2427,0.3205 43.9676,0.306 C 43.655,0.2894 43.4814,0.2805 43.1687,0.2638 C 42.8352,0.2461 42.7035,0.239 42.3699,0.2204 C 42.0715,0.2038 41.8696,0.1922 41.5712,0.1755 C 41.2959,0.1602 41.0477,0.1464 40.7724,0.1319 C 40.5083,0.118 40.2375,0.1043 39.9734,0.0918 C 39.7057,0.0792 39.4419,0.0675 39.1741,0.0572 C 38.8954,0.0465 38.6534,0.0385 38.3746,0.0309 C 38.1143,0.0238 37.8351,0.0178 37.5748,0.0134 C 37.3046,0.0088 37.045,0.0058 36.7748,0.0036 C 36.4966,0.0015 36.2531,0.0007 35.9748,0.0003 C 35.7652,-0.0001 35.3845,0 35.1748,0 C 34.9082,0 34.6415,0 34.3748,0 C 33.9748,0 33.5748,0 33.1748,0 C 32.9082,0 32.6415,0 32.3748,0 C 32.1437,0 31.806,-0.0001 31.5748,0.0005 C 31.3018,0.0011 31.0479,0.0021 30.7749,0.0046 C 30.4991,0.0071 30.2506,0.0104 29.9749,0.0155 C 29.7118,0.0203 29.4382,0.0266 29.1752,0.0342 C 28.8712,0.043 28.612,0.0524 28.3057,0.0648 Z"
        style="fill:#ff00ff;fill-opacity:0.25;stroke:#ff00ff;stroke-width:0.264583;vector-effect:non-scaling-stroke"/>
</svg>
