<?xml version="1.0" encoding="UTF-8" standalone="no"?>
<!-- GERADO por photo_to_outline.py — contorno de thermpro (mm), 308 nós -->
<svg xmlns="http://www.w3.org/2000/svg" version="1.1"
     width="67.9435mm" height="70.9996mm" viewBox="0 0 67.9435 70.9996">
  <path d="M 33.9717,70.9291 C 33.9804,70.9291 33.9891,70.9291 33.9978,70.9291 C 34.2289,70.9279 34.5661,70.898 34.7967,70.8882 C 35.1161,70.8747 35.2772,70.8723 35.5959,70.8976 C 35.9149,70.9229 36.0721,70.9596 36.3913,70.9827 C 36.6624,71.0024 36.9193,71.002 37.1908,70.9959 C 37.4511,70.99 37.7303,70.9783 37.989,70.947 C 38.3066,70.9086 38.4612,70.8608 38.7776,70.8133 C 39.0937,70.7658 39.2547,70.7576 39.5743,70.7512 C 39.6428,70.7498 40.3058,70.7501 40.3743,70.7501 C 40.641,70.7501 40.9077,70.7501 41.1743,70.7501 C 41.441,70.7501 41.7077,70.7501 41.9743,70.7501 C 42.241,70.7501 42.5077,70.7501 42.7743,70.7501 C 42.9461,70.7501 43.4025,70.7518 43.5743,70.7444 C 43.8938,70.7304 44.0522,70.7014 44.3705,70.6694 C 44.6887,70.6373 44.849,70.6293 45.1688,70.6254 C 45.3462,70.6232 45.7913,70.6279 45.9687,70.6224 C 46.2884,70.6126 46.4476,70.5905 46.7656,70.5563 C 47.0837,70.5221 47.2436,70.5126 47.5621,70.4821 C 47.8604,70.4536 48.0595,70.4281 48.3558,70.3833 C 48.6719,70.3354 48.8309,70.3102 49.1401,70.2288 C 49.4296,70.1526 49.6158,70.0718 49.9125,70.0226 C 50.2157,69.9723 50.4047,69.9842 50.7102,69.9893 C 51.0302,69.9946 51.1901,70.0031 51.5101,69.9999 C 51.8063,69.9969 52.014,69.9925 52.3083,69.9553 C 52.5585,69.9237 52.8478,69.8595 53.0962,69.8173 C 53.4117,69.7638 53.5714,69.7497 53.8871,69.6972 C 54.2027,69.6448 54.3589,69.6088 54.6712,69.5395 C 54.825,69.5053 55.2982,69.3993 55.4514,69.3626 C 55.6947,69.3042 55.9851,69.2303 56.2242,69.1563 C 56.5298,69.0616 56.6783,69.0006 56.9762,68.8842 C 57.0412,68.8588 57.6558,68.6171 57.7192,68.5879 C 57.9998,68.4586 58.1536,68.3575 58.4112,68.1885 C 58.6788,68.013 58.8068,67.9165 59.0761,67.7437 C 59.3455,67.571 59.4884,67.498 59.7603,67.3292 C 60.032,67.1606 60.1591,67.0623 60.4171,66.8734 C 60.4261,66.8668 61.0552,66.4096 61.0641,66.4028 C 61.3173,66.2073 61.4313,66.0939 61.6718,65.883 C 61.7986,65.7718 62.1528,65.4741 62.2738,65.3563 C 62.4843,65.1516 62.6201,64.986 62.7949,64.7506 C 62.8422,64.6868 63.2069,64.1595 63.253,64.0949 C 63.3416,63.9708 63.6378,63.5741 63.7226,63.4473 C 63.9004,63.1814 63.9731,63.0378 64.1239,62.7558 C 64.2496,62.5206 64.3783,62.2871 64.5034,62.0516 C 64.6534,61.7692 64.7211,61.6235 64.8413,61.3272 C 64.8479,61.311 65.1255,60.5982 65.1314,60.5817 C 65.2388,60.2805 65.2746,60.1236 65.3532,59.8137 C 65.4317,59.5035 65.4749,59.3494 65.5646,59.0423 C 65.6542,58.7352 65.7019,58.5818 65.766,58.2684 C 65.8238,57.9854 65.8518,57.7645 65.8946,57.479 C 65.942,57.1625 65.9674,57.0045 66.023,56.6894 C 66.0785,56.3744 66.1061,56.2166 66.1479,55.8994 C 66.1629,55.7859 66.2339,55.2194 66.2455,55.1054 C 66.2779,54.7871 66.2771,54.6264 66.3071,54.3079 C 66.3281,54.085 66.3733,53.7354 66.4206,53.5163 C 66.4877,53.2059 66.533,53.0427 66.7026,52.7742 C 66.8228,52.5839 67.0674,52.3284 67.2053,52.1524 C 67.362,51.9526 67.5347,51.7161 67.626,51.4756 C 67.7388,51.1787 67.7299,51.005 67.7359,50.6892 C 67.7383,50.5595 67.7368,50.0189 67.7305,49.8893 C 67.7168,49.6105 67.6829,49.3704 67.6487,49.0937 C 67.6262,48.9115 67.5702,48.4823 67.5558,48.2992 C 67.5319,47.9961 67.535,47.8034 67.5342,47.4998 C 67.534,47.388 67.5336,46.8116 67.537,46.6998 C 67.5466,46.3801 67.5647,46.2205 67.6021,45.9029 C 67.6187,45.7614 67.6831,45.2504 67.7059,45.1097 C 67.7484,44.8464 67.8152,44.5874 67.8547,44.3237 C 67.8938,44.0622 67.9075,43.7905 67.9216,43.5269 C 67.936,43.2593 67.9517,42.9957 67.9385,42.7275 C 67.927,42.4924 67.8853,42.1649 67.8338,41.9351 C 67.7699,41.6499 67.7008,41.4443 67.5665,41.1841 C 67.4198,40.8998 67.2955,40.7866 67.1464,40.5036 C 67.0008,40.2272 66.9458,40.0558 66.9312,39.7424 C 66.9129,39.3499 67.0022,38.9372 67.0507,38.5494 C 67.0772,38.3378 67.1256,37.9675 67.1411,37.7546 C 67.1623,37.4625 67.1588,37.2477 67.1592,36.9551 C 67.1599,36.5547 67.1521,36.1553 67.187,35.7559 C 67.1986,35.6231 67.2182,35.4911 67.2322,35.3585 C 67.2657,35.0405 67.2782,34.8804 67.2836,34.5607 C 67.2845,34.511 67.2842,33.8104 67.2842,33.7607 C 67.2842,33.494 67.2842,33.2274 67.2842,32.9607 C 67.2842,32.694 67.2857,32.4274 67.2842,32.1607 C 67.2826,31.8408 67.283,31.6802 67.255,31.3616 C 67.2303,31.0814 67.1866,30.8472 67.1733,30.5659 C 67.1582,30.2464 67.1828,30.0863 67.19,29.7665 C 67.1972,29.4467 67.1833,29.2867 67.1713,28.967 C 67.1592,28.6473 67.1595,28.4872 67.1592,28.1672 C 67.159,27.9006 67.1592,27.6339 67.1592,27.3672 C 67.1592,27.1006 67.1592,26.8339 67.1592,26.5672 C 67.1592,26.3006 67.1592,26.0339 67.1592,25.7672 C 67.1592,25.5006 67.1592,25.2339 67.1592,24.9672 C 67.1592,24.7006 67.1606,24.4339 67.1592,24.1672 C 67.1577,23.8474 67.1585,23.6868 67.1301,23.3682 C 67.1016,23.0495 67.0665,22.892 67.0466,22.5727 C 67.0312,22.3233 67.0344,22.0225 67.0342,21.7729 C 67.0341,21.5062 67.0342,21.2396 67.0342,20.9729 C 67.0342,20.7062 67.0342,20.4396 67.0342,20.1729 C 67.0342,20.1099 67.0346,19.436 67.0332,19.3729 C 67.026,19.0532 67.0085,18.8936 66.9743,18.5756 C 66.9401,18.2575 66.9279,18.0979 66.9032,17.779 C 66.8785,17.46 66.8539,17.3016 66.8228,16.9832 C 66.7917,16.6649 66.7884,16.5044 66.7843,16.1846 C 66.7806,15.8936 66.7888,15.6755 66.7576,15.3854 C 66.7234,15.0677 66.6764,14.9124 66.5975,14.6028 C 66.5186,14.2931 66.4686,14.1385 66.4338,13.8208 C 66.4007,13.5182 66.4155,13.3251 66.408,13.0216 C 66.4001,12.7038 66.3938,12.5395 66.3422,12.2253 C 66.3136,12.0509 66.2129,11.6154 66.1745,11.4431 C 66.1164,11.1827 66.063,10.9217 65.99,10.6648 C 65.9498,10.5232 65.7906,10.0432 65.7435,9.9038 C 65.6412,9.6011 65.593,9.4466 65.4504,9.1606 C 65.3314,8.9221 65.1925,8.6938 65.0716,8.4562 C 64.9266,8.1713 64.8658,8.0209 64.6894,7.7543 C 64.5462,7.5377 64.3639,7.3227 64.206,7.1172 C 64.0112,6.8634 63.9223,6.7301 63.7397,6.4674 C 63.5621,6.2118 63.4612,6.0657 63.2673,5.822 C 63.1137,5.629 62.9157,5.3946 62.7377,5.2231 C 62.5075,5.0013 62.3714,4.9133 62.1172,4.7194 C 61.8629,4.5254 61.7402,4.4224 61.4991,4.2123 C 61.2581,4.0023 61.1398,3.8923 60.8759,3.712 C 60.7297,3.6121 60.3469,3.3827 60.1941,3.2936 C 59.9178,3.1325 59.7774,3.0547 59.4889,2.9167 C 59.2483,2.8017 59.0033,2.6961 58.7627,2.5811 C 58.4742,2.4431 58.3346,2.362 58.0353,2.2491 C 57.7532,2.1427 57.5588,2.102 57.2734,2.0057 C 56.9703,1.9034 56.8248,1.8352 56.529,1.7134 C 56.2396,1.5943 56.0813,1.5208 55.7753,1.4491 C 55.5285,1.3912 55.2345,1.3664 54.9847,1.3284 C 54.6684,1.2802 54.5123,1.2436 54.1975,1.1865 C 53.9799,1.147 53.6273,1.0867 53.4081,1.0571 C 53.1955,1.0285 52.8261,0.9928 52.613,0.9687 C 52.2951,0.9328 52.1365,0.9097 51.8176,0.8847 C 51.4986,0.8597 51.3386,0.8527 51.0205,0.8181 C 50.7024,0.7835 50.5434,0.7661 50.2252,0.7317 C 50.0876,0.7168 49.5682,0.655 49.43,0.6446 C 49.111,0.6206 48.9504,0.6304 48.6305,0.6247 C 48.3108,0.619 48.1504,0.611 47.8326,0.5748 C 47.5513,0.5428 47.3208,0.5026 47.0403,0.4644 C 46.751,0.425 46.5367,0.3968 46.2448,0.3826 C 46.0412,0.3727 45.6487,0.3752 45.4449,0.3751 C 45.2161,0.375 44.8738,0.3776 44.6451,0.3647 C 44.3257,0.3467 44.1679,0.3136 43.8494,0.284 C 43.5309,0.2544 43.3703,0.2541 43.0505,0.2501 C 42.7307,0.2462 42.57,0.2485 42.2515,0.2201 C 41.9328,0.1916 41.7752,0.1572 41.4558,0.1377 C 41.1775,0.1206 40.9347,0.1271 40.6561,0.1251 C 40.3363,0.1228 40.1757,0.1215 39.8572,0.0923 C 39.5386,0.0631 39.3809,0.0296 39.0614,0.0111 C 38.8288,-0.0024 38.4944,0.0003 38.2616,0.0001 C 37.995,0 37.7283,0.0001 37.4616,0.0001 C 37.195,0.0001 36.9283,0.0001 36.6616,0.0001 C 36.395,0.0001 36.1283,0.0001 35.8616,0.0001 C 35.595,0.0001 35.3283,0.0001 35.0616,0.0001 C 34.795,0.0001 34.5283,0.0001 34.2616,0.0001 C 34.165,0.0001 34.0684,0.0001 33.9717,0.0001 C 33.8751,0.0001 33.7785,0.0001 33.6819,0.0001 C 33.4152,0.0001 33.1485,0.0001 32.8819,0.0001 C 32.6152,0.0001 32.3485,0.0001 32.0819,0.0001 C 31.8152,0.0001 31.5485,0.0001 31.2819,0.0001 C 31.0152,0.0001 30.7485,0.0001 30.4819,0.0001 C 30.2152,0.0001 29.9485,0 29.6819,0.0001 C 29.4491,0.0003 29.1147,-0.0024 28.8821,0.0111 C 28.5626,0.0296 28.4049,0.0631 28.0863,0.0923 C 27.7678,0.1215 27.6072,0.1228 27.2874,0.1251 C 27.0088,0.1271 26.766,0.1206 26.4876,0.1377 C 26.1683,0.1572 26.0107,0.1916 25.692,0.2201 C 25.3734,0.2485 25.2128,0.2462 24.893,0.2501 C 24.5732,0.2541 24.4126,0.2544 24.0941,0.284 C 23.7756,0.3136 23.6178,0.3467 23.2984,0.3647 C 23.0697,0.3776 22.7274,0.375 22.4985,0.3751 C 22.2948,0.3752 21.9023,0.3727 21.6987,0.3826 C 21.4067,0.3968 21.1925,0.425 20.9032,0.4644 C 20.6227,0.5026 20.3922,0.5428 20.1109,0.5748 C 19.7931,0.611 19.6327,0.619 19.313,0.6247 C 18.9931,0.6304 18.8325,0.6206 18.5135,0.6446 C 18.3753,0.655 17.8559,0.7168 17.7183,0.7317 C 17.4001,0.7661 17.2411,0.7835 16.923,0.8181 C 16.6049,0.8527 16.4449,0.8597 16.1259,0.8847 C 15.8069,0.9097 15.6484,0.9328 15.3305,0.9687 C 15.1174,0.9928 14.748,1.0285 14.5354,1.0571 C 14.3162,1.0867 13.9636,1.147 13.746,1.1865 C 13.4311,1.2436 13.2751,1.2802 12.9588,1.3284 C 12.709,1.3664 12.415,1.3912 12.1682,1.4491 C 11.8622,1.5208 11.7039,1.5943 11.4145,1.7134 C 11.1187,1.8352 10.9732,1.9034 10.6701,2.0057 C 10.3847,2.102 10.1903,2.1427 9.9082,2.2491 C 9.6089,2.362 9.4693,2.4431 9.1808,2.5811 C 8.9402,2.6961 8.6952,2.8017 8.4546,2.9167 C 8.1661,3.0547 8.0257,3.1325 7.7494,3.2936 C 7.5966,3.3827 7.2138,3.6121 7.0676,3.712 C 6.8036,3.8923 6.6854,4.0023 6.4444,4.2123 C 6.2033,4.4224 6.0806,4.5254 5.8263,4.7194 C 5.5721,4.9133 5.4359,5.0013 5.2057,5.2231 C 5.0278,5.3946 4.8298,5.629 4.6762,5.822 C 4.4823,6.0657 4.3814,6.2118 4.2038,6.4674 C 4.0212,6.7301 3.9323,6.8634 3.7374,7.1172 C 3.5796,7.3227 3.3973,7.5377 3.254,7.7543 C 3.0777,8.0209 3.0169,8.1713 2.8719,8.4562 C 2.751,8.6938 2.6121,8.9221 2.4931,9.1606 C 2.3505,9.4466 2.3023,9.6011 2.2,9.9038 C 2.1529,10.0432 1.9937,10.5232 1.9535,10.6648 C 1.8805,10.9217 1.8271,11.1827 1.769,11.4431 C 1.7305,11.6154 1.6299,12.0509 1.6013,12.2253 C 1.5497,12.5395 1.5434,12.7038 1.5355,13.0216 C 1.528,13.3251 1.5428,13.5182 1.5097,13.8208 C 1.4748,14.1385 1.4249,14.2931 1.346,14.6028 C 1.2671,14.9124 1.2201,15.0677 1.1859,15.3854 C 1.1547,15.6755 1.1629,15.8936 1.1592,16.1846 C 1.1551,16.5044 1.1518,16.6649 1.1207,16.9832 C 1.0896,17.3016 1.0649,17.46 1.0403,17.779 C 1.0156,18.0979 1.0033,18.2575 0.9691,18.5756 C 0.935,18.8936 0.9175,19.0532 0.9103,19.3729 C 0.9089,19.436 0.9092,20.1099 0.9092,20.1729 C 0.9092,20.4396 0.9092,20.7062 0.9092,20.9729 C 0.9092,21.2396 0.9094,21.5062 0.9092,21.7729 C 0.9091,22.0225 0.9123,22.3233 0.8968,22.5727 C 0.877,22.892 0.8419,23.0495 0.8134,23.3682 C 0.785,23.6868 0.7858,23.8474 0.7842,24.1672 C 0.7829,24.4339 0.7842,24.7006 0.7842,24.9672 C 0.7842,25.2339 0.7842,25.5006 0.7842,25.7672 C 0.7842,26.0339 0.7842,26.3006 0.7842,26.5672 C 0.7842,26.8339 0.7842,27.1006 0.7842,27.3672 C 0.7842,27.6339 0.7845,27.9006 0.7842,28.1672 C 0.784,28.4872 0.7843,28.6473 0.7722,28.967 C 0.7602,29.2867 0.7463,29.4467 0.7535,29.7665 C 0.7607,30.0863 0.7853,30.2464 0.7702,30.5659 C 0.7569,30.8472 0.7132,31.0814 0.6885,31.3616 C 0.6605,31.6802 0.6609,31.8408 0.6592,32.1607 C 0.6578,32.4274 0.6592,32.694 0.6592,32.9607 C 0.6592,33.2274 0.6592,33.494 0.6592,33.7607 C 0.6592,33.8104 0.659,34.511 0.6599,34.5607 C 0.6653,34.8804 0.6778,35.0405 0.7113,35.3585 C 0.7253,35.4911 0.7449,35.6231 0.7565,35.7559 C 0.7914,36.1553 0.7836,36.5547 0.7842,36.9551 C 0.7847,37.2477 0.7812,37.4625 0.8024,37.7546 C 0.8179,37.9675 0.8663,38.3378 0.8928,38.5494 C 0.9413,38.9372 1.0306,39.3499 1.0123,39.7424 C 0.9977,40.0558 0.9426,40.2272 0.7971,40.5036 C 0.648,40.7866 0.5237,40.8998 0.377,41.1841 C 0.2427,41.4443 0.1736,41.6499 0.1096,41.9351 C 0.0581,42.1649 0.0165,42.4924 0.0049,42.7275 C -0.0082,42.9957 0.0075,43.2593 0.0218,43.5269 C 0.036,43.7905 0.0496,44.0622 0.0888,44.3237 C 0.1283,44.5874 0.1951,44.8464 0.2376,45.1097 C 0.2604,45.2504 0.3248,45.7614 0.3414,45.9029 C 0.3788,46.2205 0.3969,46.3801 0.4065,46.6998 C 0.4099,46.8116 0.4095,47.388 0.4092,47.4998 C 0.4084,47.8034 0.4116,47.9961 0.3877,48.2992 C 0.3733,48.4823 0.3173,48.9115 0.2948,49.0937 C 0.2606,49.3704 0.2267,49.6105 0.213,49.8893 C 0.2067,50.0189 0.2052,50.5595 0.2076,50.6892 C 0.2136,51.005 0.2047,51.1787 0.3175,51.4756 C 0.4088,51.7161 0.5815,51.9526 0.7382,52.1524 C 0.8761,52.3284 1.1207,52.5839 1.2409,52.7742 C 1.4105,53.0427 1.4558,53.2059 1.5228,53.5163 C 1.5702,53.7354 1.6154,54.085 1.6364,54.3079 C 1.6664,54.6264 1.6656,54.7871 1.698,55.1054 C 1.7096,55.2194 1.7806,55.7859 1.7956,55.8994 C 1.8374,56.2166 1.865,56.3744 1.9205,56.6894 C 1.9761,57.0045 2.0015,57.1625 2.0489,57.479 C 2.0917,57.7645 2.1197,57.9854 2.1775,58.2684 C 2.2416,58.5818 2.2893,58.7352 2.3789,59.0423 C 2.4686,59.3494 2.5118,59.5035 2.5903,59.8137 C 2.6688,60.1236 2.7046,60.2805 2.8121,60.5817 C 2.818,60.5982 3.0956,61.311 3.1022,61.3272 C 3.2224,61.6235 3.2901,61.7692 3.4401,62.0516 C 3.5652,62.2871 3.6939,62.5206 3.8196,62.7558 C 3.9704,63.0378 4.0431,63.1814 4.2209,63.4473 C 4.3057,63.5741 4.6019,63.9708 4.6904,64.0949 C 4.7366,64.1595 5.1013,64.6868 5.1486,64.7506 C 5.3234,64.986 5.4592,65.1516 5.6696,65.3563 C 5.7907,65.4741 6.1449,65.7718 6.2717,65.883 C 6.5122,66.0939 6.6262,66.2073 6.8794,66.4028 C 6.8883,66.4096 7.5173,66.8668 7.5263,66.8734 C 7.7844,67.0623 7.9115,67.1606 8.1832,67.3292 C 8.4551,67.498 8.598,67.571 8.8674,67.7437 C 9.1367,67.9165 9.2647,68.013 9.5323,68.1885 C 9.7899,68.3575 9.9437,68.4586 10.2242,68.5879 C 10.2877,68.6171 10.9023,68.8588 10.9673,68.8842 C 11.2652,69.0006 11.4137,69.0616 11.7193,69.1563 C 11.9584,69.2303 12.2488,69.3042 12.4921,69.3626 C 12.6453,69.3993 13.1184,69.5053 13.2723,69.5395 C 13.5846,69.6088 13.7408,69.6448 14.0564,69.6972 C 14.3721,69.7497 14.5318,69.7638 14.8473,69.8173 C 15.0957,69.8595 15.385,69.9237 15.6352,69.9553 C 15.9295,69.9925 16.1372,69.9969 16.4334,69.9999 C 16.7533,70.0031 16.9133,69.9946 17.2333,69.9893 C 17.5388,69.9842 17.7278,69.9723 18.031,70.0226 C 18.3277,70.0718 18.5139,70.1526 18.8034,70.2288 C 19.1126,70.3102 19.2715,70.3354 19.5877,70.3833 C 19.8839,70.4281 20.0831,70.4536 20.3814,70.4821 C 20.6999,70.5126 20.8598,70.5221 21.1779,70.5563 C 21.4959,70.5905 21.6551,70.6126 21.9748,70.6224 C 22.1522,70.6279 22.5973,70.6232 22.7747,70.6254 C 23.0945,70.6293 23.2548,70.6373 23.573,70.6694 C 23.8913,70.7014 24.0496,70.7304 24.3692,70.7444 C 24.541,70.7518 24.9974,70.7501 25.1692,70.7501 C 25.4358,70.7501 25.7025,70.7501 25.9692,70.7501 C 26.2358,70.7501 26.5025,70.7501 26.7692,70.7501 C 27.0358,70.7501 27.3025,70.7501 27.5692,70.7501 C 27.6377,70.7501 28.3007,70.7498 28.3692,70.7512 C 28.6888,70.7576 28.8498,70.7658 29.1659,70.8133 C 29.4823,70.8608 29.6368,70.9086 29.9545,70.947 C 30.2132,70.9783 30.4924,70.99 30.7527,70.9959 C 31.0242,71.002 31.2811,71.0024 31.5522,70.9827 C 31.8713,70.9596 32.0286,70.9229 32.3476,70.8976 C 32.6663,70.8723 32.8274,70.8747 33.1468,70.8882 C 33.3774,70.898 33.7146,70.9279 33.9457,70.9291 C 33.9544,70.9291 33.9631,70.9291 33.9717,70.9291 Z"
        style="fill:#ff00ff;fill-opacity:0.25;stroke:#ff00ff;stroke-width:0.2646;vector-effect:non-scaling-stroke"/>
</svg>
