<?xml version="1.0" encoding="UTF-8" standalone="no"?>
<!-- GERADO por photo_to_outline.py — contorno de trena (mm), 53 nós -->
<svg xmlns="http://www.w3.org/2000/svg" version="1.1"
     width="72.251mm" height="59.5318mm" viewBox="0 0 72.251 59.5318">
  <path d="M 38.7171,0.1175 C 37.7838,0.1566 36.855,0.1986 35.9221,0.2451 C 33.6646,0.3577 31.394,0.5576 29.1462,0.7995 C 27.691,0.956 26.2292,1.1449 24.787,1.3945 C 23.4897,1.6191 22.1306,1.8538 20.9388,2.4395 C 20.6277,2.5923 20.8862,2.4546 20.5863,2.6283 C 19.2891,3.3795 18.4092,4.5562 17.3657,5.5967 C 15.9987,6.9598 14.4551,7.8389 12.7186,8.6489 C 10.6252,9.6254 10.5294,9.1698 9.1127,11.0841 C 8.8167,11.484 8.7086,11.6629 8.5156,12.1219 C 7.3125,14.9836 7.6895,12.4576 8.759,15.2018 C 9.7426,17.7258 8.6629,19.7081 7.1173,21.7722 C 6.2314,22.9554 5.4958,24.2011 4.7591,25.4808 C 3.8249,27.1036 3.3536,27.6186 3.0572,29.5003 C 2.8939,30.5368 2.887,31.6416 2.8377,32.6903 C 2.769,34.1511 2.5925,35.6182 2.3979,37.0672 C 2.1991,38.5472 1.74,39.9028 1.118,41.2551 C -0.1747,44.0655 -0.2577,41.5658 0.411,44.7179 C 0.4683,44.9879 0.5595,45.2215 0.6751,45.4711 C 1.6367,47.5467 1.7914,47.3476 3.5719,48.7358 C 5.9292,50.5735 4.7175,49.6103 7.3985,50.8802 C 8.7441,51.5176 9.964,52.2558 11.1643,53.1353 C 12.385,54.0297 13.6703,54.5872 15.1527,54.8856 C 16.5928,55.1755 18.059,55.2733 19.5188,55.4104 C 20.9788,55.5475 22.4377,55.7022 23.8967,55.8501 C 25.3558,55.9981 26.8165,56.1304 28.276,56.2748 C 30.9299,56.5375 33.5801,56.83 36.2303,57.126 C 38.0523,57.3294 38.7812,57.4105 40.6032,57.6135 C 42.0611,57.776 43.5167,57.951 44.9722,58.1342 C 46.4278,58.3173 47.881,58.5085 49.3336,58.7139 C 50.7842,58.9189 52.2343,59.167 53.6902,59.3302 C 55.1459,59.4934 56.6169,59.5711 58.081,59.5129 C 59.6936,59.4487 60.5571,59.608 61.9164,58.606 C 62.0236,58.5269 62.125,58.4397 62.2209,58.3472 C 63.5329,57.082 63.4329,56.0033 63.7502,54.2948 C 64.0858,52.4884 64.0614,51.7502 64.3288,49.9345 C 64.6368,47.8436 65.032,45.6546 66.3138,43.9274 C 67.3112,42.5835 67.8174,42.1275 68.4313,40.5515 C 68.4796,40.4272 68.5243,40.3015 68.5655,40.1747 C 69.1902,38.2529 68.8496,36.1941 69.3934,34.2528 C 69.7896,32.8382 70.412,31.5023 70.8841,30.1145 C 71.2959,28.9037 71.2849,29.064 71.5838,27.8197 C 71.9315,26.3726 72.0061,24.9367 72.1465,23.4637 C 72.2819,22.044 72.3452,20.4743 71.9562,19.0902 C 71.5563,17.6676 70.6742,16.4545 69.8466,15.2541 C 68.4095,13.1696 67.1774,10.941 65.7201,8.8733 C 64.7923,7.5569 63.5074,6.5697 62.5485,5.2802 C 61.6772,4.1084 61.0976,2.6985 59.945,1.7583 C 59.7295,1.5825 59.526,1.4461 59.2828,1.3115 C 57.6074,0.3839 57.6948,0.6281 55.8163,0.43 C 54.3679,0.2772 52.8839,0.1644 51.4287,0.1276 C 49.9606,0.0904 48.5044,0 47.0337,0 C 45.7004,0 44.3671,0 43.0337,0 C 41.225,0 40.5207,0.0419 38.7171,0.1175 Z"
        style="fill:#ff00ff;fill-opacity:0.25;stroke:#ff00ff;stroke-width:0.2646;vector-effect:non-scaling-stroke"/>
</svg>
