<?xml version="1.0" encoding="UTF-8" standalone="no"?>
<!-- GERADO por photo_to_outline.py — contorno de trena (mm), 70 nós -->
<svg xmlns="http://www.w3.org/2000/svg" version="1.1"
     width="61.118mm" height="65.6248mm" viewBox="0 0 61.118 65.6248">
  <path d="M 7.6241,0.0705 C 7.4017,0.1831 7.4623,0.5426 7.399,0.7837 C 6.9863,2.3576 6.596,3.9372 6.1964,5.5145 C 6.0973,5.9055 5.9978,6.2965 5.9028,6.6886 C 5.8428,6.9365 5.7025,7.1809 5.7312,7.4344 C 5.8074,8.1094 6.0601,8.7526 6.2107,9.415 C 6.3381,9.9758 6.5022,10.532 6.5651,11.1037 C 6.6556,11.9265 6.5992,12.7599 6.6693,13.5847 C 6.7105,14.0685 6.6484,14.6071 6.8987,15.0232 C 7.3301,15.7403 8.3121,16.0677 8.6291,16.8423 C 8.7929,17.2424 8.3484,17.6657 8.1339,18.041 C 7.9279,18.4016 7.6121,18.6882 7.3782,19.0313 C 7.0181,19.5595 6.6874,20.1072 6.3537,20.6523 C 5.9056,21.3842 5.4459,22.1101 5.0327,22.8623 C 4.6923,23.482 4.3681,24.1127 4.0946,24.7647 C 3.7373,25.6159 3.4459,26.4935 3.143,27.3655 C 2.9757,27.8472 2.8274,28.3355 2.6843,28.8249 C 2.5146,29.4059 2.338,29.9858 2.2048,30.5762 C 2.0806,31.1268 1.9883,31.6847 1.913,32.2441 C 1.8422,32.7697 1.8136,33.3002 1.767,33.8286 C 1.7283,34.2676 1.6885,34.7065 1.6568,35.1461 C 1.6344,35.4585 1.6107,35.7712 1.6047,36.0843 C 1.5933,36.6836 1.7877,37.3117 1.6047,37.8825 C 1.4303,38.4263 0.7264,38.7067 0.5864,39.2603 C 0.3063,40.3675 0.4704,41.5416 0.3909,42.6808 C 0.3401,43.4095 0.2578,44.1356 0.1955,44.8634 C 0.1275,45.6558 -0.0067,46.4461 0,47.2414 C 0.0042,47.7466 -0.0257,48.303 0.228,48.7399 C 0.5904,49.3641 1.2678,49.7423 1.7591,50.271 C 2.2674,50.818 2.7382,51.3987 3.225,51.9649 C 3.7372,52.5606 4.2227,53.1798 4.7561,53.7566 C 5.1575,54.1907 5.545,54.6513 6.0265,54.9944 C 6.4261,55.2792 7.0339,55.2487 7.3621,55.6134 C 7.6746,55.9605 7.6186,56.5128 7.7856,56.949 C 8.01,57.5349 8.2307,58.1268 8.5348,58.6755 C 9.5463,60.4999 10.6058,62.299 11.7269,64.0581 C 11.9685,64.4371 12.1998,64.8974 12.613,65.0744 C 13.3572,65.3934 14.208,65.3576 15.0105,65.4654 C 15.5032,65.5315 15.9991,65.5842 16.496,65.5957 C 18.1434,65.6337 19.7917,65.6285 21.4395,65.6139 C 22.2821,65.6064 23.1241,65.5655 23.9659,65.5292 C 25.2311,65.4747 26.4965,65.4206 27.7604,65.3416 C 28.8317,65.2746 29.9015,65.183 30.971,65.0914 C 32.4173,64.9675 33.8646,64.8533 35.3075,64.6953 C 36.7839,64.5336 38.2555,64.3303 39.7274,64.1324 C 40.2709,64.0593 40.8129,63.9743 41.3536,63.8822 C 42.9326,63.613 44.5156,63.363 46.0862,63.0482 C 48.1579,62.6331 50.232,62.2198 52.2782,61.6931 C 53.287,61.4334 54.306,61.1562 55.2387,60.6924 C 55.6347,60.4954 56.0064,60.1623 56.1769,59.7542 C 56.5082,58.9607 56.533,58.0714 56.6865,57.2253 C 57.5851,52.274 58.5537,47.334 59.3333,42.3626 C 59.7249,39.8655 59.9334,37.343 60.1986,34.8294 C 60.3576,33.3217 60.4973,31.8116 60.6058,30.2993 C 60.7248,28.6398 60.8436,26.979 60.8808,25.3157 C 60.9972,20.1242 61.2183,14.929 61.0666,9.7385 C 61.0483,9.1111 60.7777,8.4684 60.3744,7.9875 C 60.027,7.5733 59.4567,7.3999 58.9492,7.2138 C 58.6283,7.0962 58.2725,7.1093 57.9312,7.0917 C 56.8717,7.0369 55.8103,7.0292 54.7499,6.9966 C 48.8901,6.8162 43.0304,6.6365 37.1707,6.4529 C 34.1072,6.3568 31.044,6.2514 27.9804,6.1574 C 25.5989,6.0843 23.2169,6.028 20.8356,5.9515 C 17.6421,5.849 14.4495,5.7217 11.256,5.6206 C 10.5265,5.5975 9.7958,5.5421 9.0669,5.5789 C 8.7264,5.596 8.4053,5.7778 8.0644,5.7813 C 7.8759,5.7832 7.6695,5.722 7.5307,5.5945 C 7.4249,5.4974 7.3847,5.3221 7.4106,5.1809 C 7.6635,3.8024 8.059,2.4538 8.358,1.0846 C 8.4194,0.8031 8.6603,0.464 8.4914,0.2306 C 8.319,-0.0076 7.8864,-0.0623 7.6241,0.0705 Z"
        style="fill:#ff00ff;fill-opacity:0.25;stroke:#ff00ff;stroke-width:0.2646;vector-effect:non-scaling-stroke"/>
</svg>
