<?xml version="1.0" encoding="UTF-8" standalone="no"?>
<!-- GERADO por photo_to_outline.py — contorno de trena (mm), 180 nós -->
<svg xmlns="http://www.w3.org/2000/svg" version="1.1"
     width="64.5065mm" height="60.5084mm" viewBox="0 0 64.5065 60.5084">
  <path d="M 7.5378,0.4278 C 6.913,0.9356 7.1368,0.6617 6.8942,1.4204 C 6.771,1.8059 6.7592,2.2067 6.7539,2.6072 C 6.7487,3.0066 6.7484,3.408 6.7781,3.8066 C 6.8078,4.2055 6.867,4.6017 6.9165,4.9984 C 6.9659,5.3954 7.0155,5.7923 7.0646,6.1892 C 7.1137,6.5859 7.1587,6.9841 7.2223,7.3788 C 7.286,7.7736 7.3688,8.1656 7.4703,8.5524 C 7.5719,8.9394 7.6953,9.3201 7.8081,9.7038 C 7.9206,10.0867 8.0343,10.4724 8.1181,10.8629 C 8.2026,11.2563 8.2514,11.6506 8.2261,12.0537 C 8.201,12.4516 8.1129,12.8484 7.9983,13.2294 C 7.8826,13.6139 7.7256,13.9804 7.5513,14.3415 C 7.2728,14.9185 7.3016,14.8423 6.9892,15.4014 C 6.7941,15.7506 6.601,16.1009 6.4075,16.451 C 6.1655,16.8888 6.0771,17.0679 5.8387,17.5076 C 5.6479,17.8596 5.4452,18.2035 5.2737,18.5659 C 5.0002,19.144 5.046,19.0778 4.7772,19.6583 C 4.6092,20.0214 4.446,20.3864 4.2918,20.7556 C 3.8911,21.7156 4.2155,20.8976 3.8555,21.8734 C 3.6822,22.3431 3.617,22.531 3.471,23.0099 C 3.3544,23.3924 3.2434,23.777 3.1402,24.1633 C 3.0369,24.5496 2.9394,24.938 2.8493,25.3275 C 2.7592,25.7173 2.6821,26.1098 2.6035,26.502 C 2.5249,26.8944 2.4507,27.2871 2.3803,27.681 C 2.3099,28.0749 2.2385,28.4682 2.157,28.86 C 2.0755,29.2518 1.985,29.6411 1.889,30.0296 C 1.7931,30.4179 1.6945,30.8056 1.5898,31.1917 C 1.485,31.5778 1.3736,31.9618 1.2578,32.3448 C 1.142,32.7277 1.0262,33.1104 0.9176,33.4955 C 0.7,34.2667 0.7912,33.8748 0.6237,34.6586 C 0.5402,35.0495 0.464,35.4429 0.3965,35.8369 C 0.2612,36.6268 0.3271,36.2299 0.2383,37.0261 C 0.1674,37.6632 0.1725,37.5813 0.1268,38.2207 C 0.0982,38.6197 0.0483,39.017 0.0221,39.416 C -0.004,39.8137 -0.0057,40.2174 0.0102,40.6155 C 0.0262,41.0155 0.0736,41.413 0.1383,41.8079 C 0.2034,42.2052 0.2886,42.5916 0.4303,42.9694 C 0.7107,43.7168 0.5552,43.3565 0.9462,44.0516 C 1.1423,44.4004 1.3628,44.7348 1.5972,45.0589 C 1.891,45.4652 2.0236,45.6126 2.3494,45.9933 C 2.6095,46.2972 2.8679,46.6025 3.1442,46.892 C 3.42,47.1809 3.7053,47.4632 3.9912,47.7421 C 4.2782,48.022 4.5771,48.2856 4.8844,48.5428 C 5.1911,48.7996 5.5017,49.0517 5.8127,49.3032 C 6.1236,49.5547 6.4338,49.8077 6.7389,50.0662 C 7.0443,50.3249 7.3433,50.5901 7.6211,50.8787 C 7.9907,51.2626 8.3303,51.6772 8.6427,52.1085 C 8.8773,52.4324 9.0953,52.7685 9.3078,53.1071 C 9.5206,53.446 9.7211,53.7919 9.9208,54.1386 C 10.1203,54.485 10.3234,54.8304 10.4998,55.1894 C 10.6762,55.5485 10.8248,55.9205 10.9948,56.2825 C 11.1647,56.6442 11.3466,57.0016 11.5433,57.3495 C 11.7393,57.6962 11.9493,58.0418 12.1957,58.3555 C 12.4449,58.6726 12.7326,58.9463 13.0626,59.1783 C 13.3913,59.4094 13.7463,59.5935 14.1231,59.7322 C 14.4977,59.8701 14.8889,59.969 15.2798,60.0472 C 15.6724,60.1258 16.0691,60.1764 16.4659,60.2276 C 16.8629,60.2789 17.259,60.3295 17.658,60.3635 C 18.0565,60.3975 18.4547,60.4373 18.8531,60.4711 C 19.253,60.505 19.6511,60.5055 20.0521,60.5056 C 20.4521,60.5057 20.8521,60.5056 21.2521,60.5056 C 21.6521,60.5056 22.0521,60.5056 22.4521,60.5056 C 22.8521,60.5056 23.2521,60.5056 23.6521,60.5056 C 24.0515,60.5056 24.4527,60.5148 24.852,60.4997 C 25.4928,60.4754 25.4083,60.4415 26.0475,60.3994 C 26.4472,60.373 26.8472,60.3896 27.2469,60.3676 C 27.7465,60.3401 27.9427,60.2915 28.4424,60.2655 C 29.244,60.2238 28.84,60.2745 29.6401,60.1987 C 30.0391,60.1609 30.4371,60.1406 30.8367,60.1116 C 31.2355,60.0827 31.6332,60.0366 32.0317,60.0039 C 32.1646,59.993 32.2976,59.983 32.4304,59.9706 C 32.928,59.9242 33.127,59.9006 33.6243,59.85 C 34.0222,59.8095 34.4203,59.7703 34.8183,59.7306 C 35.2166,59.6909 35.6128,59.6391 36.0099,59.5898 C 36.4069,59.5406 36.8038,59.4913 37.2008,59.4422 C 37.5977,59.3931 37.9949,59.3447 38.3911,59.2898 C 38.7873,59.2348 39.1822,59.1708 39.5773,59.1088 C 40.9209,58.898 39.4203,59.1406 40.7639,58.9295 C 41.159,58.8674 41.5531,58.7987 41.9476,58.7328 C 42.3421,58.6668 42.737,58.6028 43.1314,58.5364 C 43.6246,58.4533 43.8206,58.414 44.3126,58.3245 C 44.7061,58.2529 45.1002,58.1846 45.4928,58.1077 C 45.8853,58.0309 46.2773,57.9511 46.6695,57.8726 C 47.0617,57.794 47.4545,57.7181 47.8459,57.6357 C 48.2373,57.5534 48.6274,57.4644 49.0178,57.3773 C 49.4084,57.2902 49.7969,57.1966 50.1852,57.1001 C 50.5735,57.0037 50.9621,56.9092 51.3458,56.7954 C 51.7291,56.6817 52.1085,56.5531 52.482,56.4102 C 53.2312,56.1235 52.8758,56.3119 53.5682,55.904 C 53.9123,55.7013 54.2385,55.4644 54.5375,55.1996 C 55.0154,54.7763 54.9633,54.8278 55.3595,54.3273 C 55.6075,54.014 55.8269,53.677 56.0292,53.3327 C 56.2319,52.9877 56.4124,52.6306 56.5916,52.273 C 56.771,51.9149 56.9428,51.5548 57.1057,51.1888 C 57.2683,50.8236 57.4348,50.4593 57.5901,50.091 C 57.7454,49.7224 57.8856,49.3473 58.0122,48.968 C 58.2657,48.2086 58.1488,48.5915 58.3477,47.8161 C 58.4471,47.4287 58.5389,47.0393 58.6221,46.648 C 58.7054,46.2568 58.7797,45.8637 58.8508,45.4701 C 58.9219,45.0764 58.9948,44.6831 59.066,44.2895 C 59.1373,43.896 59.2038,43.5014 59.2677,43.1066 C 59.3317,42.7117 59.3872,42.3156 59.4482,41.9203 C 59.5091,41.525 59.5739,41.1301 59.6427,40.7362 C 59.7287,40.2437 59.7655,40.0469 59.8685,39.5577 C 59.9509,39.1661 60.043,38.777 60.142,38.3894 C 60.307,37.7434 60.4928,37.1031 60.6566,36.4568 C 60.8139,35.8364 60.7916,35.9133 60.9472,35.2925 C 61.0444,34.9043 61.1415,34.5166 61.2257,34.1253 C 61.3099,33.7344 61.3871,33.3416 61.4583,32.9481 C 61.5296,32.5545 61.5929,32.1595 61.6582,31.7649 C 61.7235,31.3703 61.7899,30.9758 61.8559,30.5813 C 61.8779,30.4498 61.8998,30.3183 61.9217,30.1867 C 61.9874,29.7922 62.0527,29.3976 62.1187,29.003 C 62.1846,28.6085 62.2494,28.2138 62.3205,27.8201 C 62.3916,27.4265 62.464,27.0331 62.5355,26.6396 C 62.607,26.2456 62.6896,25.855 62.7759,25.464 C 62.8621,25.0733 62.9447,24.6822 63.0193,24.289 C 63.1387,23.6599 63.1244,23.7392 63.22,23.106 C 63.2798,22.7104 63.3391,22.3149 63.3635,21.9151 C 63.3879,21.515 63.3884,21.1167 63.4253,20.7171 C 63.4624,20.3163 63.4928,19.9229 63.5038,19.5204 C 63.5148,19.1183 63.5453,18.7238 63.594,18.3246 C 63.6424,17.9274 63.6973,17.5313 63.762,17.1365 C 63.8428,16.6431 63.8755,16.4456 63.9673,15.9542 C 64.0407,15.561 64.123,15.1695 64.1943,14.7759 C 64.2656,14.3822 64.3267,13.987 64.3836,13.591 C 64.4406,13.1937 64.4869,12.799 64.4993,12.3974 C 64.5116,11.9981 64.5046,11.5969 64.5034,11.1975 C 64.5022,10.7961 64.494,10.3988 64.4436,10 C 64.3935,9.6042 64.3162,9.2086 64.2145,8.8228 C 64.1129,8.4369 63.9866,8.0545 63.8374,7.6843 C 63.6881,7.3137 63.5131,6.9521 63.3197,6.6025 C 63.1262,6.2525 62.912,5.9134 62.6625,5.6003 C 62.1651,4.9759 62.4219,5.2732 61.8419,4.7259 C 61.3754,4.2858 61.4324,4.344 60.9199,3.959 C 60.5997,3.7184 60.2717,3.4906 59.9268,3.2867 C 59.4968,3.0326 59.3191,2.9361 58.8598,2.7392 C 58.4924,2.5818 58.113,2.4502 57.7269,2.3469 C 57.2445,2.2177 57.0445,2.1853 56.5514,2.1081 C 56.1538,2.0458 55.7584,2.0222 55.3577,1.9918 C 54.8591,1.9539 54.6622,1.9102 54.1624,1.8883 C 53.763,1.8708 53.3621,1.883 52.9625,1.8806 C 52.5596,1.8782 52.166,1.8522 51.7652,1.8136 C 51.3645,1.7751 50.97,1.757 50.5674,1.7556 C 50.1675,1.7542 49.7674,1.7556 49.3674,1.7556 C 48.9675,1.7556 48.5674,1.7586 48.1674,1.7555 C 47.7646,1.7523 47.3711,1.7224 46.9704,1.6842 C 46.5697,1.646 46.1748,1.6316 45.7724,1.6306 C 45.3724,1.6296 44.9724,1.6306 44.5724,1.6306 C 44.1728,1.6306 43.7719,1.6386 43.3724,1.6268 C 42.8709,1.612 42.6762,1.5681 42.1766,1.5309 C 41.7771,1.5012 41.3775,1.5056 40.9773,1.5056 C 40.5778,1.5056 40.1766,1.5146 39.7773,1.4993 C 39.3768,1.4839 38.9813,1.4255 38.5817,1.3994 C 38.182,1.3733 37.7823,1.3845 37.3821,1.3802 C 36.9793,1.3759 36.586,1.3409 36.1854,1.3035 C 35.7849,1.2661 35.389,1.2562 34.9871,1.2556 C 34.5873,1.255 34.1867,1.2631 33.7875,1.2372 C 33.388,1.2112 32.9923,1.1525 32.5919,1.1369 C 32.1926,1.1215 31.7914,1.1306 31.392,1.1306 C 30.9923,1.1306 30.5915,1.1383 30.1923,1.113 C 29.1535,1.047 30.0378,1.0541 28.9968,1.0124 C 28.597,0.9964 28.1968,1.0148 27.7971,0.994 C 27.3973,0.9733 27.0014,0.9124 26.6016,0.8919 C 26.2018,0.8713 25.8019,0.8882 25.4022,0.8617 C 24.9028,0.8285 24.7074,0.7801 24.2067,0.7614 C 23.8068,0.7464 23.4067,0.7651 23.0069,0.7433 C 22.6072,0.7216 22.2114,0.66 21.8115,0.6404 C 21.4124,0.6209 21.0111,0.6306 20.6117,0.6306 C 19.5726,0.6306 20.4505,0.6546 19.4117,0.6282 C 19.0104,0.6179 18.6153,0.568 18.2158,0.534 C 17.8169,0.5 17.4181,0.4796 17.0198,0.4377 C 16.6223,0.396 16.2239,0.3537 15.8276,0.3016 C 15.4307,0.2493 15.0358,0.1902 14.6379,0.1452 C 14.0029,0.0733 14.0823,0.0629 13.4443,0.0229 C 13.0451,-0.0022 12.6443,0.0056 12.2446,0.0056 C 11.8446,0.0056 11.4446,0.0056 11.0446,0.0056 C 10.6446,0.0056 10.2446,0.0056 9.8446,0.0056 C 9.4474,0.0056 9.0411,-0.0148 8.645,0.022 C 8.1371,0.0692 7.941,0.1001 7.5378,0.4278 Z"
        style="fill:#ff00ff;fill-opacity:0.25;stroke:#ff00ff;stroke-width:0.2646;vector-effect:non-scaling-stroke"/>
</svg>
