<?xml version="1.0" encoding="UTF-8" standalone="no"?>
<!-- GERADO por photo_to_outline.py — contorno de one_blade_up (mm), 23 nós -->
<svg xmlns="http://www.w3.org/2000/svg" version="1.1"
     width="162.0106mm" height="33.1284mm" viewBox="0 0 162.0106 33.1284">
  <path d="M 0,33.1284 C 3.5999,33.0897 7.1998,33.051 10.7997,33.0123 C 10.9782,31.3569 11.1568,29.7015 11.3353,28.046 C 11.4477,27.004 12.9198,26.3477 13.9677,26.3265 C 20.1451,26.2016 26.3041,27.0722 32.4585,27.6189 C 39.3625,28.2322 46.2153,29.4361 53.1365,29.806 C 62.5389,30.3085 71.965,30.2411 81.3808,30.2336 C 95.4037,30.2225 109.4307,30.1883 123.4468,29.7501 C 130.9121,29.5167 138.3618,28.8816 145.8014,28.2196 C 148.3437,27.9934 150.9951,28.0115 153.3742,27.0872 C 155.7718,26.1557 158.1903,24.8083 159.7822,22.7879 C 161.2313,20.9489 162.0423,18.4679 162.0106,16.1268 C 161.9751,13.4907 161.2772,10.6234 159.5906,8.5971 C 157.7372,6.3704 154.7897,5.2568 152.0895,4.2071 C 150.0691,3.4216 147.8321,3.297 145.6673,3.1844 C 138.1432,2.793 130.6036,2.7595 123.0696,2.6976 C 109.0809,2.5826 95.0903,2.4852 81.1021,2.6537 C 71.9051,2.7645 62.701,2.9327 53.523,3.5353 C 46.4745,3.998 39.4961,5.2404 32.4585,5.8474 C 26.2607,6.382 20.0473,7.1434 13.8292,6.959 C 12.7963,6.9284 11.3426,6.2492 11.2636,5.2188 C 11.1302,3.4792 10.9968,1.7396 10.8633,0 C 7.2422,0 3.6211,0 0,0 C 0,11.0428 0,22.0856 0,33.1284 Z"
        style="fill:#ff00ff;fill-opacity:0.25;stroke:#ff00ff;stroke-width:0.2646;vector-effect:non-scaling-stroke"/>
</svg>
