<?xml version="1.0" encoding="UTF-8" standalone="no"?>
<!-- GERADO por photo_to_outline.py — contorno de one_blade (mm), 35 nós -->
<svg xmlns="http://www.w3.org/2000/svg" version="1.1"
     width="159.8856mm" height="33.2994mm" viewBox="0 0 159.8856 33.2994">
  <path d="M 0,33.2994 C 3.3781,33.2861 6.7562,33.2727 10.1343,33.2594 C 10.4818,31.2416 10.8294,29.2237 11.177,27.2059 C 11.3736,26.0645 13.2648,26.1268 14.404,25.9177 C 15.571,25.7035 16.7778,25.9086 17.9631,25.9603 C 21.777,26.1267 25.5906,26.3128 29.3994,26.5719 C 32.9655,26.8145 36.5226,27.1765 40.0854,27.465 C 42.4358,27.6554 44.7902,27.7958 47.1387,28.0085 C 49.1145,28.1873 51.0749,28.5508 53.0567,28.6393 C 59.9157,28.9458 66.7811,29.2508 73.6467,29.1929 C 88.1847,29.0702 102.7177,28.5729 117.2484,28.0977 C 126.0297,27.8105 134.8068,27.391 143.5793,26.9058 C 144.6786,26.8449 145.767,26.6473 146.8519,26.4601 C 147.8576,26.2865 148.8685,26.1148 149.8467,25.8242 C 151.3294,25.3837 152.8484,24.9873 154.2195,24.2713 C 155.3238,23.6947 156.3023,22.8752 157.1825,21.9937 C 157.9289,21.2461 158.6939,20.4278 159.0499,19.4332 C 159.6184,17.8452 159.8856,16.1294 159.8856,14.4428 C 159.8856,12.8071 159.5839,11.1534 159.0499,9.6073 C 158.6662,8.4965 157.9809,7.4793 157.1825,6.617 C 156.3431,5.7104 155.3194,4.9529 154.2195,4.3901 C 152.8451,3.6868 151.3348,3.2743 149.8467,2.8631 C 148.8707,2.5934 147.8555,2.4892 146.8519,2.3541 C 145.7652,2.2078 144.6752,2.0569 143.5793,2.0192 C 134.8046,1.7174 126.0281,1.3979 117.2484,1.3361 C 102.7147,1.2338 88.1773,1.2101 73.6467,1.527 C 66.7732,1.6769 59.9164,2.2748 53.0567,2.7359 C 51.0793,2.8687 49.1047,3.0578 47.1387,3.3085 C 44.7792,3.6094 42.4424,4.0706 40.0854,4.3901 C 36.6534,4.8553 33.2222,5.3452 29.7734,5.6626 C 25.845,6.0241 21.8972,6.1329 17.9631,6.4261 C 16.7732,6.5147 15.5956,6.8698 14.404,6.8078 C 13.3119,6.7511 11.3961,7.1518 11.2061,6.0749 C 10.8488,4.0499 10.4916,2.025 10.1343,0 C 6.8189,0 3.5034,0 0.188,0 C 0.1253,11.0998 0.0627,22.1996 0,33.2994 Z"
        style="fill:#ff00ff;fill-opacity:0.25;stroke:#ff00ff;stroke-width:0.2646;vector-effect:non-scaling-stroke"/>
</svg>
