<?xml version="1.0" encoding="UTF-8" standalone="no"?>
<!-- GERADO por photo_to_outline.py — contorno de pi_up (mm), 38 nós -->
<svg xmlns="http://www.w3.org/2000/svg" version="1.1"
     width="90.2378mm" height="59.8877mm" viewBox="0 0 90.2378 59.8877">
  <path d="M 31.1081,0.5097 C 30.044,0.8749 30.2658,2.9349 29.1994,3.2933 C 26.8089,4.0969 24.1655,3.6461 21.644,3.691 C 16.2951,3.7862 10.9239,3.2428 5.595,3.7137 C 4.667,3.7957 4.1244,4.8739 3.3021,5.3117 C 2.5534,5.7103 1.5431,5.6289 0.9187,6.203 C 0.4441,6.6394 0.3974,7.4041 0.3292,8.0453 C 0.2527,8.7638 0.5072,9.4844 0.4927,10.2069 C 0.4266,13.5052 -0.2024,16.8094 0.0878,20.0956 C 0.1469,20.7638 1.0692,21.0163 1.4932,21.5361 C 1.8248,21.9427 2.2786,22.34 2.3435,22.8606 C 2.5186,24.2661 2.4245,25.7104 2.1875,27.1068 C 2.0795,27.7434 1.4786,28.2149 1.3284,28.8428 C 1.1451,29.6093 1.2465,30.4169 1.2078,31.204 C 1.1947,31.47 1.1756,31.7359 1.1731,32.0022 C 1.1693,32.3991 1.1746,32.7961 1.1889,33.1928 C 1.2548,35.0299 1.3807,36.8652 1.4135,38.7032 C 1.4148,38.779 1.2893,38.4408 1.2838,38.5164 C 1.1081,40.944 1.0437,43.3784 0.8992,45.8081 C 0.8383,46.8324 0.7392,47.8541 0.6677,48.8777 C 0.6035,49.7963 0.522,50.7143 0.4921,51.6347 C 0.4345,53.4093 -0.5286,55.4505 0.4053,56.9606 C 1.3636,58.5101 3.4747,59.3442 5.2957,59.4017 C 31.1262,60.2175 56.9835,59.8154 82.8257,59.5637 C 84.1373,59.5509 85.6578,59.4751 86.6431,58.6093 C 87.5256,57.834 87.7244,56.4311 87.7277,55.2564 C 87.7434,49.7027 87.7591,44.149 87.7748,38.5953 C 87.7776,37.6131 90.1603,37.8574 90.1672,36.8753 C 90.1907,33.5032 90.2143,30.1312 90.2378,26.7592 C 90.2465,25.5232 87.5837,25.4057 87.5837,24.1697 C 87.5837,18.804 87.5837,13.4384 87.5837,8.0727 C 87.5837,6.7862 88.012,4.5836 86.7565,4.3029 C 79.9718,2.7859 72.8349,4.0176 65.9273,3.2305 C 64.8898,3.1123 64.2783,1.7188 63.2385,1.6232 C 58.3283,1.1717 53.3488,1.0996 48.4458,1.6232 C 47.6621,1.7069 47.6296,3.226 46.8552,3.3729 C 44.3548,3.8471 41.6579,4.1041 39.2203,3.3729 C 38.1216,3.0433 38.3931,0.8915 37.3115,0.5097 C 35.3616,-0.1785 33.064,-0.1614 31.1081,0.5097 Z"
        style="fill:#ff00ff;fill-opacity:0.25;stroke:#ff00ff;stroke-width:0.2646;vector-effect:non-scaling-stroke"/>
</svg>
