<?xml version="1.0" encoding="UTF-8" standalone="no"?>
<!-- GERADO por photo_to_outline.py — contorno de pi_up (mm), 34 nós -->
<svg xmlns="http://www.w3.org/2000/svg" version="1.1"
     width="90.5318mm" height="58.9841mm" viewBox="0 0 90.5318 58.9841">
  <path d="M 7.0208,58.981 C 33.0546,58.981 59.0884,58.981 85.1221,58.981 C 85.9808,58.981 86.9529,58.5664 87.4415,57.8604 C 88.0571,56.9708 88.0973,55.7638 88.0973,54.682 C 88.0973,49.2266 88.0973,43.7712 88.0973,38.3157 C 88.0973,37.2177 90.5318,37.1949 90.5318,36.0969 C 90.5318,32.7673 90.5318,29.4378 90.5318,26.1082 C 90.5318,25.0616 88.0882,25.1834 88.0882,24.1368 C 88.0882,18.5627 88.0882,12.9885 88.0882,7.4144 C 88.0882,6.2912 88.001,5.053 87.3733,4.1216 C 86.9237,3.4545 85.9887,3.1053 85.1842,3.1053 C 84.4446,3.1053 83.7051,3.1053 82.9655,3.1053 C 82.2283,3.1053 82.2208,1.4635 81.4836,1.4635 C 78.8771,1.4635 76.2706,1.4635 73.6641,1.4635 C 72.9996,1.4635 73.2455,3.137 72.581,3.137 C 70.2058,3.137 67.8306,3.137 65.4553,3.137 C 64.6691,3.137 65.0882,1.0796 64.302,1.0796 C 59.1783,1.0796 54.0546,1.0796 48.9309,1.0796 C 48.133,1.0796 48.5105,3.14 47.7126,3.14 C 46.9709,3.14 46.2292,3.14 45.4875,3.14 C 45.1542,3.14 44.966,2.621 44.6327,2.621 C 43.7482,2.621 42.8637,2.621 41.9793,2.621 C 41.5711,2.621 41.3124,3.2074 40.9043,3.2074 C 40.2454,3.2074 39.5865,3.2074 38.9275,3.2074 C 38.6403,3.2074 38.5178,2.7887 38.3982,2.5276 C 38.0926,1.8601 38.363,0.6791 37.6652,0.4509 C 35.8462,-0.144 33.756,-0.143 31.9238,0.4102 C 31.2455,0.6149 31.5688,1.8062 31.1908,2.4054 C 31.0126,2.6879 30.6697,2.9275 30.3357,2.9275 C 22.564,2.9275 14.7924,2.9275 7.0208,2.9275 C 5.703,2.9275 4.3763,2.9572 3.0743,3.16 C 2.0228,3.3238 0,2.9569 0,4.0211 C 0,21.9133 0,39.8054 0,57.6976 C 0,58.7849 2.0047,58.5922 3.0743,58.7877 C 4.3699,59.0245 5.7037,58.981 7.0208,58.981 Z"
        style="fill:#ff00ff;fill-opacity:0.25;stroke:#ff00ff;stroke-width:0.2646;vector-effect:non-scaling-stroke"/>
</svg>
