<?xml version="1.0" encoding="UTF-8" standalone="no"?>
<!-- GERADO por photo_to_outline.py — contorno de pi_up (mm), 55 nós -->
<svg xmlns="http://www.w3.org/2000/svg" version="1.1"
     width="89.9832mm" height="58.7605mm" viewBox="0 0 89.9832 58.7605">
  <path d="M 6.4722,58.6712 C 32.506,58.6712 58.5398,58.6712 84.5736,58.6712 C 85.4322,58.6712 86.4044,58.2566 86.893,57.5506 C 87.5086,56.661 87.5487,55.454 87.5487,54.3722 C 87.5487,48.9168 87.5487,43.4613 87.5487,38.0059 C 87.5487,36.9079 89.9832,36.8851 89.9832,35.7871 C 89.9832,32.4575 89.9832,29.1279 89.9832,25.7984 C 89.9832,24.7518 87.5396,24.8736 87.5396,23.827 C 87.5396,18.2529 87.5396,12.6787 87.5396,7.1046 C 87.5396,5.9814 87.4524,4.7432 86.8247,3.8118 C 86.3751,3.1447 85.4402,2.7955 84.6357,2.7955 C 83.8961,2.7955 83.1565,2.7955 82.4169,2.7955 C 81.6797,2.7955 81.6723,1.1536 80.935,1.1536 C 78.3285,1.1536 75.722,1.1536 73.1155,1.1536 C 72.451,1.1536 72.6969,2.8272 72.0325,2.8272 C 69.6572,2.8272 67.282,2.8272 64.9068,2.8272 C 64.1206,2.8272 64.5397,0.7698 63.7535,0.7698 C 58.6298,0.7698 53.5061,0.7698 48.3824,0.7698 C 47.5845,0.7698 47.9619,2.8302 47.164,2.8302 C 46.4223,2.8302 45.6806,2.8302 44.9389,2.8302 C 44.6056,2.8302 44.4175,2.3112 44.0841,2.3112 C 43.1997,2.3112 42.3152,2.3112 41.4307,2.3112 C 41.0225,2.3112 40.7463,3.016 40.3557,2.8976 C 39.1261,2.5249 38.0924,1.6747 37.016,0.9733 C 36.6052,0.7056 36.4019,0.0132 35.9118,0.0017 C 34.424,-0.033 32.9295,0.3457 31.5275,0.845 C 30.799,1.1045 30.3597,1.8892 29.664,2.2271 C 29.0668,2.5171 28.3906,2.6762 27.7268,2.6906 C 20.4026,2.85 13.0608,2.2922 5.7491,2.7473 C 4.8383,2.804 4.2444,3.7902 3.4306,4.203 C 2.7227,4.562 1.9196,4.7045 1.2058,5.0517 C 1.0908,5.1076 0.891,5.3304 1.0086,5.3808 C 1.622,5.6435 2.5173,5.3104 2.9652,5.8051 C 3.2335,6.1015 2.5714,6.5123 2.2902,6.7965 C 2.0452,7.044 1.7634,7.4021 1.4167,7.3697 C 1.0683,7.3373 0.9403,6.4373 0.6583,6.6443 C 0.2354,6.9545 0.3349,7.6554 0.313,8.1794 C 0.1642,11.7389 -0.2043,15.3207 0.1474,18.8658 C 0.2197,19.5942 1.1188,19.9648 1.5416,20.5623 C 1.8446,20.9903 2.2763,21.4084 2.3171,21.9313 C 2.4278,23.3485 2.2592,24.7887 1.9805,26.1827 C 1.8778,26.6963 1.2823,27.0272 1.195,27.5437 C 0.975,28.8448 1.0544,30.1814 1.0812,31.5006 C 1.1081,32.8285 1.1814,34.159 1.3559,35.4756 C 1.6346,37.5785 2.584,39.6302 2.4392,41.7465 C 2.3616,42.8811 1.093,43.6204 0.7251,44.6965 C 0.598,45.0685 1.0734,45.4404 1.0426,45.8324 C 0.9187,47.4129 0.3564,48.9421 0.268,50.5251 C 0.2091,51.5805 0.5767,52.6217 0.6046,53.6784 C 0.6177,54.1729 0.4898,54.6623 0.3902,55.1468 C 0.3375,55.403 0.1444,55.6322 0.1492,55.8937 C 0.1515,56.0237 0.2902,56.1316 0.4089,56.1845 C 0.7712,56.346 1.1957,56.3423 1.5509,56.5188 C 2.7122,57.096 3.7566,57.8973 4.9366,58.435 C 5.4119,58.6517 5.9532,58.6811 6.4696,58.7605 C 6.499,58.765 6.4424,58.6712 6.4722,58.6712 Z"
        style="fill:#ff00ff;fill-opacity:0.25;stroke:#ff00ff;stroke-width:0.2646;vector-effect:non-scaling-stroke"/>
</svg>
