<?xml version="1.0" encoding="UTF-8" standalone="no"?>
<!-- GERADO por photo_to_outline.py — contorno de trena (mm), 141 nós -->
<svg xmlns="http://www.w3.org/2000/svg" version="1.1"
     width="64.2885mm" height="64.7584mm" viewBox="0 0 64.2885 64.7584">
  <path d="M 7.5674,0.0622 C 7.2383,0.3417 7.1628,1.1682 7.0548,1.5631 C 6.8301,2.3851 6.8609,2.2855 6.6572,3.1128 C 6.537,3.6008 6.3679,4.1798 6.3669,4.6843 C 6.3657,5.2967 6.2134,5.5921 6.0464,6.1813 C 5.7744,7.1412 6.1598,6.8113 6.3445,7.7115 C 6.4437,8.195 6.4193,8.8075 6.4469,9.305 C 6.4764,9.8371 6.4352,10.3722 6.4351,10.9046 C 6.4351,11.4377 6.4477,11.9715 6.4587,12.5044 C 6.4759,13.3352 6.3067,13.2972 6.613,14.0881 C 6.8089,14.594 7.1938,14.9702 7.3336,15.5078 C 7.465,16.0128 7.4797,16.582 7.4176,17.0981 C 7.3539,17.6268 7.1763,18.1405 6.9703,18.629 C 6.7094,19.2475 6.371,19.8165 5.9988,20.373 C 5.6231,20.9347 5.5138,21.1599 5.2119,21.7633 C 4.8299,22.5267 4.8557,22.4194 4.4618,23.1765 C 4.1524,23.7713 4.0778,24.0234 3.8163,24.6394 C 3.5547,25.2556 3.4555,25.4966 3.2242,26.125 C 3.0393,26.6274 2.8665,27.1273 2.7127,27.6403 C 2.5586,28.1539 2.4296,28.6654 2.3246,29.1913 C 2.22,29.7144 2.1115,30.2365 2.0259,30.7631 C 1.9393,31.2961 1.8053,31.7996 1.6827,32.3237 C 1.6099,32.6346 1.5942,32.7963 1.5799,33.1153 C 1.5561,33.6503 1.5192,34.1771 1.4769,34.711 C 1.4346,35.2436 1.4088,35.774 1.3498,36.3055 C 1.2915,36.831 1.2495,37.3741 1.1141,37.887 C 0.8913,38.7305 0.7768,38.5329 0.6475,39.4097 C 0.5678,39.9507 0.6453,40.4651 0.61,41.0045 C 0.5398,42.076 0.4431,41.509 0.4204,42.5901 C 0.4092,43.126 0.3493,43.6509 0.3013,44.1844 C 0.2534,44.717 0.1844,45.2422 0.1522,45.7762 C 0.1128,46.4313 -0.1313,46.7106 0.0948,47.3559 C 0.3067,47.9605 0.5731,48.1974 0.9637,48.6943 C 1.2942,49.1147 1.679,49.4835 2.0088,49.9041 C 2.3404,50.3271 2.7022,50.7083 3.0692,51.1002 C 3.4338,51.4897 3.779,51.8961 4.146,52.2834 C 4.5152,52.6731 4.8663,53.0644 5.2207,53.4652 C 5.6573,53.9589 5.8877,54.125 6.3487,54.598 C 6.9279,55.1922 7.1423,55.4635 7.568,56.1774 C 7.842,56.6369 8.0209,57.1424 8.281,57.6089 C 8.5411,58.0755 8.8825,58.4894 9.1336,58.9617 C 9.4488,59.5544 9.5345,59.7975 9.8827,60.3735 C 10.3269,61.1085 10.1882,61.0515 10.6072,61.7983 C 10.868,62.2634 11.2122,62.6771 11.5195,63.1112 C 11.8369,63.5594 12.1397,63.9659 12.631,64.2355 C 13.2587,64.5798 13.4438,64.6272 14.153,64.6407 C 15.5414,64.667 14.3635,64.6445 15.7515,64.6601 C 16.2843,64.6661 16.8178,64.6857 17.3509,64.6932 C 17.8853,64.7007 18.414,64.7635 18.9481,64.7582 C 19.8069,64.7495 19.6875,64.7706 20.5451,64.725 C 21.0748,64.6967 21.614,64.7088 22.1446,64.7043 C 22.6778,64.6997 23.2109,64.6683 23.7441,64.6739 C 24.614,64.683 24.4741,64.7492 25.3387,64.6267 C 25.8715,64.5512 26.3981,64.5637 26.9346,64.549 C 27.4685,64.5343 27.9969,64.4644 28.5302,64.4385 C 29.9176,64.3711 28.739,64.3995 30.1245,64.3104 C 30.9809,64.2553 30.8659,64.2975 31.719,64.1938 C 32.0366,64.1552 32.1963,64.1441 32.5149,64.1146 C 33.3103,64.041 34.1124,63.9972 34.906,63.9114 C 35.8316,63.8113 36.7536,63.6371 37.6778,63.519 C 38.5246,63.4108 38.4243,63.478 39.2664,63.3349 C 39.7928,63.2454 40.3127,63.1318 40.8415,63.0555 C 41.3703,62.9793 41.8854,62.8445 42.4142,62.7678 C 42.943,62.691 43.4701,62.6245 43.9943,62.519 C 44.5177,62.4137 45.0368,62.2958 45.5566,62.1745 C 46.3929,61.9794 46.2869,62.041 47.1322,61.9018 C 47.6565,61.8155 48.1761,61.6769 48.697,61.5703 C 49.2194,61.4635 49.7403,61.348 50.2623,61.239 C 51.1064,61.0628 50.9772,61.0546 51.8048,60.8205 C 52.3194,60.6749 52.839,60.564 53.3594,60.4466 C 53.8583,60.3341 54.401,60.1071 54.8026,59.7839 C 55.2179,59.4497 55.5536,59.0079 55.7241,58.5044 C 55.8969,57.9939 56.0459,57.4954 56.2933,57.0124 C 56.5956,56.4222 56.9299,55.8192 57.4902,55.442 C 57.9436,55.1368 58.4105,54.9271 58.7609,54.4901 C 60.6081,52.1868 57.8088,54.0822 59.6919,51.8081 C 59.9951,51.442 60.2639,50.8244 60.3422,50.3573 C 60.416,49.9172 60.4632,49.1978 60.3613,48.7624 C 60.2344,48.2206 59.9772,47.815 59.9401,47.2343 C 59.8705,46.1485 60.8785,46.3363 60.3185,45.5177 C 59.9759,45.0167 59.8053,44.6791 59.8516,44.074 C 59.8984,43.4632 60.1582,43.2022 60.4562,42.6671 C 60.7077,42.2155 60.2158,41.6049 60.1556,41.1506 C 60.0869,40.6317 60.2274,40.0752 60.2768,39.5589 C 60.3276,39.0275 60.3767,38.4974 60.4628,37.9702 C 60.6232,36.9887 60.6618,36.5756 60.942,35.6196 C 61.0943,35.0997 61.4262,34.6831 61.6125,34.1763 C 61.7834,33.7113 62.1192,33.1741 62.1242,32.6686 C 62.1255,32.5362 62.1007,32.4024 62.0589,32.2767 C 61.8854,31.754 61.4837,31.4079 61.384,30.8417 C 61.2755,30.226 61.2598,29.4628 61.3687,28.8465 C 61.4585,28.3386 61.864,27.8506 61.8003,27.3227 C 61.7013,26.5023 61.4647,25.8462 61.4697,24.9787 C 61.4728,24.4418 61.4682,23.9162 61.5359,23.3819 C 61.6034,22.8492 62.1607,22.3963 62.2016,21.9745 C 62.2521,21.4545 61.7556,20.6321 61.7084,20.0689 C 61.6643,19.5415 61.6857,18.9857 61.9303,18.5089 C 62.2772,17.8328 62.2636,17.7318 62.074,16.9959 C 61.9181,16.3906 62.0546,16.0278 62.1693,15.4362 C 62.2677,14.9288 62.1756,14.3577 62.2062,13.84 C 62.2405,13.2587 62.2646,12.7722 62.7701,12.4471 C 63.5983,11.9146 63.3136,12.1459 63.7568,11.2667 C 63.9492,10.8851 64.468,10.2607 64.225,9.7919 C 63.9524,9.2659 63.1809,9.5791 62.7464,9.3898 C 61.6112,8.8951 62.4948,9.1223 61.2748,8.9098 C 60.7085,8.8112 60.3674,8.4019 60.0111,7.9942 C 59.4135,7.3103 59.5856,7.397 58.7236,7.0877 C 58.2171,6.906 57.689,6.8405 57.1548,6.8046 C 56.6228,6.7689 56.0884,6.7827 55.5555,6.7729 C 55.0211,6.7632 54.4901,6.7646 53.9569,6.7241 C 53.424,6.6836 52.8926,6.6751 52.3587,6.6565 C 51.8254,6.6379 51.2932,6.6155 50.7593,6.6244 C 50.2263,6.6332 49.6928,6.6543 49.1596,6.6326 C 47.7734,6.5761 48.9508,6.5726 47.5633,6.5287 C 47.0301,6.5118 46.4967,6.5156 45.9634,6.5156 C 45.295,6.5155 45.0313,6.525 44.3651,6.4644 C 43.2979,6.3673 43.8422,6.3631 42.7689,6.3731 C 42.2355,6.3781 41.7027,6.3959 41.1691,6.3901 C 40.4997,6.3828 40.24,6.3314 39.5729,6.2892 C 39.0426,6.2557 38.5054,6.2365 37.974,6.2357 C 37.4364,6.2348 36.9127,6.2138 36.3764,6.1779 C 35.8439,6.1422 35.3105,6.145 34.7771,6.1405 C 34.1085,6.1349 33.4496,6.0339 32.782,6.0179 C 32.6534,6.0148 32.1107,6.0156 31.9821,6.0156 C 31.4487,6.0156 30.9154,6.0161 30.3821,6.0156 C 29.8411,6.0151 29.3246,5.9652 28.7878,5.9104 C 28.2564,5.856 27.7222,5.8908 27.1892,5.8906 C 26.6564,5.8904 26.1217,5.8852 25.5897,5.8556 C 25.056,5.8258 24.5281,5.7693 23.9929,5.7657 C 23.4596,5.7621 22.9261,5.7719 22.3929,5.7572 C 21.8591,5.7425 21.3277,5.7281 20.7938,5.7209 C 20.2622,5.7138 19.7274,5.6625 19.1969,5.6272 C 18.1212,5.5557 18.6823,5.506 17.6014,5.5513 C 17.0652,5.5737 16.5388,5.5404 16.0033,5.5155 C 15.3367,5.4845 15.0745,5.4266 14.4082,5.3963 C 13.5532,5.3575 13.665,5.369 12.8117,5.2997 C 12.2795,5.2565 11.7492,5.2164 11.2184,5.1565 C 10.6884,5.0966 10.1597,5.0258 9.6298,4.9659 C 9.0988,4.9059 8.5415,5.1007 8.0418,5.0402 C 7.7813,5.0087 7.6674,4.7526 7.6834,4.4907 C 7.7364,3.6238 9.2568,0.3875 7.8431,0.011 C 7.7528,-0.0131 7.6386,0.0017 7.5674,0.0622 Z"
        style="fill:#ff00ff;fill-opacity:0.25;stroke:#ff00ff;stroke-width:0.2646;vector-effect:non-scaling-stroke"/>
</svg>
