<?xml version="1.0" encoding="UTF-8" standalone="no"?>
<!-- GERADO por photo_to_outline.py — contorno de zoerax (mm), 66 nós -->
<svg xmlns="http://www.w3.org/2000/svg" version="1.1"
     width="77.7298mm" height="140.0628mm" viewBox="0 0 77.7298 140.0628">
  <path d="M 70.6011,2.4977 C 70.0208,1.6403 69.2273,0.8544 68.2824,0.4314 C 67.2856,-0.0148 66.1259,-0.0119 65.034,0.0053 C 60.2758,0.0805 55.5176,0.1558 50.7594,0.231 C 49.1919,0.2558 47.6236,0.9116 46.3191,1.7809 C 45.0617,2.6187 44.0224,3.8439 43.3256,5.1846 C 41.9764,7.7804 41.5371,10.7748 40.2732,13.4132 C 39.9409,14.1067 39.1265,14.4431 38.6152,15.0175 C 38.2729,15.402 37.9376,15.81 37.7227,16.2778 C 32.6632,27.2952 28.0373,38.5121 22.8037,49.4479 C 22.4064,50.2781 21.5007,50.75 20.894,51.4421 C 20.539,51.8471 20.1441,52.2425 19.9233,52.7337 C 18.5033,55.8927 17.2973,59.1436 15.9906,62.3511 C 15.7873,62.8499 15.5615,63.3408 15.3933,63.8524 C 13.6471,69.1624 11.9291,74.4817 10.2484,79.8128 C 10.0861,80.3275 9.9919,80.8613 9.8656,81.386 C 7.9016,89.5456 5.9225,97.7016 3.9773,105.8658 C 3.8525,106.3897 3.7453,106.9181 3.6561,107.4492 C 2.663,113.3564 1.67,119.2637 0.7306,125.1797 C 0.6459,125.7129 0.6249,126.2545 0.5843,126.7929 C 0.3945,129.3101 -0.1521,131.8293 0.0393,134.3464 C 0.1178,135.3779 0.4639,136.6536 1.3719,137.1492 C 2.2744,137.6418 3.4367,137.0105 4.4293,136.7425 C 4.9441,136.6034 5.3873,136.2627 5.8182,135.9486 C 7.4334,134.7714 9.0924,133.6351 10.5577,132.2758 C 11.632,131.2792 12.5478,130.1136 13.3961,128.9186 C 14.0949,127.9343 14.893,126.9391 15.1788,125.7662 C 18.0162,114.1203 20.2053,102.3259 22.73,90.6081 C 22.8419,90.0888 22.931,89.5626 23.0885,89.0553 C 24.3913,84.859 24.7912,80.2344 27.1095,76.5019 C 28.7314,73.8907 31.7683,72.4447 34.3962,70.85 C 35.1918,70.3672 36.2221,70.4155 37.1527,70.4073 C 40.7447,70.3755 44.3478,70.3948 47.9243,70.7303 C 49.3692,70.8659 51.0499,70.8567 52.1411,71.8134 C 52.978,72.5474 53.1888,74.0034 52.8749,75.0713 C 50.659,82.6094 47.3519,89.7832 44.686,97.174 C 44.5025,97.6828 44.4385,98.2272 44.3313,98.7573 C 44.0463,100.1665 43.5209,101.5539 43.5095,102.9916 C 43.4399,111.7295 43.3703,120.4674 43.3007,129.2053 C 43.294,130.0533 43.8839,130.8035 44.0631,131.6324 C 44.2464,132.4801 44.2771,133.3537 44.3839,134.2144 C 44.5109,135.2379 44.4702,136.2966 44.7646,137.2851 C 44.9308,137.8432 45.3164,138.3319 45.7317,138.74 C 46.1053,139.1072 46.5806,139.3824 47.075,139.5555 C 47.6641,139.7617 48.2988,139.845 48.9228,139.8575 C 56.4301,140.0075 63.9399,140.1082 71.4484,140.0427 C 72.4112,140.0343 73.4229,140.0148 74.308,139.6359 C 75.1546,139.2736 75.8981,138.6317 76.4562,137.8993 C 76.879,137.3444 77.1298,136.6184 77.1388,135.9209 C 77.2094,130.5041 77.2799,125.0874 77.3504,119.6707 C 77.3748,117.7976 76.1493,116.1066 75.8281,114.2611 C 75.5124,112.4468 75.2621,110.5813 75.4499,108.7494 C 75.7751,105.5772 76.8498,102.5232 77.3541,99.3745 C 77.4415,98.8289 77.3187,98.2655 77.2159,97.7226 C 76.6728,94.8518 75.8182,92.0379 75.4186,89.1435 C 75.2752,88.1053 75.415,87.0364 75.5981,86.0044 C 76.0854,83.2575 76.9282,80.582 77.4243,77.8367 C 77.5221,77.2953 77.4683,76.7287 77.3719,76.187 C 76.8598,73.3086 75.9839,70.4952 75.6025,67.5966 C 75.4657,66.5572 75.6456,65.4919 75.8289,64.4597 C 76.3395,61.5846 77.2455,58.7848 77.68,55.8972 C 77.802,55.0862 77.688,54.2395 77.4865,53.4444 C 76.8013,50.7401 75.7521,48.1384 75.031,45.4434 C 74.8957,44.9374 74.9282,44.3994 74.9263,43.8756 C 74.8848,32.9567 75.0535,22.0365 74.9006,11.1185 C 74.893,10.5701 74.6904,10.0281 74.4456,9.5372 C 73.2523,7.1446 72.0997,4.7118 70.6011,2.4977 Z"
        style="fill:#ff00ff;fill-opacity:0.25;stroke:#ff00ff;stroke-width:0.2646;vector-effect:non-scaling-stroke"/>
</svg>
