<?xml version="1.0" encoding="UTF-8" standalone="no"?>
<!-- GERADO por photo_to_outline.py — contorno de zoerax (mm), 49 nós -->
<svg xmlns="http://www.w3.org/2000/svg" version="1.1"
     width="77.5978mm" height="139.9572mm" viewBox="0 0 77.5978 139.9572">
  <path d="M 51.7063,0.0867 C 49.9111,0.097 48.0843,0.6839 46.535,1.5906 C 45.1854,2.3804 44.0592,3.6256 43.3122,4.9993 C 41.9144,7.5698 41.5547,10.6114 40.215,13.2127 C 39.7818,14.0538 38.5166,14.2591 38.1047,15.1108 C 32.6645,26.3602 28.1503,38.0405 22.7571,49.3125 C 22.3027,50.2622 21.2975,50.8327 20.6254,51.6431 C 20.28,52.0595 19.9217,52.4858 19.7116,52.9843 C 17.9521,57.1601 16.1463,61.3285 14.7306,65.633 C 12.0642,73.7402 9.5446,81.907 7.4758,90.1869 C 5.2127,99.2445 3.3172,108.3997 1.7456,117.6025 C 0.8247,122.9951 0.2701,128.4578 0.0069,133.9222 C -0.0384,134.8615 0.1174,136.0064 0.8294,136.6207 C 1.5102,137.2081 2.6691,137.2673 3.5077,136.9426 C 5.4821,136.1781 7.3385,134.9918 8.8542,133.5135 C 11.23,131.1964 13.6779,128.7354 15.0302,125.7048 C 16.4964,122.4187 16.3515,118.6301 17.0685,115.1038 C 18.2323,109.3798 19.3607,103.647 20.6722,97.955 C 21.4325,94.6555 22.2562,91.3649 23.2818,88.138 C 24.5912,84.0181 25.9007,79.8983 27.2101,75.7784 C 30.2572,66.1913 59.6464,57.6032 56.0882,67.0126 C 52.3602,76.8711 48.6322,86.7296 44.9042,96.5881 C 44.2733,98.2564 44.6228,100.1513 44.2886,101.9033 C 44.1879,102.431 43.6264,102.8288 43.6113,103.3658 C 43.3746,111.7957 43.3805,120.2336 43.537,128.6653 C 43.554,129.5791 44.0299,130.4338 44.1307,131.3421 C 44.3456,133.2776 43.5452,135.4662 44.4817,137.1736 C 45.3128,138.6889 47.1276,139.9572 48.8559,139.9572 C 56.809,139.9572 64.762,139.9572 72.7151,139.9572 C 74.7135,139.9572 77.2881,138.0785 77.2881,136.0801 C 77.2881,130.5792 77.2881,125.0783 77.2881,119.5774 C 77.2881,115.8517 75.3544,112.2976 75.3362,108.5719 C 75.3206,105.3812 76.7026,102.334 77.1885,99.1804 C 77.2721,98.6372 77.1362,98.079 77.0361,97.5386 C 76.4791,94.5326 75.6893,91.5697 75.2184,88.549 C 75.1182,87.9059 75.211,87.2393 75.3311,86.5996 C 75.9196,83.4643 76.829,80.3916 77.3408,77.2429 C 77.4291,76.6997 77.2225,76.1474 77.118,75.607 C 76.5622,72.734 75.8797,69.8858 75.3605,67.0059 C 75.2899,66.6144 75.3227,66.2091 75.3523,65.8124 C 75.3817,65.4191 75.453,65.0291 75.537,64.6438 C 76.188,61.6547 77.1531,58.7237 77.5565,55.6913 C 77.6994,54.6177 77.4497,53.5094 77.1569,52.4667 C 76.6582,50.6909 75.7558,49.0497 75.1976,47.2917 C 74.9983,46.6643 74.9026,45.9986 74.8938,45.3404 C 74.7411,33.8861 74.9653,22.4275 74.7135,10.975 C 74.6986,10.2994 74.4096,9.6427 74.0957,9.0443 C 72.7953,6.5655 71.6433,3.9573 69.8881,1.7767 C 69.1462,0.8551 67.9984,-0.0068 66.8153,0 C 61.7789,0.0289 56.7426,0.0578 51.7063,0.0867 Z"
        style="fill:#ff00ff;fill-opacity:0.25;stroke:#ff00ff;stroke-width:0.2646;vector-effect:non-scaling-stroke"/>
</svg>
